{"glyphs":{"0":{"ha":821,"x_min":38,"x_max":788,"o":"m 38 469 q 61 646 38 560 q 131 799 85 732 q 248 908 178 867 q 413 949 318 949 q 576 908 506 949 q 694 799 647 867 q 764 646 740 732 q 788 469 788 560 q 764 292 788 379 q 694 138 740 206 q 576 29 647 71 q 413 -12 506 -12 q 248 29 318 -12 q 131 138 178 71 q 61 292 85 206 q 38 469 38 379 m 525 692 q 519 801 525 757 q 499 873 513 846 q 463 912 485 900 q 413 924 442 924 q 362 912 383 924 q 326 873 340 900 q 306 801 313 846 q 300 692 300 757 l 300 244 q 306 135 300 179 q 326 63 313 90 q 362 24 340 36 q 413 13 383 13 q 463 24 442 13 q 499 63 485 36 q 519 135 513 90 q 525 244 525 179 l 525 692 "},"1":{"ha":821,"x_min":124,"x_max":619,"o":"m 138 733 q 124 739 124 733 q 146 756 124 747 q 301 835 229 785 q 428 933 372 885 l 544 933 l 544 22 l 619 22 l 619 0 l 261 0 l 261 22 l 336 22 l 336 797 q 295 779 318 789 q 247 760 272 769 q 198 744 222 751 q 156 735 174 738 q 144 733 150 733 q 138 733 140 733 "},"2":{"ha":821,"x_min":114,"x_max":739,"o":"m 229 817 q 312 790 281 817 q 343 706 343 764 q 310 622 343 653 q 225 592 276 592 q 144 626 175 592 q 114 722 114 660 q 133 803 114 763 q 188 875 151 843 q 278 927 225 907 q 397 947 331 947 q 511 933 454 947 q 614 883 568 918 q 688 789 660 847 q 717 642 717 731 q 657 435 717 526 q 490 294 597 343 q 416 260 449 275 q 356 231 383 246 q 305 201 328 217 q 260 163 282 185 l 567 163 q 626 171 603 163 q 666 194 650 179 q 692 229 682 208 q 711 275 703 250 q 728 296 718 296 q 739 285 739 296 q 738 273 739 279 q 733 257 736 267 l 671 0 l 139 0 l 139 31 q 183 122 149 61 q 290 247 217 182 q 317 273 300 256 q 354 311 335 290 q 393 353 374 332 q 428 392 413 375 q 486 500 471 439 q 501 660 501 561 q 495 786 501 736 q 474 865 489 836 q 432 904 458 893 q 365 915 406 915 q 296 904 328 915 q 241 876 264 893 q 203 841 218 860 q 188 808 189 822 q 208 814 199 811 q 229 817 217 817 "},"3":{"ha":821,"x_min":114,"x_max":710,"o":"m 140 781 q 156 842 140 811 q 203 895 172 872 q 282 933 235 918 q 390 947 329 947 q 621 885 547 947 q 694 721 694 822 q 678 636 694 674 q 631 571 661 599 q 560 527 601 543 q 472 508 519 511 q 560 487 517 504 q 636 440 603 469 q 690 367 669 410 q 710 267 710 324 q 624 56 710 125 q 382 -12 539 -12 q 267 6 317 -12 q 183 51 217 24 q 131 115 149 79 q 114 183 114 150 q 149 271 114 242 q 228 300 185 300 q 306 270 274 300 q 338 188 338 240 q 307 111 338 135 q 239 88 276 88 q 227 88 232 88 q 215 92 222 89 l 213 92 q 210 85 210 92 q 222 64 210 76 q 256 40 233 51 q 309 21 278 29 q 378 13 340 13 q 431 24 408 13 q 469 63 454 35 q 492 140 485 90 q 500 265 500 189 q 466 438 500 379 q 351 497 432 497 l 232 497 q 211 511 211 497 q 216 519 211 515 q 232 524 221 524 l 351 524 q 453 569 421 524 q 485 721 485 614 q 479 818 485 779 q 462 880 474 857 q 432 913 450 903 q 390 922 414 922 q 330 917 357 922 q 283 903 303 911 q 252 888 263 896 q 242 876 242 881 q 247 874 242 874 l 254 874 q 269 875 260 875 q 338 846 311 875 q 365 778 365 817 q 334 699 365 729 q 251 668 303 668 q 172 698 204 668 q 140 781 140 728 "},"4":{"ha":821,"x_min":83,"x_max":733,"o":"m 604 935 l 604 342 l 733 342 l 733 258 l 604 258 l 604 21 l 679 21 l 679 -1 l 321 -1 l 321 21 l 396 21 l 396 258 l 83 258 l 83 289 q 172 451 124 367 q 271 619 221 535 q 371 785 321 704 q 465 935 421 865 l 604 935 m 396 342 l 396 771 q 330 663 364 719 q 263 550 296 607 q 199 440 229 493 q 144 342 168 386 l 396 342 "},"5":{"ha":821,"x_min":118,"x_max":711,"o":"m 521 935 q 572 939 554 935 q 596 961 589 943 q 610 975 603 975 q 622 943 622 975 q 585 795 622 843 q 454 747 547 747 l 183 747 q 185 718 185 732 q 185 693 185 706 q 182 616 185 651 q 175 549 179 581 q 263 587 208 572 q 379 601 317 601 q 501 586 442 601 q 608 536 561 571 q 683 445 654 501 q 711 306 711 389 q 679 171 711 229 q 594 74 647 113 q 473 15 542 35 q 332 -6 404 -6 q 247 6 286 -6 q 179 38 208 17 q 134 91 150 60 q 118 161 118 122 q 147 243 118 217 q 213 269 176 269 q 275 247 247 269 q 303 175 303 225 q 294 136 303 151 q 271 110 285 121 q 240 96 257 100 q 206 92 222 92 q 194 76 194 92 q 204 58 194 68 q 231 40 214 49 q 274 26 249 32 q 331 19 299 19 q 393 34 364 19 q 443 83 422 49 q 476 174 464 118 q 488 311 488 229 q 472 431 488 382 q 430 508 456 479 q 371 550 404 538 q 304 563 338 563 q 230 549 265 563 q 169 514 194 536 q 153 504 160 504 q 144 517 144 504 q 145 522 144 519 q 146 526 146 524 q 158 603 154 558 q 161 697 161 649 q 158 810 161 756 q 151 897 154 865 q 158 924 151 913 q 183 935 165 935 l 521 935 "},"6":{"ha":821,"x_min":58,"x_max":763,"o":"m 317 392 l 317 224 q 318 144 317 182 q 328 76 319 106 q 358 29 338 47 q 414 11 378 11 q 469 28 450 11 q 498 74 489 44 q 508 142 507 103 q 510 225 510 181 l 510 392 q 508 458 510 428 q 498 512 507 489 q 470 547 489 535 q 417 560 451 560 q 358 535 382 560 q 325 482 335 510 q 319 440 321 467 q 317 392 317 414 m 713 793 q 685 712 713 747 q 608 676 658 676 q 529 706 560 676 q 499 782 499 736 q 521 850 499 818 q 583 882 543 882 q 601 888 601 882 q 569 912 601 899 q 493 925 538 925 q 426 913 458 925 q 370 870 394 900 q 331 791 346 840 q 317 668 317 742 l 317 531 q 366 573 338 556 q 451 590 394 590 q 572 572 515 590 q 672 519 629 554 q 738 428 714 483 q 763 301 763 374 q 735 174 763 232 q 662 75 708 117 q 551 10 615 33 q 414 -14 488 -14 q 268 22 333 -14 q 156 117 203 57 q 84 259 110 178 q 58 433 58 340 q 101 653 58 557 q 207 815 143 749 q 346 915 271 881 q 488 950 421 950 q 652 905 592 950 q 713 793 713 860 "},"7":{"ha":821,"x_min":90,"x_max":758,"o":"m 90 650 l 151 935 l 742 935 l 758 913 l 643 668 q 572 488 600 578 q 526 312 543 397 q 501 147 508 226 q 494 0 494 68 l 251 0 q 398 378 294 182 q 650 761 501 575 l 196 761 q 162 756 175 761 q 140 739 149 751 q 124 705 131 726 q 108 650 117 683 l 90 650 "},"8":{"ha":821,"x_min":108,"x_max":706,"o":"m 451 508 q 444 507 446 508 q 442 506 442 506 q 451 503 442 504 q 551 476 504 496 q 631 424 597 456 q 685 349 665 392 q 706 251 706 306 q 688 151 706 199 q 634 67 671 103 q 541 8 597 31 q 407 -14 485 -14 q 273 8 329 -14 q 180 67 217 31 q 126 151 143 103 q 108 251 108 199 q 128 349 108 306 q 183 424 149 392 q 263 476 217 456 q 363 503 310 496 q 374 506 374 503 q 363 508 374 508 q 277 528 319 513 q 201 569 235 543 q 147 631 168 594 q 126 714 126 667 q 148 803 126 761 q 207 875 169 844 q 296 923 244 906 q 407 940 347 940 q 518 923 467 940 q 607 875 569 906 q 666 803 644 844 q 688 714 688 761 q 667 631 688 667 q 613 569 646 594 q 537 528 579 543 q 451 508 494 513 m 331 785 l 331 660 q 333 607 331 632 q 342 563 335 582 q 365 531 350 543 q 407 519 381 519 q 446 531 431 519 q 469 561 461 542 q 481 606 478 581 q 483 660 483 631 l 483 785 q 481 831 483 807 q 470 874 478 856 q 447 906 463 893 q 407 918 432 918 q 367 906 382 918 q 344 874 353 893 q 333 831 336 856 q 331 785 331 807 m 331 350 l 331 160 q 344 51 331 93 q 407 8 358 8 q 469 51 456 8 q 483 160 483 93 l 483 350 q 482 397 483 372 q 473 443 481 422 q 450 477 465 464 q 407 490 435 490 q 365 477 381 490 q 342 443 350 464 q 333 397 335 422 q 331 350 331 372 "},"9":{"ha":821,"x_min":57,"x_max":761,"o":"m 503 554 l 503 713 q 501 792 503 754 q 491 860 500 831 q 462 907 482 889 q 406 925 442 925 q 350 908 369 925 q 322 863 331 892 q 311 794 313 833 q 310 711 310 756 l 310 554 q 311 487 310 518 q 322 433 313 456 q 349 397 331 410 q 403 383 368 383 q 463 410 440 383 q 494 464 485 436 q 501 506 499 479 q 503 554 503 532 m 107 143 q 134 224 107 189 q 211 260 161 260 q 290 230 260 260 q 321 154 321 200 q 299 86 321 118 q 236 54 276 54 q 225 49 225 54 q 252 28 225 42 q 326 14 279 14 q 393 26 361 14 q 449 67 425 38 q 488 145 474 96 q 503 268 503 194 l 503 406 q 452 363 483 379 q 368 346 421 346 q 247 364 304 346 q 148 417 190 382 q 81 507 106 453 q 57 635 57 561 q 83 762 57 704 q 157 861 110 819 q 268 926 204 903 q 406 950 332 950 q 551 915 486 950 q 663 819 617 879 q 735 677 710 758 q 761 503 761 596 q 723 283 761 379 q 624 122 685 188 q 488 21 563 56 q 340 -14 413 -14 q 167 31 226 -14 q 107 143 107 76 "},"\u0007":{"ha":694,"x_min":0,"x_max":0,"o":""},"\u0005":{"ha":561,"x_min":117,"x_max":429,"o":"m 278 754 q 191 773 233 754 q 117 831 149 792 l 135 849 q 199 806 163 821 q 275 792 236 792 q 349 806 314 792 q 411 849 385 821 l 429 831 q 362 773 401 792 q 278 754 322 754 "},"\u0006":{"ha":544,"x_min":160,"x_max":382,"o":"m 382 800 q 349 722 382 754 q 271 689 317 689 q 192 722 225 689 q 160 800 160 754 q 192 878 160 846 q 271 911 225 911 q 349 878 317 911 q 382 800 382 846 "},"\b":{"ha":471,"x_min":119,"x_max":369,"o":"m 369 804 q 333 716 369 753 q 244 679 296 679 q 156 716 193 679 q 119 804 119 753 q 156 892 119 856 q 244 929 193 929 q 333 892 296 929 q 369 804 369 856 m 146 804 q 174 734 146 763 q 244 706 203 706 q 315 734 286 706 q 343 804 343 763 q 315 874 343 846 q 244 903 286 903 q 174 874 203 903 q 146 804 146 846 "},"\n":{"ha":515,"x_min":143,"x_max":433,"o":"m 154 910 l 278 969 l 169 668 l 143 668 l 154 910 m 310 910 l 433 969 l 324 668 l 299 668 l 310 910 "},"\u000b":{"ha":381,"x_min":115,"x_max":301,"o":"m 178 -117 q 189 -163 178 -144 q 236 -182 200 -182 q 258 -181 249 -182 q 274 -178 267 -179 q 290 -175 285 -175 q 301 -183 301 -175 q 274 -205 301 -194 q 215 -215 247 -215 q 144 -194 172 -215 q 115 -131 115 -172 q 132 -61 115 -93 q 169 0 149 -29 l 208 0 q 178 -117 178 -69 "},"\f":{"ha":618,"x_min":119,"x_max":494,"o":"m 274 624 l 119 824 l 129 828 l 307 718 l 486 828 l 494 824 l 339 624 l 274 624 "},"\r":{"ha":425,"x_min":38,"x_max":396,"o":"m 321 22 l 396 22 l 396 0 l 38 0 l 38 22 l 113 22 l 113 586 l 38 574 l 38 597 l 321 642 l 321 22 "},"\u0019":{"ha":799,"x_min":-7,"x_max":807,"o":"m 732 1000 l 807 1000 l 68 -97 l -7 -97 l 732 1000 "},"\u001a":{"ha":807,"x_min":40,"x_max":769,"o":"m 486 575 l 324 575 l 324 22 l 486 22 l 486 575 m 40 22 l 115 22 l 115 576 l 42 576 l 42 597 l 115 597 l 115 647 q 122 738 115 686 q 159 835 128 789 q 256 913 190 881 q 438 944 321 944 q 639 910 578 944 q 700 801 700 876 q 672 724 700 753 q 590 694 643 694 q 510 725 542 694 q 478 806 478 756 q 497 867 478 842 q 539 899 515 892 q 550 906 550 901 q 519 916 550 913 q 438 919 488 919 q 367 915 393 919 q 328 901 342 910 q 310 881 314 893 q 306 853 306 868 q 308 822 306 838 q 314 786 311 806 q 320 739 317 764 q 324 686 324 714 l 324 597 l 413 597 l 694 640 l 694 22 l 769 22 l 769 0 l 40 0 l 40 22 "},"\u001b":{"ha":789,"x_min":39,"x_max":769,"o":"m 694 935 l 694 22 l 769 22 l 769 0 l 39 0 l 39 22 l 115 22 l 115 575 l 42 575 l 42 597 l 115 597 l 115 646 q 123 747 115 694 q 155 844 131 800 q 224 915 179 888 q 343 943 269 943 q 402 938 378 943 q 443 924 426 932 q 470 907 460 917 q 488 889 481 897 l 488 900 l 694 935 m 322 575 l 322 22 l 488 22 l 488 815 q 467 794 483 803 q 431 786 450 786 q 383 804 399 786 q 367 847 367 822 q 376 881 367 867 q 401 901 386 896 q 408 907 408 903 q 394 918 408 913 q 357 924 381 924 q 316 908 326 924 q 306 865 306 893 q 308 831 306 850 q 314 792 311 813 q 319 741 317 768 q 322 686 322 714 l 322 597 l 428 597 l 428 575 l 322 575 "},"\u001c":{"ha":793,"x_min":57,"x_max":742,"o":"m 356 485 l 356 25 l 514 25 q 594 44 560 25 q 652 98 628 64 q 691 178 676 132 q 713 276 706 224 q 726 292 715 292 q 742 269 742 292 l 742 0 l 57 0 l 57 22 l 132 22 l 132 301 l 60 229 l 60 271 l 132 343 l 132 915 l 57 915 l 57 938 l 431 938 l 431 915 l 356 915 l 356 526 l 478 649 l 478 607 l 356 485 "},"\u001d":{"ha":425,"x_min":18,"x_max":411,"o":"m 321 494 l 321 22 l 396 22 l 396 0 l 38 0 l 38 22 l 113 22 l 113 350 l 18 256 l 18 297 l 113 392 l 113 910 l 38 897 l 38 921 l 321 969 l 321 536 l 411 626 l 411 585 l 321 494 "},"\u001e":{"ha":811,"x_min":61,"x_max":767,"o":"m 61 35 l 531 914 l 349 914 q 239 897 285 914 q 162 851 193 881 q 113 782 131 822 q 88 696 96 742 l 68 696 l 68 938 l 754 938 l 754 904 l 283 25 l 464 25 q 568 38 522 25 q 648 81 614 51 q 705 160 682 111 q 742 279 728 208 l 767 279 l 767 0 l 61 0 l 61 35 m 457 979 l 392 979 l 238 1179 l 246 1185 l 424 1075 l 603 1185 l 613 1179 l 457 979 "},"\u001f":{"ha":586,"x_min":21,"x_max":554,"o":"m 540 597 l 540 563 l 235 22 l 367 22 q 488 66 447 22 q 540 182 529 110 l 554 182 l 554 0 l 21 0 l 21 31 l 335 575 l 215 575 q 113 539 158 575 q 60 431 67 503 l 46 431 l 46 597 l 540 597 m 274 624 l 119 824 l 129 828 l 307 718 l 486 828 l 494 824 l 339 624 l 274 624 "}," ":{"ha":389,"x_min":0,"x_max":0,"o":""},"!":{"ha":365,"x_min":79,"x_max":301,"o":"m 168 292 q 155 428 161 363 q 139 547 149 494 q 126 616 133 579 q 110 690 118 653 q 98 761 103 726 q 93 825 93 796 q 115 922 93 888 q 190 957 136 957 q 266 922 244 957 q 288 825 288 888 q 283 761 288 796 q 270 690 278 726 q 255 616 263 653 q 242 547 247 579 q 226 428 232 494 q 213 292 219 363 l 168 292 m 301 94 q 269 16 301 49 q 190 -17 236 -17 q 112 16 144 -17 q 79 94 79 49 q 112 173 79 140 q 190 206 144 206 q 269 173 236 206 q 301 94 301 140 "},"\"":{"ha":531,"x_min":85,"x_max":460,"o":"m 160 1040 q 214 1020 193 1040 q 235 960 235 1000 q 226 916 235 939 q 207 861 218 893 q 190 791 197 832 q 182 690 182 750 q 175 670 182 676 q 160 664 168 664 q 144 670 151 664 q 138 690 138 676 q 130 791 138 750 q 113 861 122 832 q 93 915 101 893 q 85 960 85 938 q 106 1020 85 1000 q 160 1040 126 1040 m 385 1040 q 439 1020 418 1040 q 460 960 460 1000 q 451 916 460 939 q 432 861 443 893 q 415 791 422 832 q 407 690 407 750 q 400 670 407 676 q 385 664 393 664 q 369 670 376 664 q 363 690 363 676 q 355 791 363 750 q 338 861 347 832 q 318 915 326 893 q 310 960 310 938 q 331 1020 310 1000 q 385 1040 351 1040 "},"#":{"ha":867,"x_min":56,"x_max":807,"o":"m 385 654 l 542 654 l 589 838 l 700 838 l 653 654 l 807 654 l 797 618 l 644 618 l 601 451 l 756 451 l 746 415 l 592 415 l 543 224 l 432 224 l 481 415 l 324 415 l 276 231 l 164 231 l 211 415 l 56 415 l 65 451 l 221 451 l 264 618 l 108 618 l 117 654 l 272 654 l 319 838 l 432 838 l 385 654 m 333 451 l 490 451 l 533 618 l 375 618 l 333 451 "},"$":{"ha":789,"x_min":75,"x_max":715,"o":"m 365 917 q 244 872 286 913 q 203 778 203 831 q 243 682 203 726 q 365 629 283 638 l 365 917 m 365 944 l 365 1025 l 396 1025 l 396 944 q 599 901 522 944 q 675 786 675 858 q 650 724 675 744 q 593 704 625 704 q 537 723 561 704 q 513 781 513 742 q 530 831 513 808 q 576 854 547 854 q 592 856 589 854 q 596 863 596 857 q 584 876 596 867 q 547 894 572 885 q 485 910 522 903 q 396 917 447 917 l 396 624 q 544 583 483 614 q 642 507 604 553 q 698 406 681 461 q 715 290 715 350 q 690 173 715 226 q 622 80 665 119 q 521 17 579 40 q 396 -8 463 -6 l 396 -122 l 365 -122 l 365 -8 q 231 12 286 -6 q 141 55 175 29 q 91 110 107 81 q 75 168 75 140 q 96 230 75 204 q 156 256 117 256 q 217 233 192 256 q 242 168 242 211 q 224 115 242 139 q 171 92 207 92 q 164 88 164 92 q 176 71 164 82 q 213 49 188 60 q 276 30 238 39 q 365 19 314 21 l 365 385 q 156 478 226 404 q 86 674 86 551 q 103 766 86 719 q 153 851 119 813 q 240 915 188 889 q 365 944 293 940 m 396 19 q 526 74 483 25 q 569 192 569 122 q 559 253 569 222 q 526 310 549 285 q 472 355 504 336 q 396 381 439 374 l 396 19 "},"%":{"ha":1267,"x_min":43,"x_max":1232,"o":"m 43 682 q 60 780 43 732 q 110 865 76 828 q 195 926 144 903 q 315 949 246 949 q 435 926 383 949 q 520 865 486 903 q 571 780 554 828 q 588 682 588 732 q 571 582 588 631 q 521 495 554 533 q 438 434 488 457 q 321 411 388 411 q 198 434 250 411 q 111 495 146 457 q 60 582 76 533 q 43 682 43 631 m 240 701 l 240 657 q 242 552 240 596 q 251 481 243 508 q 274 442 258 454 q 321 429 290 429 q 361 442 347 429 q 381 481 375 454 q 389 552 388 508 q 390 657 390 596 l 390 701 q 389 806 390 763 q 381 878 388 850 q 358 918 374 906 q 315 931 343 931 q 272 918 288 931 q 250 878 257 906 q 242 806 243 850 q 240 701 240 763 m 361 -6 l 296 -6 l 914 949 l 979 949 l 361 -6 m 688 271 q 704 369 688 321 q 755 454 721 417 q 840 515 789 492 q 960 538 890 538 q 1079 515 1028 538 q 1165 454 1131 492 q 1215 369 1199 417 q 1232 271 1232 321 q 1215 171 1232 219 q 1165 84 1199 122 q 1082 23 1132 46 q 965 0 1032 0 q 842 23 894 0 q 756 84 790 46 q 704 171 721 122 q 688 271 688 219 m 885 290 l 885 246 q 886 141 885 185 q 895 70 888 97 q 919 31 903 43 q 965 18 935 18 q 1006 31 992 18 q 1026 70 1019 43 q 1033 141 1032 97 q 1035 246 1035 185 l 1035 290 q 1033 395 1035 351 q 1025 467 1032 439 q 1003 507 1018 494 q 960 519 988 519 q 917 507 932 519 q 894 467 901 494 q 886 395 888 439 q 885 290 885 351 "},"&":{"ha":1057,"x_min":38,"x_max":1029,"o":"m 542 879 q 531 890 542 883 q 501 905 521 897 q 455 917 482 913 q 394 922 428 922 q 344 910 368 922 q 301 874 319 899 q 271 810 282 849 q 260 721 260 772 q 272 638 260 675 q 306 576 285 601 q 352 537 326 550 q 404 524 378 524 l 447 524 q 463 519 458 524 q 467 511 467 515 q 447 497 467 497 l 404 497 q 349 479 376 497 q 297 430 321 461 q 259 356 274 399 q 244 265 244 314 q 253 169 244 215 q 280 87 261 122 q 328 30 299 51 q 400 8 357 8 q 567 39 499 8 q 676 118 635 69 q 736 226 718 167 q 754 344 754 286 q 690 348 732 346 q 604 350 647 350 q 479 340 519 350 q 439 281 439 329 q 494 294 467 294 q 545 276 525 294 q 565 221 565 257 q 545 167 565 186 q 492 147 525 147 q 428 176 450 147 q 406 257 406 206 q 410 313 406 283 q 426 372 415 343 q 454 426 436 401 q 500 469 472 451 q 543 490 519 482 q 599 501 567 497 q 672 507 631 506 q 768 508 714 508 q 940 535 886 508 q 993 633 993 561 q 979 683 993 663 q 945 644 965 656 q 903 632 925 632 q 853 649 875 632 q 832 700 832 667 q 852 757 832 736 q 913 778 872 778 q 961 761 939 778 q 998 717 983 744 q 1021 655 1013 690 q 1029 583 1029 619 q 1017 498 1029 540 q 977 422 1006 456 q 901 367 949 388 q 781 346 853 346 q 762 216 781 281 q 699 99 743 151 q 583 15 656 47 q 400 -17 510 -17 q 258 1 325 -17 q 143 52 192 18 q 66 138 94 86 q 38 260 38 190 q 60 363 38 318 q 122 438 83 407 q 209 485 160 468 q 311 508 258 503 q 220 527 261 513 q 150 567 179 542 q 104 631 121 593 q 88 721 88 669 q 106 810 88 768 q 161 882 124 851 q 256 930 199 913 q 393 947 314 947 q 506 933 458 947 q 583 897 553 919 q 628 844 614 874 q 643 783 643 814 q 616 701 643 738 q 532 665 589 665 q 447 698 474 665 q 421 775 421 731 q 451 846 421 818 q 529 874 481 874 q 542 879 542 874 "},"'":{"ha":299,"x_min":76,"x_max":226,"o":"m 151 1040 q 206 1020 185 1040 q 226 960 226 1000 q 218 916 226 939 q 199 861 210 893 q 181 791 189 832 q 174 690 174 750 q 167 670 174 676 q 151 664 160 664 q 136 670 143 664 q 129 690 129 676 q 122 791 129 750 q 104 861 114 832 q 85 915 93 893 q 76 960 76 938 q 97 1020 76 1000 q 151 1040 118 1040 "},"(":{"ha":642,"x_min":39,"x_max":607,"o":"m 336 629 l 336 190 q 351 51 336 108 q 392 -43 367 -7 q 451 -95 418 -79 q 517 -111 483 -111 q 582 -114 557 -111 q 607 -132 607 -117 q 581 -151 607 -149 q 503 -154 556 -154 q 301 -106 388 -154 q 156 22 214 -57 q 68 203 97 101 q 39 410 39 304 q 68 617 39 515 q 156 797 97 718 q 301 925 214 876 q 504 974 388 974 q 579 969 554 974 q 604 953 604 965 q 581 934 604 938 q 517 931 557 931 q 451 915 483 931 q 392 863 418 899 q 351 769 367 826 q 336 629 336 711 "},")":{"ha":642,"x_min":38,"x_max":606,"o":"m 308 629 q 293 769 308 711 q 252 863 278 826 q 194 915 226 899 q 128 931 161 931 q 64 934 88 931 q 40 953 40 938 q 65 969 40 965 q 140 974 90 974 q 344 925 257 974 q 489 797 431 876 q 576 617 547 718 q 606 410 606 515 q 576 203 606 304 q 489 22 547 101 q 344 -106 431 -57 q 142 -154 257 -154 q 63 -151 89 -154 q 38 -132 38 -149 q 63 -114 38 -117 q 128 -111 88 -111 q 194 -95 161 -111 q 252 -43 226 -79 q 293 51 278 -7 q 308 190 308 108 l 308 629 "},"*":{"ha":568,"x_min":51,"x_max":515,"o":"m 293 735 q 347 700 310 725 q 425 624 383 675 q 448 603 436 608 q 471 597 460 597 q 503 612 490 597 q 515 644 515 626 q 503 673 515 660 q 463 690 490 686 q 357 720 399 700 q 300 750 315 740 q 358 781 317 761 q 463 810 400 800 q 503 828 492 814 q 515 857 515 842 q 503 890 515 875 q 471 904 490 904 q 425 878 446 904 q 348 802 385 829 q 293 765 311 775 q 298 844 293 801 q 322 935 303 888 q 329 965 329 953 q 315 1000 329 989 q 285 1011 301 1011 q 254 1000 268 1011 q 240 965 240 989 q 247 935 240 953 q 272 844 267 888 q 276 765 276 801 q 222 801 261 774 q 143 875 183 828 q 96 901 121 901 q 64 888 76 901 q 51 856 51 874 q 64 827 51 840 q 104 810 76 814 q 212 780 169 800 q 269 750 254 760 q 212 721 254 740 q 104 690 169 701 q 65 673 76 686 q 53 644 53 660 q 65 613 53 626 q 97 599 78 599 q 143 625 122 599 q 222 701 183 676 q 276 735 261 726 q 272 656 276 699 q 247 565 267 613 q 240 535 240 547 q 254 500 240 511 q 285 489 268 489 q 315 500 301 489 q 329 535 329 511 q 322 565 329 547 q 298 656 303 613 q 293 735 293 699 "},"+":{"ha":478,"x_min":60,"x_max":415,"o":"m 215 440 l 215 596 l 260 596 l 260 440 l 415 440 l 415 396 l 260 396 l 260 240 l 215 240 l 215 396 l 60 396 l 60 440 l 215 440 "},",":{"ha":374,"x_min":58,"x_max":307,"o":"m 196 -17 q 117 14 150 -17 q 85 94 85 44 q 117 173 85 140 q 196 206 150 206 q 274 170 242 206 q 307 79 307 135 q 247 -118 307 -51 q 81 -204 186 -185 q 68 -206 75 -206 q 58 -196 58 -206 q 67 -187 58 -190 q 202 -117 163 -164 q 242 -7 242 -69 q 219 -14 231 -11 q 196 -17 208 -17 "},"-":{"ha":389,"x_min":74,"x_max":322,"o":"m 322 440 l 322 396 l 74 396 l 74 440 l 322 440 "},".":{"ha":374,"x_min":79,"x_max":301,"o":"m 301 94 q 269 16 301 49 q 190 -17 236 -17 q 112 16 144 -17 q 79 94 79 49 q 112 173 79 140 q 190 206 144 206 q 269 173 236 206 q 301 94 301 140 "},"/":{"ha":433,"x_min":-15,"x_max":432,"o":"m 365 1008 l 432 1008 l 51 -90 l -15 -90 l 365 1008 "},":":{"ha":381,"x_min":79,"x_max":301,"o":"m 301 94 q 269 16 301 49 q 190 -17 236 -17 q 112 16 144 -17 q 79 94 79 49 q 112 173 79 140 q 190 206 144 206 q 269 173 236 206 q 301 94 301 140 m 301 497 q 269 419 301 451 q 190 386 236 386 q 112 419 144 386 q 79 497 79 451 q 112 576 79 543 q 190 608 144 608 q 269 576 236 608 q 301 497 301 543 "},";":{"ha":374,"x_min":53,"x_max":301,"o":"m 190 -17 q 112 14 144 -17 q 79 94 79 44 q 112 173 79 140 q 190 206 144 206 q 269 170 236 206 q 301 79 301 135 q 241 -118 301 -51 q 75 -204 181 -185 q 63 -206 69 -206 q 53 -196 53 -206 q 61 -187 53 -190 q 197 -117 157 -164 q 236 -7 236 -69 q 214 -14 225 -11 q 190 -17 203 -17 m 301 497 q 269 419 301 451 q 190 386 236 386 q 112 419 144 386 q 79 497 79 451 q 112 576 79 543 q 190 608 144 608 q 269 576 236 608 q 301 497 301 543 "},"<":{"ha":522,"x_min":74,"x_max":439,"o":"m 439 258 l 439 189 l 74 433 l 439 678 l 439 608 l 178 433 l 439 258 "},"=":{"ha":449,"x_min":63,"x_max":401,"o":"m 401 363 l 401 318 l 63 318 l 63 363 l 401 363 m 401 519 l 401 475 l 63 475 l 63 519 l 401 519 "},">":{"ha":522,"x_min":97,"x_max":463,"o":"m 97 258 l 358 433 l 97 608 l 97 678 l 463 433 l 97 189 l 97 258 "},"?":{"ha":553,"x_min":72,"x_max":504,"o":"m 504 679 q 474 556 504 604 q 401 476 443 508 q 342 437 372 454 q 288 402 313 419 q 249 365 264 385 q 233 321 233 346 l 233 269 l 211 269 l 211 490 q 220 551 211 526 q 243 595 229 576 q 274 628 257 614 q 308 654 292 642 q 335 675 322 664 q 357 702 347 686 q 372 741 367 718 q 378 797 378 764 q 352 872 378 842 q 275 901 326 901 q 193 889 225 901 q 161 869 161 876 q 167 865 161 865 q 222 841 203 865 q 242 788 242 817 q 237 758 242 774 q 222 731 232 743 q 196 710 211 718 q 158 703 181 703 q 95 728 118 703 q 72 786 72 753 q 84 835 72 810 q 121 880 96 860 q 187 913 146 900 q 286 926 228 926 q 444 866 383 926 q 504 679 504 806 m 346 94 q 313 16 346 49 q 235 -17 281 -17 q 156 16 189 -17 q 124 94 124 49 q 156 173 124 140 q 235 206 189 206 q 313 173 281 206 q 346 94 346 140 "},"@":{"ha":1024,"x_min":67,"x_max":957,"o":"m 794 119 q 758 81 794 104 q 651 34 721 57 q 494 11 582 11 q 329 42 407 11 q 193 129 251 72 q 101 267 135 186 q 67 447 67 347 q 107 640 67 556 q 211 782 147 724 q 355 870 275 840 q 514 900 435 900 q 679 874 599 900 q 821 796 760 847 q 919 669 882 744 q 957 493 957 593 q 935 357 957 413 q 877 267 914 301 q 792 218 840 233 q 689 203 743 203 q 610 221 642 203 q 565 279 579 239 q 519 236 549 258 q 440 214 490 214 q 360 231 396 214 q 299 278 324 249 q 260 344 274 307 q 246 422 246 382 q 271 547 246 492 q 335 641 296 603 q 422 699 375 679 q 515 719 469 719 q 597 699 568 719 q 640 656 626 679 l 651 697 l 768 697 l 685 331 q 681 293 681 307 q 694 256 681 264 q 726 249 707 249 q 788 261 756 249 q 849 302 821 274 q 894 377 876 331 q 913 493 913 424 q 877 654 913 586 q 785 767 842 722 q 658 833 729 811 q 514 856 586 856 q 376 829 447 856 q 245 751 304 803 q 149 624 186 700 q 111 447 111 547 q 141 292 111 364 q 223 167 171 219 q 345 85 275 115 q 494 56 415 56 q 580 61 542 56 q 647 76 618 67 q 699 94 676 85 q 736 113 721 104 q 763 127 751 121 q 781 133 774 133 q 793 124 788 133 q 794 122 793 122 q 794 119 794 121 m 543 679 q 481 658 510 679 q 430 597 451 636 q 396 503 408 558 q 383 382 383 449 q 399 290 383 329 q 450 251 414 251 q 520 274 496 251 q 560 318 544 297 l 631 617 q 598 660 619 640 q 543 679 576 679 "},"A":{"ha":940,"x_min":47,"x_max":910,"o":"m 433 946 l 529 946 l 835 22 l 910 22 l 910 0 l 536 0 l 536 22 l 611 22 l 522 290 l 243 290 l 185 104 q 180 87 181 93 q 179 72 179 81 q 182 56 179 65 q 193 40 185 47 q 217 27 201 32 q 257 22 232 22 l 257 0 l 47 0 l 47 22 q 117 44 92 22 q 153 94 143 65 l 433 946 m 382 714 l 251 313 l 514 313 l 382 714 "},"B":{"ha":821,"x_min":44,"x_max":789,"o":"m 774 725 q 748 619 774 658 q 683 556 722 579 q 595 525 643 533 q 504 513 547 517 q 597 493 547 508 q 690 449 647 478 q 761 374 733 419 q 789 261 789 328 q 763 135 789 186 q 695 55 738 85 q 597 13 653 25 q 478 0 540 0 l 44 0 l 44 22 l 119 22 l 119 915 l 44 915 l 44 938 l 439 938 q 575 926 514 938 q 681 888 636 914 q 749 821 725 861 q 774 725 774 781 m 343 521 l 425 521 q 515 566 488 521 q 542 696 542 611 l 542 754 q 513 878 542 842 q 414 915 485 915 l 343 915 l 343 521 m 343 22 l 440 22 q 508 38 485 22 q 543 82 532 54 q 556 149 554 110 q 557 232 557 188 l 557 290 q 553 378 557 339 q 538 444 550 417 q 502 485 525 471 q 440 499 479 499 l 343 499 l 343 22 "},"C":{"ha":867,"x_min":31,"x_max":815,"o":"m 707 876 l 760 929 q 781 942 769 942 q 797 919 797 942 l 797 674 q 788 660 797 660 q 772 674 776 660 q 726 781 751 733 q 669 861 701 828 q 596 912 636 894 q 504 929 556 929 q 399 915 439 929 q 336 858 358 900 q 306 738 314 815 q 297 538 297 661 l 297 399 q 308 200 297 276 q 344 81 319 124 q 405 24 368 39 q 493 8 442 8 q 592 26 550 8 q 667 71 635 43 q 720 134 699 99 q 756 205 742 169 q 778 273 769 240 q 790 328 786 306 q 804 346 794 346 q 815 328 815 346 l 815 11 q 808 -4 815 -4 q 792 10 801 -4 l 736 89 q 707 58 726 76 q 658 24 688 40 q 587 -5 628 7 q 493 -17 546 -17 q 291 25 378 -17 q 147 135 204 67 q 60 290 89 203 q 31 468 31 376 q 60 647 31 560 q 147 803 89 735 q 291 913 204 871 q 494 954 378 954 q 624 931 574 954 q 707 876 675 908 "},"D":{"ha":867,"x_min":44,"x_max":835,"o":"m 449 938 q 618 897 546 938 q 738 791 690 857 q 810 641 786 725 q 835 469 835 557 q 810 297 835 382 q 738 147 786 213 q 618 40 690 81 q 449 0 546 0 l 44 0 l 44 22 l 119 22 l 119 915 l 44 915 l 44 938 l 449 938 m 343 22 l 418 22 q 485 38 454 22 q 540 100 517 54 q 578 226 564 146 q 592 436 592 307 l 592 503 q 578 708 592 628 q 540 835 564 789 q 484 898 517 881 q 414 915 451 915 l 343 915 l 343 22 "},"E":{"ha":788,"x_min":42,"x_max":739,"o":"m 556 315 q 542 340 543 315 q 506 446 535 411 q 425 481 478 481 l 340 481 l 340 22 l 472 22 q 580 42 539 22 q 646 94 621 61 q 683 173 671 128 q 707 269 696 218 q 725 292 711 292 q 739 269 739 292 l 739 42 q 731 11 739 22 q 701 0 724 0 l 42 0 l 42 22 l 117 22 l 117 915 l 42 915 l 42 938 l 644 938 q 676 929 665 938 q 689 899 688 921 l 700 697 q 686 679 700 679 q 672 697 672 679 q 655 775 669 736 q 612 845 640 814 q 542 896 583 876 q 447 915 501 915 l 340 915 l 340 503 l 425 503 q 506 538 478 503 q 542 643 535 574 q 556 668 543 668 q 569 643 569 668 l 569 340 q 556 315 569 315 "},"F":{"ha":779,"x_min":47,"x_max":706,"o":"m 696 899 l 706 697 q 692 679 706 679 q 678 697 678 679 q 660 775 675 736 q 617 845 646 814 q 548 896 589 876 q 453 915 507 915 l 346 915 l 346 503 l 431 503 q 512 538 483 503 q 547 643 540 574 q 561 668 549 668 q 575 643 575 668 l 575 340 q 561 315 575 315 q 547 340 549 315 q 512 446 540 411 q 431 481 483 481 l 346 481 l 346 22 l 421 22 l 421 0 l 47 0 l 47 22 l 122 22 l 122 915 l 47 915 l 47 938 l 651 938 q 683 929 672 938 q 696 899 694 921 "},"G":{"ha":1004,"x_min":31,"x_max":979,"o":"m 821 949 q 831 932 831 949 l 831 704 q 824 688 831 688 q 815 693 818 688 q 808 706 811 699 q 764 801 789 760 q 702 872 739 843 q 617 915 665 900 q 501 929 568 929 q 412 908 453 929 q 341 841 371 888 q 294 719 311 794 q 278 536 278 644 l 278 397 q 291 215 278 289 q 332 94 304 140 q 403 28 360 49 q 508 8 447 8 q 583 23 551 8 q 637 63 615 38 q 669 121 658 88 q 681 192 681 154 l 681 321 l 607 321 l 607 344 l 979 344 l 979 321 l 906 321 l 906 160 q 844 98 881 129 q 759 41 808 67 q 647 -1 710 15 q 508 -17 585 -17 q 299 25 389 -17 q 150 135 210 67 q 60 290 90 203 q 31 467 31 376 q 60 644 31 557 q 149 801 90 732 q 297 912 208 869 q 501 954 385 954 q 599 947 558 954 q 670 928 640 939 q 719 906 700 918 q 751 885 739 894 l 804 939 q 821 949 814 949 "},"H":{"ha":956,"x_min":53,"x_max":913,"o":"m 426 938 l 426 915 l 351 915 l 351 515 l 614 515 l 614 917 l 539 917 l 539 939 l 913 939 l 913 917 l 838 917 l 838 22 l 913 22 l 913 0 l 539 0 l 539 22 l 614 22 l 614 485 l 351 485 l 351 22 l 426 22 l 426 0 l 53 0 l 53 22 l 128 22 l 128 915 l 53 915 l 53 938 l 426 938 "},"I":{"ha":489,"x_min":58,"x_max":432,"o":"m 432 915 l 357 915 l 357 22 l 432 22 l 432 0 l 58 0 l 58 22 l 133 22 l 133 915 l 58 915 l 58 938 l 432 938 l 432 915 "},"J":{"ha":604,"x_min":11,"x_max":569,"o":"m 569 938 l 569 915 l 494 915 l 494 197 q 413 -54 494 28 q 181 -136 332 -136 q 104 -124 136 -136 q 51 -93 72 -112 q 21 -49 31 -74 q 11 0 11 -25 q 34 65 11 38 q 101 93 57 93 q 172 65 149 93 q 196 3 196 36 q 173 -58 196 -31 q 106 -85 150 -85 q 97 -90 97 -85 q 120 -103 97 -96 q 176 -111 143 -111 q 225 -98 207 -111 q 253 -62 243 -85 q 267 -8 264 -39 q 271 58 271 22 l 271 915 l 196 915 l 196 938 l 569 938 "},"K":{"ha":972,"x_min":51,"x_max":938,"o":"m 425 915 l 350 915 l 350 22 l 425 22 l 425 0 l 51 0 l 51 22 l 126 22 l 126 915 l 51 915 l 51 938 l 425 938 l 425 915 m 742 915 l 667 915 l 667 938 l 858 938 l 858 915 l 783 915 l 521 631 l 864 22 l 938 22 l 938 0 l 543 0 l 543 22 l 618 22 l 365 504 l 742 915 "},"L":{"ha":793,"x_min":57,"x_max":742,"o":"m 57 22 l 132 22 l 132 915 l 57 915 l 57 938 l 431 938 l 431 915 l 356 915 l 356 25 l 514 25 q 594 44 560 25 q 652 98 628 64 q 691 178 676 132 q 713 276 706 224 q 726 292 715 292 q 742 269 742 292 l 742 0 l 57 0 l 57 22 "},"M":{"ha":1151,"x_min":46,"x_max":1110,"o":"m 46 22 q 98 40 75 22 q 121 94 121 58 l 121 915 l 46 915 l 46 938 l 344 938 l 572 308 l 799 938 l 1110 938 l 1110 915 l 1035 915 l 1035 22 l 1110 22 l 1110 0 l 736 0 l 736 22 l 811 22 l 811 893 l 494 0 l 454 0 l 144 888 l 144 94 q 168 40 144 58 q 219 22 192 22 l 219 0 l 46 0 l 46 22 "},"N":{"ha":846,"x_min":44,"x_max":814,"o":"m 640 915 l 640 938 l 814 938 l 814 915 q 763 898 786 915 q 739 846 739 881 l 739 -11 l 692 -11 l 156 763 l 156 94 q 179 40 156 58 q 231 22 203 22 l 231 0 l 57 0 l 57 22 q 109 40 86 22 q 132 94 132 58 l 132 796 l 44 903 l 44 938 l 315 938 l 715 360 l 715 843 q 692 897 715 879 q 640 915 669 915 "},"O":{"ha":981,"x_min":49,"x_max":940,"o":"m 49 469 q 77 647 49 560 q 162 803 106 735 q 301 913 218 871 q 494 954 385 954 q 688 913 604 954 q 827 803 771 871 q 912 647 883 735 q 940 469 940 560 q 912 291 940 378 q 827 135 883 204 q 688 25 771 67 q 494 -17 604 -17 q 301 25 385 -17 q 162 135 218 67 q 77 291 106 204 q 49 469 49 378 m 494 929 q 401 907 436 929 q 347 838 365 885 q 322 717 328 790 q 315 539 315 643 l 315 400 q 322 209 315 285 q 347 89 328 133 q 401 26 365 44 q 494 8 436 8 q 588 26 553 8 q 642 89 624 44 q 667 209 661 133 q 674 400 674 285 l 674 539 q 667 717 674 643 q 642 838 661 790 q 588 907 624 885 q 494 929 553 929 "},"P":{"ha":807,"x_min":44,"x_max":771,"o":"m 479 938 q 592 922 539 938 q 684 876 644 907 q 747 796 724 844 q 771 679 771 747 q 747 564 771 611 q 684 488 724 517 q 592 445 644 458 q 479 432 539 432 l 343 432 l 343 22 l 418 22 l 418 0 l 44 0 l 44 22 l 119 22 l 119 915 l 44 915 l 44 938 l 479 938 m 393 454 q 515 513 482 454 q 549 679 549 571 q 540 779 549 735 q 513 853 532 824 q 461 899 493 883 q 381 915 429 915 l 343 915 l 343 454 l 393 454 "},"Q":{"ha":981,"x_min":47,"x_max":942,"o":"m 579 -149 q 592 -215 579 -189 q 628 -257 606 -242 q 681 -278 651 -272 q 742 -283 710 -283 q 769 -283 756 -283 q 797 -281 783 -282 l 797 -299 q 736 -306 767 -303 q 676 -308 706 -308 q 572 -299 621 -308 q 485 -269 522 -289 q 427 -217 449 -249 q 406 -139 406 -185 l 406 -8 q 248 55 315 8 q 136 166 181 101 q 69 309 92 231 q 47 469 47 388 q 75 647 47 560 q 159 803 103 735 q 299 913 215 871 q 494 954 382 954 q 690 913 607 954 q 830 803 774 871 q 914 647 886 735 q 942 469 942 560 q 919 308 942 388 q 851 163 896 229 q 738 51 806 97 q 579 -10 669 6 l 579 -149 m 494 929 q 401 907 436 929 q 347 838 365 885 q 322 717 328 790 q 315 539 315 643 l 315 400 q 322 209 315 285 q 347 89 328 133 q 401 26 365 44 q 494 8 436 8 q 588 26 553 8 q 642 89 624 44 q 667 209 661 133 q 674 400 674 285 l 674 539 q 667 717 674 643 q 642 838 661 790 q 588 907 624 885 q 494 929 553 929 "},"R":{"ha":932,"x_min":42,"x_max":919,"o":"m 763 154 q 772 80 763 110 q 814 50 781 50 q 851 66 831 50 q 896 121 872 82 q 913 139 906 139 q 919 131 919 139 q 918 122 919 126 q 914 113 917 118 q 828 11 882 42 q 715 -19 774 -19 q 642 -9 675 -19 q 585 26 608 1 q 548 90 561 50 q 535 189 535 131 l 535 282 q 526 377 535 340 q 502 434 518 414 q 463 462 486 454 q 411 469 440 469 l 340 469 l 340 22 l 415 22 l 415 0 l 42 0 l 42 22 l 117 22 l 117 915 l 42 915 l 42 938 l 472 938 q 696 878 615 938 q 776 697 776 819 q 755 599 776 639 q 701 535 733 560 q 628 497 668 510 q 550 476 588 483 q 710 406 658 464 q 763 269 763 347 l 763 154 m 392 492 q 448 498 418 492 q 502 526 478 504 q 542 588 526 547 q 558 699 558 629 q 542 815 558 772 q 502 881 526 858 q 448 909 478 903 q 392 915 418 915 l 340 915 l 340 492 l 392 492 "},"S":{"ha":774,"x_min":79,"x_max":721,"o":"m 631 947 q 644 960 638 960 q 651 946 651 960 l 651 713 q 651 698 651 704 q 643 692 650 692 q 631 711 635 692 q 585 821 613 778 q 525 888 557 864 q 459 920 493 911 q 393 929 425 929 q 325 917 354 929 q 276 883 296 904 q 247 835 257 863 q 238 781 238 808 q 256 695 238 729 q 318 646 275 661 q 396 624 351 635 q 471 608 440 614 q 658 506 594 585 q 721 300 721 428 q 701 183 721 240 q 640 82 681 126 q 539 10 600 38 q 396 -17 478 -17 q 305 -7 343 -17 q 238 17 267 3 q 190 47 210 31 q 156 76 169 63 l 113 11 q 90 -8 100 -8 q 81 -1 83 -8 q 79 14 79 6 l 79 286 q 81 304 79 300 q 88 308 83 308 q 100 289 94 308 q 136 189 114 239 q 193 99 158 139 q 277 33 228 58 q 396 8 326 8 q 485 26 447 8 q 548 71 524 44 q 584 128 572 97 q 596 188 596 160 q 573 282 596 246 q 485 336 550 318 q 449 346 472 340 q 397 358 425 351 q 339 371 368 364 q 285 385 310 378 q 131 482 178 415 q 83 647 83 549 q 103 758 83 703 q 163 857 124 814 q 259 927 201 900 q 393 954 317 954 q 517 933 468 954 q 594 893 565 913 l 631 947 "},"T":{"ha":836,"x_min":33,"x_max":813,"o":"m 535 22 l 610 22 l 610 0 l 236 0 l 236 22 l 311 22 l 311 915 l 254 915 q 133 847 183 915 q 61 663 82 779 l 33 663 l 54 908 q 63 929 56 921 q 88 938 69 938 l 753 938 q 783 929 775 938 q 792 908 790 921 l 813 663 l 785 663 q 713 847 764 779 q 592 915 663 915 l 535 915 l 535 22 "},"U":{"ha":868,"x_min":43,"x_max":840,"o":"m 667 915 l 667 938 l 840 938 l 840 915 q 789 898 813 915 q 765 844 765 881 l 765 282 q 688 58 765 132 q 461 -17 611 -17 q 322 1 385 -17 q 213 56 258 19 q 143 148 168 93 q 118 276 118 203 l 118 915 l 43 915 l 43 938 l 417 938 l 417 915 l 342 915 l 342 229 q 351 147 342 185 q 382 83 360 110 q 442 40 404 56 q 540 25 481 25 q 615 41 579 25 q 679 89 651 57 q 724 169 707 121 q 740 281 740 217 l 740 844 q 718 898 740 881 q 667 915 696 915 "},"V":{"ha":876,"x_min":33,"x_max":853,"o":"m 518 -14 l 406 -14 l 107 915 l 33 915 l 33 938 l 408 938 l 408 915 l 335 915 l 553 238 l 718 829 q 724 851 722 844 q 725 864 725 858 q 710 899 725 883 q 656 915 696 915 l 656 938 l 853 938 l 853 915 q 792 900 814 915 q 758 844 769 885 l 518 -14 "},"W":{"ha":1296,"x_min":33,"x_max":1274,"o":"m 1144 856 q 1128 896 1144 876 q 1076 915 1113 915 l 1076 938 l 1274 938 l 1274 915 q 1217 900 1243 915 q 1179 844 1190 885 l 957 -8 l 874 -8 l 683 599 l 511 -8 l 425 -8 l 108 915 l 33 915 l 33 938 l 403 938 l 403 915 l 333 915 l 553 268 l 660 643 l 568 915 l 501 915 l 501 938 l 857 938 l 857 915 l 782 915 l 994 269 l 1142 839 q 1144 849 1144 846 q 1144 856 1144 853 "},"X":{"ha":932,"x_min":47,"x_max":915,"o":"m 129 915 l 54 915 l 54 938 l 433 938 l 433 915 l 358 915 l 531 594 l 697 831 q 711 869 711 849 q 699 900 711 885 q 653 915 686 915 l 653 938 l 861 938 l 861 915 q 827 912 842 915 q 798 898 813 908 q 767 869 783 888 q 729 821 750 851 l 549 564 l 842 22 l 915 22 l 915 0 l 538 0 l 538 22 l 613 22 l 413 393 l 203 96 q 191 78 196 88 q 186 56 186 68 q 197 35 186 47 q 244 22 208 22 l 244 0 l 47 0 l 47 22 q 112 40 85 22 q 163 93 139 58 l 394 426 l 129 915 "},"Y":{"ha":932,"x_min":29,"x_max":915,"o":"m 681 938 l 915 938 l 915 915 q 865 908 885 915 q 831 890 844 901 q 807 863 817 878 q 789 831 797 847 l 600 447 l 600 22 l 675 22 l 675 0 l 301 0 l 301 22 l 376 22 l 376 411 l 103 917 l 29 917 l 29 939 l 407 939 l 407 917 l 332 917 l 571 464 l 751 831 q 763 872 763 853 q 745 903 763 892 q 681 915 728 915 l 681 938 "},"Z":{"ha":811,"x_min":61,"x_max":767,"o":"m 61 35 l 531 914 l 349 914 q 239 897 285 914 q 162 851 193 881 q 113 782 131 822 q 88 696 96 742 l 68 696 l 68 938 l 754 938 l 754 904 l 283 25 l 464 25 q 568 38 522 25 q 648 81 614 51 q 705 160 682 111 q 742 279 728 208 l 767 279 l 767 0 l 61 0 l 61 35 "},"[":{"ha":351,"x_min":64,"x_max":303,"o":"m 303 -97 l 64 -97 l 64 1019 l 303 1019 l 303 990 l 214 990 l 214 -68 l 303 -68 l 303 -97 "},"\\":{"ha":433,"x_min":3,"x_max":450,"o":"m 3 1008 l 69 1008 l 450 -90 l 383 -90 l 3 1008 "},"]":{"ha":351,"x_min":63,"x_max":301,"o":"m 151 990 l 63 990 l 63 1019 l 301 1019 l 301 -97 l 63 -97 l 63 -68 l 151 -68 l 151 990 "},"^":{"ha":485,"x_min":75,"x_max":414,"o":"m 104 511 q 85 483 94 483 q 75 500 75 483 q 78 519 75 506 q 103 608 88 557 q 136 710 119 660 q 167 801 153 761 q 186 857 181 842 q 210 892 196 882 q 244 901 225 901 q 278 892 264 901 q 303 857 293 882 q 322 801 308 842 q 353 710 336 761 q 385 608 369 660 q 411 519 401 557 q 414 500 414 506 q 404 483 414 483 q 385 511 394 483 q 352 589 372 543 q 310 676 332 635 q 271 748 289 718 q 244 778 253 778 q 218 748 236 778 q 178 676 200 718 q 137 589 157 635 q 104 511 117 543 "},"_":{"ha":404,"x_min":0,"x_max":417,"o":"m 0 -25 l 417 -25 l 417 -53 l 0 -53 l 0 -25 "},"`":{"ha":522,"x_min":104,"x_max":354,"o":"m 104 900 l 242 900 l 354 686 l 332 674 l 104 900 "},"a":{"ha":747,"x_min":26,"x_max":719,"o":"m 319 607 q 453 597 399 607 q 544 561 508 586 q 595 496 579 536 q 611 397 611 456 l 611 106 q 619 53 611 72 q 654 35 626 35 q 687 50 678 35 q 700 86 696 65 q 711 99 701 99 q 719 88 719 99 q 715 54 719 72 q 694 21 710 36 q 649 -6 678 6 q 569 -17 619 -17 q 461 5 499 -17 q 411 56 424 26 q 384 32 400 44 q 347 8 368 19 q 299 -10 326 -3 q 238 -17 272 -17 q 145 -2 185 -17 q 79 38 106 13 q 40 97 53 63 q 26 168 26 131 q 40 240 26 204 q 83 303 54 275 q 153 348 111 331 q 253 365 196 365 l 403 365 l 403 476 q 388 554 403 526 q 321 582 372 582 q 243 574 264 582 q 222 556 222 567 q 232 542 222 547 q 258 490 258 525 q 256 469 258 482 q 244 447 253 457 q 222 428 236 436 q 183 421 207 421 q 131 438 154 421 q 108 496 108 456 q 168 579 108 551 q 319 607 228 607 m 403 340 l 346 340 q 265 293 289 340 q 240 169 240 246 q 255 58 240 92 q 304 24 269 24 q 329 31 313 24 q 363 48 346 38 q 391 72 379 58 q 403 97 403 85 l 403 340 "},"b":{"ha":776,"x_min":39,"x_max":744,"o":"m 322 533 q 372 585 338 561 q 471 608 407 608 q 590 581 539 608 q 676 510 642 554 q 727 411 710 467 q 744 297 744 356 q 727 183 744 239 q 676 83 710 126 q 590 13 642 39 q 471 -14 539 -14 q 377 15 414 -14 q 322 75 340 43 l 322 0 l 39 0 l 39 22 l 114 22 l 114 910 l 39 896 l 39 918 l 322 971 l 322 533 m 322 126 q 343 95 331 113 q 370 63 356 78 q 402 37 385 47 q 439 26 419 26 q 469 33 456 26 q 491 59 482 39 q 505 116 500 79 q 510 214 510 153 l 510 381 q 493 535 510 493 q 439 576 476 576 q 402 569 419 576 q 370 549 385 561 q 343 522 356 536 q 322 493 331 507 l 322 126 "},"c":{"ha":619,"x_min":18,"x_max":613,"o":"m 351 583 q 294 571 317 583 q 256 531 271 558 q 235 459 242 503 q 229 351 229 415 l 229 240 q 235 132 229 175 q 257 63 242 89 q 297 25 272 36 q 357 14 321 14 q 433 27 396 14 q 500 63 469 40 q 553 115 531 86 q 586 178 575 144 q 600 192 590 192 q 613 176 613 192 q 611 168 613 171 q 512 35 583 86 q 333 -17 440 -17 q 195 10 254 -17 q 97 81 136 38 q 38 181 57 125 q 18 296 18 238 q 39 410 18 354 q 101 510 60 467 q 200 581 142 554 q 333 608 258 608 q 453 595 407 608 q 526 561 500 582 q 561 517 551 540 q 571 472 571 493 q 549 410 571 436 q 483 383 526 383 q 420 407 443 383 q 397 463 397 431 q 419 521 397 499 q 471 547 440 543 q 438 569 471 556 q 351 583 406 583 "},"d":{"ha":776,"x_min":39,"x_max":747,"o":"m 278 367 l 278 228 q 281 122 278 161 q 292 61 285 82 q 314 33 300 40 q 349 26 328 26 q 383 36 367 26 q 415 61 400 46 q 443 94 431 76 q 464 126 456 111 l 464 485 q 416 547 444 519 q 349 575 388 575 q 315 565 328 575 q 293 532 301 556 q 281 468 285 508 q 278 367 278 428 m 390 896 l 390 918 l 672 971 l 672 22 l 747 22 l 747 0 l 464 0 l 464 75 q 406 16 443 46 q 317 -14 369 -14 q 195 13 247 -14 q 108 83 143 39 q 56 183 74 126 q 39 297 39 239 q 56 411 39 356 q 108 510 74 467 q 195 581 143 554 q 317 607 247 607 q 411 586 375 607 q 464 533 447 565 l 464 910 l 390 896 "},"e":{"ha":667,"x_min":19,"x_max":651,"o":"m 651 343 l 244 343 l 244 151 q 251 83 244 110 q 269 40 257 56 q 297 19 281 25 q 335 14 314 14 q 427 27 386 14 q 500 63 468 40 q 555 113 532 85 q 593 172 578 142 q 604 190 600 185 q 617 196 608 196 q 626 182 626 196 q 622 164 626 174 q 583 95 608 128 q 520 38 557 63 q 437 -2 483 13 q 335 -17 390 -17 q 197 10 256 -17 q 98 81 138 38 q 39 181 58 125 q 19 296 19 238 q 39 410 19 354 q 98 510 58 467 q 197 581 138 554 q 335 608 256 608 q 482 581 424 608 q 576 513 540 553 q 628 426 611 472 q 651 343 646 381 m 244 472 l 244 369 l 419 369 l 419 472 q 333 583 419 583 q 244 472 244 583 "},"f":{"ha":508,"x_min":40,"x_max":501,"o":"m 40 22 l 115 22 l 115 575 l 40 575 l 40 597 l 115 597 l 115 647 q 129 758 115 704 q 174 852 143 811 q 254 918 204 893 q 376 943 304 943 q 468 917 435 943 q 501 858 501 890 q 484 806 501 828 q 433 785 467 785 q 386 802 406 785 q 367 844 367 819 q 406 899 367 889 q 411 906 411 900 q 396 915 411 913 q 369 918 381 918 q 328 906 349 918 q 307 856 307 894 q 310 824 307 840 q 315 788 313 807 q 321 740 318 765 q 324 686 324 714 l 324 597 l 399 597 l 399 575 l 324 575 l 324 22 l 399 22 l 399 0 l 40 0 l 40 22 "},"g":{"ha":668,"x_min":25,"x_max":653,"o":"m 251 343 q 262 272 251 294 q 311 250 272 250 q 360 272 350 250 q 371 343 371 293 l 371 478 q 360 559 371 535 q 311 583 350 583 q 262 559 272 583 q 251 478 251 535 l 251 343 m 249 232 q 199 222 222 226 q 160 210 176 217 q 134 194 143 204 q 125 171 125 185 q 128 157 125 163 q 140 147 131 151 q 167 142 149 143 q 215 140 185 140 l 303 140 q 468 123 408 140 q 556 70 528 106 q 591 -18 585 35 q 597 -143 597 -71 q 577 -231 597 -192 q 520 -299 557 -271 q 432 -344 483 -328 q 319 -360 381 -360 q 184 -348 240 -360 q 92 -317 128 -336 q 41 -270 57 -297 q 25 -212 25 -243 q 38 -149 25 -175 q 71 -107 51 -124 q 114 -80 90 -90 q 157 -64 138 -69 q 118 -53 140 -60 q 77 -31 96 -46 q 45 11 58 -15 q 32 81 32 38 q 49 157 32 128 q 90 204 65 186 q 145 231 115 222 q 201 243 175 239 q 156 266 181 253 q 109 299 131 279 q 72 348 88 319 q 57 417 57 376 q 71 489 57 454 q 115 550 85 524 q 193 592 144 576 q 311 608 242 608 q 418 597 382 608 q 476 574 454 586 q 526 619 503 601 q 582 638 550 638 q 611 633 596 638 q 642 612 631 628 q 653 576 653 596 q 641 546 653 560 q 604 532 629 532 q 561 544 576 532 q 546 574 546 557 q 558 604 546 589 q 524 581 539 594 q 501 556 508 567 q 537 511 517 543 q 557 417 557 479 q 537 337 557 372 q 482 276 517 301 q 403 238 447 251 q 310 225 358 225 q 280 227 297 225 q 249 232 263 229 m 550 -182 q 544 -148 550 -168 q 516 -109 539 -128 q 447 -76 493 -90 q 319 -62 400 -62 l 196 -62 q 131 -111 157 -74 q 106 -193 106 -149 q 117 -245 106 -219 q 153 -290 128 -271 q 219 -322 178 -310 q 319 -335 260 -335 q 414 -322 371 -335 q 487 -286 457 -308 q 533 -237 517 -264 q 550 -182 550 -210 "},"h":{"ha":829,"x_min":40,"x_max":794,"o":"m 324 515 q 353 547 336 531 q 394 577 369 564 q 453 599 419 590 q 531 608 486 608 q 669 572 618 608 q 719 461 719 536 l 719 22 l 794 22 l 794 0 l 436 0 l 436 22 l 511 22 l 511 499 q 498 549 511 532 q 451 565 485 565 q 411 553 433 565 q 369 523 389 542 q 337 482 350 504 q 324 438 324 460 l 324 22 l 399 22 l 399 0 l 40 0 l 40 22 l 115 22 l 115 910 l 40 896 l 40 918 l 324 971 l 324 515 "},"i":{"ha":425,"x_min":38,"x_max":396,"o":"m 321 22 l 396 22 l 396 0 l 38 0 l 38 22 l 113 22 l 113 586 l 38 574 l 38 597 l 321 642 l 321 22 m 324 804 q 292 726 324 758 q 214 694 260 694 q 136 726 168 694 q 104 804 104 758 q 136 882 104 850 q 214 914 168 914 q 292 882 260 914 q 324 804 324 850 "},"j":{"ha":374,"x_min":-82,"x_max":326,"o":"m 326 -49 q 308 -175 326 -118 q 253 -272 289 -232 q 167 -335 218 -312 q 53 -357 117 -357 q -43 -331 -4 -357 q -82 -257 -82 -304 q -58 -201 -82 -222 q -6 -179 -35 -179 q 48 -198 26 -179 q 69 -253 69 -217 q 63 -282 69 -269 q 45 -303 56 -294 q 23 -315 35 -311 q 1 -319 11 -319 q 39 -332 17 -332 q 66 -328 51 -332 q 92 -315 81 -324 q 110 -290 103 -306 q 118 -250 118 -274 l 118 586 l 43 575 l 43 597 l 326 642 l 326 -49 m 324 804 q 292 726 324 758 q 214 694 260 694 q 136 726 168 694 q 104 804 104 758 q 136 882 104 850 q 214 914 168 914 q 292 882 260 914 q 324 804 324 850 "},"k":{"ha":829,"x_min":39,"x_max":811,"o":"m 447 597 l 686 597 l 686 578 q 634 572 657 578 q 591 553 611 565 q 551 521 571 540 q 508 476 532 501 l 736 22 l 811 22 l 811 0 l 442 0 l 442 22 l 515 22 l 354 363 l 322 363 l 322 22 l 397 22 l 397 0 l 39 0 l 39 22 l 114 22 l 114 910 l 39 896 l 39 918 l 322 971 l 322 385 l 354 385 l 490 492 q 509 512 501 500 q 517 542 517 524 q 501 569 517 560 q 447 578 486 578 l 447 597 "},"l":{"ha":425,"x_min":38,"x_max":396,"o":"m 321 22 l 396 22 l 396 0 l 38 0 l 38 22 l 113 22 l 113 910 l 38 896 l 38 918 l 321 971 l 321 22 "},"m":{"ha":1176,"x_min":35,"x_max":1154,"o":"m 317 511 q 344 550 329 532 q 380 581 360 568 q 428 603 400 594 q 493 611 456 611 q 631 585 583 611 q 703 507 679 560 q 725 541 713 522 q 758 576 738 560 q 807 602 778 592 q 878 613 836 613 q 1039 558 983 613 q 1094 407 1094 504 l 1094 22 l 1154 22 l 1154 0 l 826 0 l 826 22 l 886 22 l 886 421 q 875 539 886 501 q 826 576 864 576 q 784 561 806 576 q 745 522 763 546 q 717 468 728 499 q 706 408 706 438 l 706 22 l 765 22 l 765 0 l 438 0 l 438 22 l 497 22 l 497 428 q 483 544 497 514 q 439 575 469 575 q 390 559 413 575 q 351 518 368 543 q 326 464 335 493 q 317 410 317 435 l 317 22 l 376 22 l 376 0 l 35 0 l 35 22 l 108 22 l 108 571 l 35 558 l 35 582 l 317 629 l 317 511 "},"n":{"ha":782,"x_min":21,"x_max":768,"o":"m 693 22 l 768 22 l 768 0 l 425 0 l 425 22 l 485 22 l 485 447 q 474 542 485 511 q 425 572 464 572 q 385 556 406 572 q 346 516 364 540 q 316 462 328 492 q 304 404 304 432 l 304 22 l 364 22 l 364 0 l 21 0 l 21 22 l 96 22 l 96 571 l 21 558 l 21 582 l 308 631 l 308 501 q 333 543 318 522 q 369 579 349 564 q 419 604 390 594 q 483 614 447 614 q 563 605 525 614 q 630 574 601 596 q 676 513 658 551 q 693 415 693 474 l 693 22 "},"o":{"ha":669,"x_min":22,"x_max":647,"o":"m 22 296 q 42 410 22 354 q 99 510 61 467 q 197 581 138 554 q 335 608 256 608 q 473 581 414 608 q 570 510 532 554 q 628 410 608 467 q 647 296 647 354 q 628 181 647 238 q 570 81 608 125 q 473 10 532 38 q 335 -17 414 -17 q 197 10 256 -17 q 99 81 138 38 q 42 181 61 125 q 22 296 22 238 m 238 347 l 238 239 q 240 139 238 182 q 253 67 243 96 q 282 23 263 38 q 335 8 301 8 q 388 23 368 8 q 417 67 407 38 q 429 139 426 96 q 432 239 432 182 l 432 347 q 429 447 432 403 q 417 522 426 492 q 388 567 407 551 q 335 583 368 583 q 282 567 301 583 q 253 522 263 551 q 240 447 243 492 q 238 347 238 403 "},"p":{"ha":776,"x_min":39,"x_max":744,"o":"m 39 -351 l 114 -351 l 114 571 l 39 558 l 39 582 l 322 629 l 322 518 q 376 581 342 554 q 471 608 411 608 q 590 581 539 608 q 676 510 642 554 q 727 410 710 467 q 744 296 744 354 q 727 181 744 238 q 676 81 710 125 q 590 10 642 38 q 471 -17 539 -17 q 376 4 408 -17 q 322 60 344 25 l 322 -351 l 397 -351 l 397 -374 l 39 -374 l 39 -351 m 510 240 l 510 351 q 505 466 510 424 q 491 531 500 508 q 469 560 482 553 q 439 567 456 567 q 397 553 418 567 q 360 519 376 540 q 333 474 343 499 q 322 428 322 450 l 322 139 q 332 102 322 122 q 358 63 342 82 q 394 32 374 44 q 439 19 415 19 q 471 29 457 19 q 493 63 485 39 q 506 131 501 88 q 510 240 510 174 "},"q":{"ha":776,"x_min":44,"x_max":747,"o":"m 389 -351 l 464 -351 l 464 60 q 442 32 453 46 q 415 8 431 18 q 375 -9 399 -3 q 317 -15 351 -15 q 197 11 249 -15 q 112 81 146 38 q 61 181 78 125 q 44 296 44 238 q 61 410 44 354 q 112 509 78 465 q 197 580 146 553 q 317 607 249 607 q 403 583 367 607 q 464 518 440 560 l 464 629 l 747 582 l 747 558 l 672 571 l 672 -351 l 747 -351 l 747 -374 l 389 -374 l 389 -351 m 464 429 q 454 467 464 443 q 429 513 444 490 q 392 551 414 535 q 349 567 371 567 q 317 560 331 567 q 295 531 304 553 q 282 466 286 508 q 278 351 278 424 l 278 240 q 282 131 278 174 q 294 62 286 88 q 316 26 303 36 q 349 17 329 17 q 394 31 374 17 q 431 65 415 44 q 455 108 446 85 q 464 150 464 131 l 464 429 "},"r":{"ha":628,"x_min":33,"x_max":603,"o":"m 317 510 q 378 581 338 553 q 474 608 418 608 q 568 581 533 608 q 603 500 603 554 q 572 430 603 453 q 506 407 542 407 q 433 432 460 407 q 407 497 407 457 q 424 550 407 531 q 456 579 440 569 q 399 563 424 579 q 355 522 374 546 q 326 471 336 497 q 317 424 317 444 l 317 22 l 392 22 l 392 0 l 33 0 l 33 22 l 108 22 l 108 571 l 33 558 l 33 582 l 317 629 l 317 510 "},"s":{"ha":538,"x_min":38,"x_max":507,"o":"m 440 603 q 444 608 443 606 q 453 611 446 611 q 460 599 460 611 l 460 468 q 450 444 460 444 q 436 465 440 444 q 413 515 429 493 q 375 551 397 536 q 328 575 353 567 q 279 583 303 583 q 185 555 215 583 q 156 493 156 526 q 188 431 156 453 q 294 408 219 408 q 398 392 357 408 q 463 349 439 376 q 497 285 488 321 q 507 208 507 249 q 492 126 507 167 q 449 54 478 86 q 375 3 419 22 q 269 -17 331 -17 q 163 3 208 -17 q 90 43 117 24 l 63 4 q 56 -6 60 -1 q 46 -10 51 -10 q 38 1 38 -10 l 38 181 q 49 200 38 200 q 65 175 58 200 q 144 47 93 85 q 269 8 194 8 q 368 38 339 8 q 397 101 397 67 q 393 133 397 117 q 374 164 389 150 q 331 187 360 178 q 256 196 303 196 q 163 212 203 196 q 94 256 122 228 q 52 321 67 283 q 38 400 38 358 q 52 476 38 439 q 96 543 67 514 q 171 590 125 572 q 279 608 217 608 q 360 596 326 608 q 411 568 393 583 l 440 603 "},"t":{"ha":531,"x_min":29,"x_max":517,"o":"m 313 831 l 313 597 l 417 597 l 417 575 l 313 575 l 313 222 q 331 72 313 118 q 403 26 350 26 q 459 50 435 26 q 490 115 483 74 q 496 128 492 124 q 504 132 500 132 q 517 117 517 132 l 517 113 q 467 18 506 53 q 343 -17 428 -17 q 251 -4 294 -17 q 174 38 207 8 q 123 118 142 68 q 104 244 104 168 l 104 575 l 29 575 l 29 597 l 104 597 q 163 625 133 607 q 219 671 193 643 q 265 738 244 699 q 293 831 285 778 l 313 831 "},"u":{"ha":799,"x_min":36,"x_max":781,"o":"m 111 571 l 36 558 l 36 582 l 319 629 l 319 142 q 333 57 319 81 q 381 33 346 33 q 426 51 404 33 q 463 96 447 69 q 489 152 479 122 q 499 206 499 182 l 499 571 l 425 558 l 425 582 l 707 629 l 707 22 l 781 22 l 781 0 l 496 0 l 496 93 q 434 17 475 50 q 319 -17 393 -17 q 111 210 111 -17 l 111 571 "},"v":{"ha":710,"x_min":28,"x_max":703,"o":"m 596 546 q 583 566 596 557 q 539 575 569 575 l 539 597 l 703 597 l 703 575 q 651 563 671 575 q 618 521 631 551 l 410 0 l 363 0 l 103 575 l 28 575 l 28 597 l 390 597 l 390 575 l 315 575 l 475 225 l 592 519 q 596 546 596 529 "},"w":{"ha":1024,"x_min":39,"x_max":999,"o":"m 908 551 q 899 567 908 560 q 861 575 889 575 l 861 597 l 999 597 l 999 575 q 951 563 965 575 q 931 532 938 551 l 750 0 l 718 0 l 549 376 l 399 0 l 368 0 l 96 575 l 39 575 l 39 597 l 351 597 l 351 575 l 306 575 l 468 239 l 533 400 l 454 575 l 406 575 l 406 597 l 696 597 l 696 575 l 647 575 l 804 232 l 906 532 q 908 540 907 536 q 908 551 908 544 "},"x":{"ha":669,"x_min":19,"x_max":657,"o":"m 72 575 l 19 575 l 19 597 l 335 597 l 335 575 l 282 575 l 396 382 l 507 517 q 517 543 517 528 q 506 565 517 556 q 464 575 496 575 l 464 597 l 626 597 l 626 575 q 577 561 594 575 q 533 517 560 547 l 406 365 l 604 22 l 657 22 l 657 0 l 340 0 l 340 22 l 393 22 l 274 229 l 133 68 q 125 57 128 61 q 122 46 122 53 q 134 28 122 35 q 175 22 146 22 l 175 0 l 22 0 l 22 22 q 65 31 46 22 q 104 67 83 40 l 261 249 l 72 575 "},"y":{"ha":740,"x_min":25,"x_max":721,"o":"m 442 8 q 426 -38 435 -11 q 409 -95 418 -65 q 390 -156 400 -125 q 371 -215 381 -187 q 340 -285 356 -257 q 306 -330 325 -312 q 258 -355 286 -347 q 190 -362 231 -362 q 117 -339 150 -362 q 83 -268 83 -315 q 109 -210 83 -233 q 174 -186 135 -186 q 235 -210 213 -186 q 257 -267 257 -235 q 248 -310 257 -296 q 225 -335 239 -325 q 303 -295 276 -335 q 353 -192 331 -256 q 381 -108 371 -140 q 397 -47 390 -76 l 99 575 l 25 575 l 25 597 l 383 597 l 383 575 l 308 575 l 488 197 l 611 521 q 615 543 615 529 q 603 565 615 554 q 557 575 590 575 l 557 597 l 721 597 l 721 575 q 671 563 693 575 q 638 521 649 551 l 442 8 "},"z":{"ha":586,"x_min":21,"x_max":554,"o":"m 540 597 l 540 563 l 235 22 l 367 22 q 488 66 447 22 q 540 182 529 110 l 554 182 l 554 0 l 21 0 l 21 31 l 335 575 l 215 575 q 113 539 158 575 q 60 431 67 503 l 46 431 l 46 597 l 540 597 "},"{":{"ha":463,"x_min":47,"x_max":449,"o":"m 378 -97 l 418 -97 q 443 -99 438 -97 q 449 -108 449 -101 q 443 -117 449 -115 q 418 -119 438 -119 l 369 -119 q 294 -107 336 -119 q 217 -66 253 -94 q 156 9 181 -37 q 131 125 131 56 l 131 361 q 124 397 131 383 q 106 419 118 411 q 79 432 94 428 q 47 440 64 436 q 79 449 64 444 q 106 461 94 453 q 124 483 118 469 q 131 519 131 496 l 131 769 q 156 885 131 839 q 217 960 181 932 q 294 1001 253 989 q 369 1014 336 1014 l 418 1014 q 443 1012 438 1014 q 449 1003 449 1010 q 443 994 449 996 q 418 992 438 992 l 378 992 q 348 983 363 992 q 323 954 333 975 q 306 899 313 933 q 300 815 300 865 l 300 572 q 286 513 300 535 q 251 476 272 490 q 204 455 229 463 q 157 440 179 447 q 204 426 179 433 q 251 404 229 418 q 286 368 272 390 q 300 308 300 346 l 300 79 q 306 -5 300 29 q 323 -60 313 -39 q 348 -89 333 -81 q 378 -97 363 -97 "},"|":{"ha":269,"x_min":101,"x_max":176,"o":"m 101 971 l 176 971 l 176 -21 l 101 -21 l 101 971 "},"}":{"ha":463,"x_min":46,"x_max":447,"o":"m 117 -97 q 147 -89 132 -97 q 172 -60 161 -81 q 188 -5 182 -39 q 194 79 194 29 l 194 308 q 208 368 194 346 q 244 404 222 390 q 290 426 265 418 q 338 440 315 433 q 290 455 315 447 q 244 476 265 463 q 208 513 222 490 q 194 572 194 535 l 194 815 q 188 899 194 865 q 172 954 182 933 q 147 983 161 975 q 117 992 132 992 l 76 992 q 51 994 57 992 q 46 1003 46 996 q 51 1012 46 1010 q 76 1014 57 1014 l 125 1014 q 200 1001 158 1014 q 278 960 242 989 q 339 885 314 932 q 364 769 364 839 l 364 519 q 370 483 364 496 q 388 461 376 469 q 415 449 400 453 q 447 440 431 444 q 415 432 431 436 q 388 419 400 428 q 370 397 376 411 q 364 361 364 383 l 364 125 q 339 9 364 56 q 278 -66 314 -37 q 200 -107 242 -94 q 125 -119 158 -119 l 76 -119 q 51 -117 57 -119 q 46 -108 46 -115 q 51 -99 46 -101 q 76 -97 57 -97 l 117 -97 "},"~":{"ha":631,"x_min":43,"x_max":590,"o":"m 375 563 q 432 541 403 551 q 489 531 461 531 q 540 544 529 531 q 551 574 550 557 q 574 596 554 596 q 590 572 590 596 q 583 541 590 560 q 558 505 576 522 q 507 475 540 488 q 422 463 474 463 q 344 469 381 463 q 261 494 307 476 q 205 519 229 507 q 153 532 181 532 q 103 517 124 532 q 81 476 83 501 q 61 456 76 456 q 43 482 43 456 q 53 517 43 497 q 83 555 63 538 q 136 585 104 572 q 214 597 168 597 q 294 588 254 597 q 375 563 335 578 "},"":{"ha":374,"x_min":57,"x_max":306,"o":"m 194 92 q 116 122 149 92 q 83 203 83 153 q 116 281 83 249 q 194 314 149 314 q 273 277 240 314 q 306 178 306 240 q 245 -11 306 54 q 79 -96 185 -76 q 67 -97 74 -97 q 57 -87 57 -97 q 65 -79 57 -82 q 201 -8 161 -56 q 240 101 240 39 q 218 94 229 97 q 194 92 207 92 "},"":{"ha":872,"x_min":78,"x_max":794,"o":"m 794 717 l 794 0 l 78 0 l 78 717 l 794 717 "},"":{"ha":650,"x_min":57,"x_max":596,"o":"m 194 92 q 116 122 149 92 q 83 203 83 153 q 116 281 83 249 q 194 314 149 314 q 273 277 240 314 q 306 178 306 240 q 245 -11 306 54 q 79 -96 185 -76 q 67 -97 74 -97 q 57 -87 57 -97 q 65 -79 57 -82 q 201 -8 161 -56 q 240 101 240 39 q 218 94 229 97 q 194 92 207 92 m 485 92 q 406 122 439 92 q 374 203 374 153 q 406 281 374 249 q 485 314 439 314 q 563 277 531 314 q 596 178 596 240 q 535 -11 596 54 q 369 -96 475 -76 q 357 -97 364 -97 q 347 -87 347 -97 q 356 -79 347 -82 q 491 -8 451 -56 q 531 101 531 39 q 508 94 519 97 q 485 92 497 92 "},"":{"ha":1018,"x_min":79,"x_max":979,"o":"m 301 94 q 269 16 301 49 q 190 -17 236 -17 q 112 16 144 -17 q 79 94 79 49 q 112 173 79 140 q 190 206 144 206 q 269 173 236 206 q 301 94 301 140 m 640 94 q 608 16 640 49 q 529 -17 575 -17 q 451 16 483 -17 q 418 94 418 49 q 451 173 418 140 q 529 206 483 206 q 608 173 575 206 q 640 94 640 140 m 979 94 q 947 16 979 49 q 868 -17 914 -17 q 790 16 822 -17 q 757 94 757 49 q 790 173 757 140 q 868 206 822 206 q 947 173 914 206 q 979 94 979 140 "},"":{"ha":365,"x_min":78,"x_max":293,"o":"m 203 656 l 293 656 l 293 619 l 203 619 l 203 96 l 167 96 l 167 619 l 78 619 l 78 656 l 167 656 l 167 756 q 163 780 167 768 q 154 803 158 792 q 146 825 150 814 q 142 850 142 836 q 144 872 142 861 q 151 897 147 883 q 160 928 157 914 q 168 964 164 942 q 185 997 174 997 q 201 964 194 997 q 209 928 206 942 q 218 897 213 914 q 225 872 222 883 q 228 850 228 861 q 224 825 228 836 q 215 803 219 814 q 207 780 211 792 q 203 756 203 768 l 203 656 "},"":{"ha":365,"x_min":76,"x_max":292,"o":"m 201 292 l 292 292 l 292 256 l 201 256 l 201 156 q 206 131 201 143 q 214 108 210 119 q 222 86 218 97 q 226 61 226 75 q 224 39 226 50 q 217 14 221 28 q 208 -17 211 -3 q 200 -53 204 -31 q 183 -86 193 -86 q 167 -53 172 -86 q 159 -17 163 -31 q 150 14 156 -3 q 143 39 146 28 q 140 61 140 50 q 144 86 140 75 q 153 108 149 97 q 161 131 157 119 q 165 156 165 143 l 165 256 l 76 256 l 76 292 l 165 292 l 165 619 l 76 619 l 76 656 l 165 656 l 165 756 q 161 780 165 768 q 153 803 157 792 q 144 825 149 814 q 140 850 140 836 q 143 872 140 861 q 150 897 146 883 q 159 928 156 914 q 167 964 163 942 q 183 997 172 997 q 200 964 193 997 q 208 928 204 942 q 217 897 211 914 q 224 872 221 883 q 226 850 226 861 q 222 825 226 836 q 214 803 218 814 q 206 780 210 792 q 201 756 201 768 l 201 656 l 292 656 l 292 619 l 201 619 l 201 292 "},"":{"ha":531,"x_min":85,"x_max":460,"o":"m 460 699 l 451 694 l 272 804 l 94 694 l 85 699 l 239 899 l 304 899 l 460 699 "},"":{"ha":1792,"x_min":43,"x_max":1767,"o":"m 250 -6 l 183 -6 l 981 949 l 1047 949 l 250 -6 m 43 682 q 60 780 43 732 q 110 865 76 828 q 196 926 144 903 q 315 949 247 949 q 435 926 383 949 q 521 865 486 903 q 572 778 556 826 q 589 678 589 729 q 572 580 589 628 q 522 494 556 532 q 438 434 489 457 q 321 411 388 411 q 199 434 251 411 q 113 495 147 457 q 60 582 78 533 q 43 682 43 631 m 240 701 l 240 657 q 242 552 240 596 q 251 481 243 508 q 274 442 258 454 q 321 429 290 429 q 361 442 347 429 q 381 481 375 454 q 389 552 388 508 q 390 657 390 596 l 390 701 q 389 806 390 763 q 381 878 388 850 q 358 918 374 906 q 315 931 343 931 q 272 918 288 931 q 250 878 257 906 q 242 806 243 850 q 240 701 240 763 m 636 271 q 653 369 636 321 q 703 454 669 417 q 789 515 738 492 q 908 538 840 538 q 1028 515 976 538 q 1114 453 1079 492 q 1165 367 1149 415 q 1182 267 1182 318 q 1165 169 1182 217 q 1115 83 1149 121 q 1031 23 1082 46 q 914 0 981 0 q 792 23 844 0 q 706 84 740 46 q 653 171 671 122 q 636 271 636 219 m 833 290 l 833 246 q 835 141 833 185 q 844 70 836 97 q 867 31 851 43 q 914 18 883 18 q 954 31 940 18 q 974 70 968 43 q 982 141 981 97 q 983 246 983 185 l 983 290 q 982 395 983 351 q 974 467 981 439 q 951 507 967 494 q 908 519 936 519 q 865 507 881 519 q 843 467 850 494 q 835 395 836 439 q 833 290 833 351 m 1221 271 q 1238 369 1221 321 q 1288 454 1254 417 q 1374 515 1322 492 q 1493 538 1425 538 q 1613 515 1561 538 q 1699 453 1664 492 q 1750 367 1733 415 q 1767 267 1767 318 q 1750 169 1767 217 q 1700 83 1733 121 q 1616 23 1667 46 q 1499 0 1565 0 q 1377 23 1429 0 q 1290 84 1325 46 q 1238 171 1256 122 q 1221 271 1221 219 m 1418 290 l 1418 246 q 1419 141 1418 185 q 1428 70 1421 97 q 1452 31 1436 43 q 1499 18 1468 18 q 1539 31 1525 18 q 1559 70 1553 43 q 1567 141 1565 97 q 1568 246 1568 185 l 1568 290 q 1567 395 1568 351 q 1558 467 1565 439 q 1536 507 1551 494 q 1493 519 1521 519 q 1450 507 1465 519 q 1428 467 1435 494 q 1419 395 1421 439 q 1418 290 1418 351 "},"":{"ha":774,"x_min":79,"x_max":721,"o":"m 631 947 q 644 960 638 960 q 651 946 651 960 l 651 713 q 651 698 651 704 q 643 692 650 692 q 631 711 635 692 q 585 821 613 778 q 525 888 557 864 q 459 920 493 911 q 393 929 425 929 q 325 917 354 929 q 276 883 296 904 q 247 835 257 863 q 238 781 238 808 q 256 695 238 729 q 318 646 275 661 q 396 624 351 635 q 471 608 440 614 q 658 506 594 585 q 721 300 721 428 q 701 183 721 240 q 640 82 681 126 q 539 10 600 38 q 396 -17 478 -17 q 305 -7 343 -17 q 238 17 267 3 q 190 47 210 31 q 156 76 169 63 l 113 11 q 90 -8 100 -8 q 81 -1 83 -8 q 79 14 79 6 l 79 286 q 81 304 79 300 q 88 308 83 308 q 100 289 94 308 q 136 189 114 239 q 193 99 158 139 q 277 33 228 58 q 396 8 326 8 q 485 26 447 8 q 548 71 524 44 q 584 128 572 97 q 596 188 596 160 q 573 282 596 246 q 485 336 550 318 q 449 346 472 340 q 397 358 425 351 q 339 371 368 364 q 285 385 310 378 q 131 482 178 415 q 83 647 83 549 q 103 758 83 703 q 163 857 124 814 q 259 927 201 900 q 393 954 317 954 q 517 933 468 954 q 594 893 565 913 l 631 947 m 429 979 l 364 979 l 210 1179 l 218 1185 l 396 1075 l 575 1185 l 585 1179 l 429 979 "},"":{"ha":351,"x_min":42,"x_max":300,"o":"m 276 590 l 300 590 l 132 374 l 300 157 l 276 157 l 42 374 l 276 590 "},"":{"ha":1367,"x_min":49,"x_max":1319,"o":"m 494 929 q 401 907 436 929 q 347 838 365 885 q 322 717 328 790 q 315 539 315 643 l 315 400 q 322 209 315 285 q 347 89 328 133 q 401 26 365 44 q 494 8 436 8 q 588 26 553 8 q 642 89 624 44 q 667 209 661 133 q 674 400 674 285 l 674 539 q 667 717 674 643 q 642 838 661 790 q 588 907 624 885 q 494 929 553 929 m 697 908 l 697 938 l 1225 938 q 1257 929 1246 938 q 1269 899 1268 921 l 1281 697 q 1267 679 1281 679 q 1253 697 1253 679 q 1235 775 1250 736 q 1192 845 1221 814 q 1123 896 1164 876 q 1028 915 1082 915 l 921 915 l 921 503 l 1006 503 q 1087 538 1058 503 q 1122 643 1115 574 q 1136 668 1124 668 q 1150 643 1150 668 l 1150 340 q 1136 315 1150 315 q 1122 340 1124 315 q 1087 446 1115 411 q 1006 481 1058 481 l 921 481 l 921 22 l 1053 22 q 1160 42 1119 22 q 1226 94 1201 61 q 1264 173 1251 128 q 1288 269 1276 218 q 1306 292 1292 292 q 1319 269 1319 292 l 1319 42 q 1312 11 1319 22 q 1282 0 1304 0 l 697 0 l 697 31 q 603 -5 653 7 q 494 -17 553 -17 q 301 25 385 -17 q 162 135 218 67 q 77 291 106 204 q 49 469 49 378 q 77 647 49 560 q 162 803 106 735 q 301 913 218 871 q 494 954 385 954 q 603 942 553 954 q 697 908 653 931 "},"":{"ha":351,"x_min":60,"x_max":308,"o":"m 171 831 q 249 800 217 831 q 282 719 282 769 q 249 641 282 674 q 171 608 217 608 q 92 645 125 608 q 60 744 60 682 q 120 933 60 868 q 286 1018 181 999 q 299 1019 292 1019 q 308 1010 308 1019 q 300 1001 308 1003 q 165 931 204 978 q 125 821 125 883 q 171 831 149 831 "},"":{"ha":374,"x_min":57,"x_max":306,"o":"m 194 783 q 116 814 149 783 q 83 894 83 844 q 116 973 83 940 q 194 1006 149 1006 q 273 969 240 1006 q 306 869 306 932 q 245 681 306 746 q 79 596 185 615 q 67 594 74 594 q 57 604 57 594 q 65 613 57 610 q 201 683 161 636 q 240 793 240 731 q 218 786 229 789 q 194 783 207 783 "},"":{"ha":650,"x_min":60,"x_max":599,"o":"m 461 831 q 540 800 507 831 q 572 719 572 769 q 540 641 572 674 q 461 608 507 608 q 383 645 415 608 q 350 744 350 682 q 410 933 350 868 q 576 1018 471 999 q 589 1019 582 1019 q 599 1010 599 1019 q 590 1001 599 1003 q 455 931 494 978 q 415 821 415 883 q 461 831 439 831 m 171 831 q 249 800 217 831 q 282 719 282 769 q 249 641 282 674 q 171 608 217 608 q 92 645 125 608 q 60 744 60 682 q 120 933 60 868 q 286 1018 181 999 q 299 1019 292 1019 q 308 1010 308 1019 q 300 1001 308 1003 q 165 931 204 978 q 125 821 125 883 q 171 831 149 831 "},"":{"ha":650,"x_min":57,"x_max":596,"o":"m 194 783 q 116 814 149 783 q 83 894 83 844 q 116 973 83 940 q 194 1006 149 1006 q 273 969 240 1006 q 306 869 306 932 q 245 681 306 746 q 79 596 185 615 q 67 594 74 594 q 57 604 57 594 q 65 613 57 610 q 201 683 161 636 q 240 793 240 731 q 218 786 229 789 q 194 783 207 783 m 485 783 q 406 814 439 783 q 374 894 374 844 q 406 973 374 940 q 485 1006 439 1006 q 563 969 531 1006 q 596 869 596 932 q 535 681 596 746 q 369 596 475 615 q 357 594 364 594 q 347 604 347 594 q 356 613 347 610 q 491 683 451 636 q 531 793 531 731 q 508 786 519 789 q 485 783 497 783 "},"":{"ha":635,"x_min":86,"x_max":544,"o":"m 544 326 q 526 238 544 279 q 477 165 508 196 q 404 115 446 133 q 315 97 363 97 q 226 115 268 97 q 153 165 185 133 q 104 238 122 196 q 86 326 86 279 q 104 415 86 374 q 153 488 122 457 q 226 538 185 519 q 315 556 268 556 q 404 538 363 556 q 477 488 446 519 q 526 415 508 457 q 544 326 544 374 "},"":{"ha":508,"x_min":78,"x_max":439,"o":"m 439 443 l 439 383 l 78 383 l 78 443 l 439 443 "},"":{"ha":964,"x_min":78,"x_max":894,"o":"m 894 443 l 894 383 l 78 383 l 78 443 l 894 443 "},"":{"ha":597,"x_min":97,"x_max":544,"o":"m 368 826 q 415 808 392 817 q 463 799 439 799 q 503 810 494 799 q 514 838 513 822 q 531 857 517 857 q 544 836 544 857 q 539 807 544 824 q 518 775 533 790 q 476 749 503 760 q 407 738 450 738 q 344 744 374 738 q 276 765 314 750 q 228 788 249 776 q 188 800 208 800 q 146 786 163 800 q 126 750 129 772 q 113 731 126 731 q 97 754 97 731 q 106 786 97 768 q 131 820 114 804 q 174 847 147 836 q 238 858 200 858 q 303 849 269 858 q 368 826 336 840 "},"":{"ha":688,"x_min":54,"x_max":624,"o":"m 192 682 l 231 682 l 231 671 l 111 671 l 111 682 l 147 682 l 147 921 l 111 921 q 65 878 71 921 l 54 878 l 60 933 l 281 933 l 285 878 l 274 878 q 228 921 268 921 l 192 921 l 192 682 m 326 682 l 365 682 l 365 921 l 326 921 l 326 933 l 401 933 l 476 735 l 542 933 l 624 933 l 624 921 l 588 921 l 588 682 l 624 682 l 624 671 l 507 671 l 507 682 l 544 682 l 544 904 l 469 671 l 461 671 l 379 889 l 379 682 l 418 682 l 418 671 l 326 671 l 326 682 "},"":{"ha":538,"x_min":38,"x_max":507,"o":"m 440 603 q 444 608 443 606 q 453 611 446 611 q 460 599 460 611 l 460 468 q 450 444 460 444 q 436 465 440 444 q 413 515 429 493 q 375 551 397 536 q 328 575 353 567 q 279 583 303 583 q 185 555 215 583 q 156 493 156 526 q 188 431 156 453 q 294 408 219 408 q 398 392 357 408 q 463 349 439 376 q 497 285 488 321 q 507 208 507 249 q 492 126 507 167 q 449 54 478 86 q 375 3 419 22 q 269 -17 331 -17 q 163 3 208 -17 q 90 43 117 24 l 63 4 q 56 -6 60 -1 q 46 -10 51 -10 q 38 1 38 -10 l 38 181 q 49 200 38 200 q 65 175 58 200 q 144 47 93 85 q 269 8 194 8 q 368 38 339 8 q 397 101 397 67 q 393 133 397 117 q 374 164 389 150 q 331 187 360 178 q 256 196 303 196 q 163 212 203 196 q 94 256 122 228 q 52 321 67 283 q 38 400 38 358 q 52 476 38 439 q 96 543 67 514 q 171 590 125 572 q 279 608 217 608 q 360 596 326 608 q 411 568 393 583 l 440 603 m 239 624 l 85 824 l 94 828 l 272 718 l 451 828 l 460 824 l 304 624 l 239 624 "},"":{"ha":365,"x_min":60,"x_max":318,"o":"m 60 157 l 229 374 l 60 590 l 83 590 l 318 374 l 83 157 l 60 157 "},"":{"ha":1078,"x_min":22,"x_max":1060,"o":"m 653 472 l 653 369 l 828 369 l 828 472 q 742 583 828 583 q 653 472 653 583 m 238 347 l 238 239 q 240 139 238 182 q 253 67 243 96 q 282 23 263 38 q 335 8 301 8 q 388 23 368 8 q 417 67 407 38 q 429 139 426 96 q 432 239 432 182 l 432 347 q 429 447 432 403 q 417 522 426 492 q 388 567 407 551 q 335 583 368 583 q 282 567 301 583 q 253 522 263 551 q 240 447 243 492 q 238 347 238 403 m 539 50 q 451 1 501 19 q 335 -17 400 -17 q 197 10 256 -17 q 99 81 138 38 q 42 181 61 125 q 22 296 22 238 q 42 410 22 354 q 99 510 61 467 q 197 581 138 554 q 335 608 256 608 q 451 590 400 608 q 539 542 501 572 q 628 590 576 572 q 743 608 679 608 q 890 581 832 608 q 984 513 949 553 q 1037 426 1019 472 q 1060 343 1054 381 l 653 343 l 653 151 q 659 83 653 110 q 677 40 665 56 q 706 19 689 25 q 743 14 722 14 q 835 27 794 14 q 908 63 876 40 q 963 113 940 85 q 1001 172 986 142 q 1013 190 1008 185 q 1025 196 1017 196 q 1035 182 1035 196 q 1031 164 1035 174 q 991 95 1017 128 q 928 38 965 63 q 845 -2 892 13 q 743 -17 799 -17 q 628 1 679 -17 q 539 50 578 19 "},"":{"ha":932,"x_min":29,"x_max":915,"o":"m 475 1099 q 450 1038 475 1063 q 389 1013 425 1013 q 328 1038 353 1013 q 303 1099 303 1063 q 328 1160 303 1135 q 389 1185 353 1185 q 450 1160 425 1185 q 475 1099 475 1135 m 719 1099 q 694 1038 719 1063 q 633 1013 669 1013 q 572 1038 597 1013 q 547 1099 547 1063 q 572 1160 547 1135 q 633 1185 597 1185 q 694 1160 669 1185 q 719 1099 719 1135 m 681 938 l 915 938 l 915 915 q 865 908 885 915 q 831 890 844 901 q 807 863 817 878 q 789 831 797 847 l 600 447 l 600 22 l 675 22 l 675 0 l 301 0 l 301 22 l 376 22 l 376 411 l 103 917 l 29 917 l 29 939 l 407 939 l 407 917 l 332 917 l 571 464 l 751 831 q 763 872 763 853 q 745 903 763 892 q 681 915 728 915 l 681 938 "},"":{"ha":389,"x_min":79,"x_max":301,"o":"m 168 458 l 213 458 q 226 322 219 388 q 242 203 232 256 q 255 134 247 171 q 270 60 263 97 q 283 -11 278 24 q 288 -75 288 -46 q 266 -172 288 -137 q 190 -207 244 -207 q 115 -172 136 -207 q 93 -75 93 -137 q 98 -11 93 -46 q 110 60 103 24 q 126 134 118 97 q 139 203 133 171 q 155 322 149 256 q 168 458 161 388 m 301 656 q 269 577 301 610 q 190 544 236 544 q 112 577 144 544 q 79 656 79 610 q 112 734 79 701 q 190 767 144 767 q 269 734 236 767 q 301 656 301 701 "},"":{"ha":586,"x_min":50,"x_max":533,"o":"m 335 136 q 456 181 414 140 q 514 283 497 221 q 525 294 518 294 q 533 281 533 294 q 533 275 533 279 q 532 269 533 272 q 509 213 524 240 q 470 165 494 186 q 413 131 446 144 q 335 114 379 117 l 335 31 l 304 31 l 304 114 q 193 140 240 115 q 114 202 146 164 q 66 289 82 240 q 50 388 50 338 q 66 485 50 438 q 114 570 82 532 q 193 632 146 608 q 304 658 240 656 l 304 728 l 335 728 l 335 658 q 399 648 368 657 q 453 625 431 639 q 490 592 476 611 q 504 551 504 574 q 492 512 504 531 q 450 493 479 493 q 406 509 422 493 q 389 553 389 525 q 394 580 389 569 q 408 597 400 590 q 414 606 414 601 q 406 617 414 611 q 387 628 399 624 q 361 636 375 633 q 335 639 347 639 l 335 136 m 200 346 q 208 246 200 285 q 229 183 215 207 q 262 149 243 160 q 304 136 281 139 l 304 639 q 267 628 285 636 q 233 597 249 619 q 209 535 218 575 q 200 429 200 494 l 200 346 "},"":{"ha":776,"x_min":50,"x_max":739,"o":"m 438 951 q 620 910 553 951 q 688 775 688 869 q 661 705 688 728 q 603 682 635 682 q 544 704 571 682 q 517 769 517 726 q 538 827 517 810 q 585 844 560 844 q 628 829 613 844 q 588 892 628 868 q 497 915 549 915 q 435 906 467 915 q 379 874 404 896 q 339 817 354 851 q 324 732 324 782 l 324 501 l 433 501 l 433 476 l 324 476 l 324 276 q 369 244 342 263 q 427 210 396 226 q 492 183 458 194 q 558 172 525 172 q 588 173 571 172 q 626 186 606 174 q 670 227 647 199 q 717 311 693 256 q 729 322 721 322 q 739 310 739 322 l 739 306 q 712 206 728 261 q 670 101 696 150 q 604 18 644 51 q 506 -15 564 -15 q 397 9 449 -15 q 314 75 346 33 q 265 15 296 36 q 168 -7 233 -7 q 79 28 108 -7 q 50 110 50 64 q 61 167 50 136 q 98 226 72 199 q 165 271 124 253 q 264 289 206 289 q 203 391 232 343 q 151 476 174 439 l 57 476 l 57 501 l 140 501 q 88 598 113 549 q 63 707 63 647 q 90 810 63 765 q 166 887 117 856 q 285 935 215 918 q 438 951 354 951 m 168 21 q 249 41 221 21 q 289 96 276 61 q 228 160 265 136 q 153 185 192 185 q 99 163 119 185 q 79 108 79 142 q 101 49 79 76 q 168 21 124 21 "},"":{"ha":932,"x_min":33,"x_max":913,"o":"m 750 832 q 760 869 760 851 q 744 899 760 888 q 692 911 729 911 l 692 933 l 913 933 l 913 911 q 835 889 864 911 q 785 822 806 867 l 600 443 l 600 413 l 735 413 l 735 390 l 600 390 l 600 332 l 735 332 l 735 310 l 600 310 l 600 22 l 675 22 l 675 0 l 301 0 l 301 22 l 376 22 l 376 310 l 242 310 l 242 332 l 376 332 l 376 390 l 242 390 l 242 413 l 376 413 l 107 911 l 33 911 l 33 933 l 418 933 l 418 911 l 343 911 l 571 463 l 750 832 "},"":{"ha":206,"x_min":64,"x_max":139,"o":"m 139 375 l 139 0 l 64 0 l 64 375 l 139 375 m 64 524 l 64 936 l 139 936 l 139 524 l 64 524 "},"":{"ha":522,"x_min":54,"x_max":489,"o":"m 460 846 q 447 807 460 819 q 414 794 433 794 q 378 806 393 794 q 363 840 363 818 q 374 875 363 860 q 403 892 385 890 q 404 893 404 892 q 395 903 404 896 q 369 919 386 911 q 324 934 351 928 q 263 940 297 940 q 208 933 235 940 q 161 910 182 925 q 127 875 140 896 q 114 828 114 854 q 152 754 114 779 q 256 719 190 729 q 364 688 319 710 q 436 637 408 667 q 476 568 464 607 q 489 485 489 529 q 460 371 489 414 q 378 308 431 328 q 429 276 408 296 q 463 233 450 257 q 480 183 475 210 q 485 131 485 157 q 424 -37 485 26 q 256 -100 363 -100 q 180 -87 214 -100 q 122 -53 146 -74 q 84 -6 97 -32 q 71 49 71 21 q 84 94 71 75 q 122 113 97 113 q 156 100 142 113 q 169 63 169 88 q 156 28 169 42 q 118 14 142 14 q 110 13 111 14 q 110 7 110 11 q 120 -14 110 0 q 149 -41 131 -28 q 195 -65 168 -54 q 256 -75 222 -75 q 378 -37 335 -75 q 422 58 422 0 q 383 144 422 107 q 257 196 344 182 q 104 267 153 211 q 56 403 56 322 q 94 525 56 479 q 182 582 132 571 q 85 644 115 600 q 54 753 54 689 q 69 833 54 794 q 110 900 83 871 q 176 947 138 929 q 263 965 214 965 q 356 953 318 965 q 417 924 394 942 q 450 885 440 906 q 460 846 460 864 m 450 435 q 425 487 450 464 q 364 527 400 510 q 288 556 328 544 q 219 572 249 568 q 145 539 175 563 q 115 468 115 515 q 126 422 115 443 q 165 382 138 400 q 237 348 192 364 q 350 318 282 332 q 421 365 392 333 q 450 435 450 396 "},"":{"ha":564,"x_min":54,"x_max":513,"o":"m 246 801 q 218 733 246 761 q 150 706 190 706 q 82 733 110 706 q 54 801 54 761 q 82 869 54 842 q 150 897 110 897 q 218 869 190 897 q 246 801 246 842 m 513 801 q 485 733 513 761 q 417 706 457 706 q 349 733 376 706 q 321 801 321 761 q 349 869 321 842 q 417 897 376 897 q 485 869 457 897 q 513 801 513 842 "},"":{"ha":860,"x_min":56,"x_max":825,"o":"m 825 517 q 794 367 825 438 q 712 245 764 297 q 590 163 660 193 q 440 132 519 132 q 291 163 361 132 q 169 245 221 193 q 86 367 117 297 q 56 517 56 438 q 86 666 56 596 q 169 788 117 736 q 291 871 221 840 q 440 901 361 901 q 590 871 519 901 q 712 788 660 840 q 794 666 764 736 q 825 517 825 596 m 100 517 q 127 384 100 446 q 200 276 154 322 q 308 203 246 231 q 440 176 369 176 q 573 203 511 176 q 681 276 635 231 q 753 384 726 322 q 781 517 781 446 q 753 649 781 588 q 681 757 726 711 q 573 830 635 803 q 440 857 511 857 q 308 830 369 857 q 200 757 246 803 q 127 649 154 711 q 100 517 100 588 m 568 463 q 571 457 571 463 l 571 346 q 567 342 571 342 q 563 344 565 342 l 531 378 q 438 336 497 336 q 375 352 406 336 q 320 395 344 368 q 281 458 296 422 q 265 536 265 494 q 278 608 265 572 q 315 672 292 643 q 371 717 339 700 q 440 735 403 735 q 489 726 467 735 q 529 703 511 718 l 551 726 q 560 731 554 731 q 564 724 564 731 l 564 629 q 560 622 564 622 q 554 628 557 622 q 440 715 526 715 q 336 567 336 715 l 336 504 q 362 390 336 425 q 438 356 388 356 q 509 383 478 356 q 560 456 540 411 q 568 463 563 463 "},"":{"ha":508,"x_min":51,"x_max":468,"o":"m 58 446 l 463 446 l 463 418 l 58 418 l 58 446 m 228 885 q 364 857 324 885 q 404 758 404 829 l 404 583 q 408 551 404 563 q 429 540 413 540 q 449 549 444 540 q 457 571 454 558 q 464 579 457 579 q 468 572 468 579 l 468 569 q 466 554 468 564 q 456 535 464 544 q 429 517 447 525 q 378 510 411 510 q 313 522 335 510 q 283 553 290 535 q 245 524 269 539 q 179 510 221 510 q 83 542 114 510 q 51 621 51 575 q 60 664 51 643 q 85 701 68 685 q 128 728 103 718 q 188 739 154 739 l 278 739 l 278 807 q 269 853 278 836 q 229 871 260 871 q 182 866 194 871 q 169 854 169 861 q 175 846 169 850 q 192 815 192 835 q 183 788 192 804 q 146 772 174 772 q 115 783 128 772 q 101 818 101 794 q 137 868 101 851 q 228 885 172 885 m 278 725 l 244 725 q 195 696 210 725 q 181 621 181 667 q 190 554 181 575 q 219 533 199 533 q 235 538 225 533 q 254 548 244 542 q 271 563 264 554 q 278 578 278 571 l 278 725 "},"":{"ha":590,"x_min":21,"x_max":504,"o":"m 256 590 l 279 590 l 111 374 l 279 157 l 256 157 l 21 374 l 256 590 m 481 590 l 504 590 l 336 374 l 504 157 l 481 157 l 246 374 l 481 590 "},"":{"ha":522,"x_min":68,"x_max":446,"o":"m 68 493 l 446 493 l 446 465 l 68 465 l 68 493 m 288 233 q 284 233 285 233 q 283 232 283 232 q 288 231 283 231 q 367 197 332 226 q 403 118 403 167 q 370 35 403 71 q 268 -1 338 -1 q 166 35 199 -1 q 133 118 133 71 q 167 192 133 160 q 249 231 200 224 q 253 232 253 231 q 252 233 253 232 q 249 233 251 233 q 175 260 208 236 q 142 325 142 283 q 177 399 142 369 q 268 428 213 428 q 315 420 293 428 q 355 399 338 413 q 383 366 372 385 q 393 325 393 347 q 363 261 393 283 q 288 233 332 239 m 235 353 l 235 301 q 240 258 235 276 q 268 239 244 239 q 296 257 290 239 q 301 301 301 275 l 301 353 q 297 394 301 374 q 268 414 292 414 q 240 394 246 414 q 235 353 235 374 m 235 163 l 235 81 q 240 31 235 50 q 268 13 246 13 q 297 31 292 13 q 303 81 303 50 l 303 163 q 298 203 303 182 q 268 225 293 225 q 240 203 244 225 q 235 163 235 182 m 135 868 q 129 871 129 868 q 139 879 129 874 q 209 914 176 892 q 265 958 242 936 l 318 958 l 318 553 l 353 553 l 353 539 l 190 539 l 190 553 l 225 553 l 225 897 q 184 881 208 889 q 143 869 160 872 q 135 868 140 868 "},"":{"ha":606,"x_min":40,"x_max":551,"o":"m 71 688 q 88 599 71 640 q 136 528 106 558 q 208 480 167 497 q 296 463 249 463 q 384 480 343 463 q 456 528 425 497 q 503 599 486 558 q 521 688 521 640 q 503 776 521 735 q 456 847 486 817 q 384 895 425 878 q 296 913 343 913 q 208 895 249 913 q 136 847 167 878 q 88 776 106 817 q 71 688 71 735 m 551 688 q 531 588 551 635 q 476 507 511 542 q 395 452 442 472 q 296 432 349 432 q 197 452 243 432 q 115 507 150 472 q 60 588 81 542 q 40 688 40 635 q 60 787 40 740 q 115 868 81 833 q 197 923 150 903 q 296 943 243 943 q 395 923 349 943 q 476 868 442 903 q 531 787 511 833 q 551 688 551 740 m 399 561 q 417 550 403 550 q 436 556 429 550 l 439 556 l 440 556 q 439 553 440 554 q 421 544 435 549 q 392 539 407 539 q 363 549 369 539 q 349 585 350 563 q 346 632 349 608 q 326 683 342 671 q 294 694 310 694 l 260 694 l 260 556 l 297 556 l 297 542 l 178 542 l 178 556 l 217 556 l 217 826 l 178 826 l 178 840 l 303 840 q 369 822 343 840 q 396 767 396 803 q 324 696 396 708 q 369 676 351 689 q 393 628 388 664 q 396 590 396 611 q 399 561 396 569 m 260 708 l 303 708 q 341 719 328 708 q 354 758 354 731 l 354 775 q 303 826 354 826 l 260 826 l 260 708 "},"":{"ha":628,"x_min":117,"x_max":514,"o":"m 117 817 l 514 817 l 514 768 l 117 768 l 117 817 "},"":{"ha":346,"x_min":56,"x_max":294,"o":"m 294 833 q 285 787 294 808 q 259 749 275 765 q 222 724 243 733 q 175 714 200 714 q 128 724 150 714 q 91 749 107 733 q 65 787 75 765 q 56 833 56 808 q 65 880 56 858 q 91 917 75 901 q 128 943 107 933 q 175 953 150 953 q 222 943 200 953 q 259 917 243 933 q 285 880 275 901 q 294 833 294 858 m 79 833 q 107 765 79 793 q 175 738 135 738 q 243 765 215 738 q 271 833 271 793 q 243 901 271 874 q 175 929 215 929 q 107 901 135 929 q 79 833 79 874 "},"":{"ha":471,"x_min":51,"x_max":418,"o":"m 371 269 l 371 224 l 92 224 l 92 269 l 371 269 m 204 515 l 204 671 l 250 671 l 250 515 l 418 515 l 418 471 l 250 471 l 250 321 l 204 321 l 204 471 l 51 471 l 51 515 l 204 515 "},"":{"ha":463,"x_min":86,"x_max":367,"o":"m 138 904 q 175 892 161 904 q 189 854 189 881 q 174 817 189 831 q 136 803 160 803 q 99 819 113 803 q 86 863 86 835 q 94 899 86 881 q 119 931 103 917 q 160 953 136 944 q 214 963 183 963 q 265 956 239 963 q 311 934 290 950 q 344 892 332 918 q 357 825 357 865 q 331 733 357 774 q 256 669 304 692 q 194 641 218 653 q 151 610 171 629 l 289 610 q 334 624 321 610 q 354 661 347 638 q 363 669 358 669 q 367 665 367 669 q 364 653 367 664 l 336 538 l 97 538 l 97 550 q 117 592 101 565 q 165 649 132 619 q 194 676 175 656 q 226 713 213 697 q 253 762 246 735 q 260 833 260 789 q 247 924 260 903 q 199 946 235 946 q 144 930 167 946 q 119 900 121 914 q 138 904 128 904 "},"":{"ha":442,"x_min":86,"x_max":354,"o":"m 97 892 q 126 943 97 919 q 210 967 154 967 q 314 938 281 967 q 347 864 347 910 q 319 797 347 822 q 247 768 290 771 q 286 758 267 765 q 321 738 306 751 q 345 706 336 725 q 354 660 354 686 q 316 565 354 596 q 207 535 278 535 q 117 563 147 535 q 86 622 86 592 q 102 662 86 649 q 138 675 118 675 q 172 662 157 675 q 186 625 186 649 q 172 590 186 601 q 142 579 158 579 q 137 580 139 579 q 132 582 135 581 l 131 582 q 129 581 129 582 q 129 581 129 581 q 149 562 129 575 q 204 549 168 549 q 228 553 218 549 q 246 569 239 557 q 256 603 253 582 q 260 660 260 625 q 244 738 260 711 q 193 764 229 764 l 139 764 q 129 769 129 764 q 139 775 129 775 l 193 775 q 238 795 224 775 q 253 864 253 815 q 242 935 253 917 q 210 953 231 953 q 161 945 179 953 q 143 935 143 938 q 146 933 143 933 l 149 933 l 156 933 q 187 920 175 933 q 199 890 199 907 q 185 854 199 868 q 147 840 171 840 q 112 854 126 840 q 97 892 97 868 "},"":{"ha":478,"x_min":169,"x_max":418,"o":"m 281 900 l 418 900 l 192 674 l 169 686 l 281 900 "},"":{"ha":522,"x_min":75,"x_max":453,"o":"m 75 492 l 453 492 l 453 464 l 75 464 l 75 492 m 142 868 q 136 871 136 868 q 146 879 136 874 q 216 914 183 892 q 272 958 249 936 l 325 958 l 325 553 l 360 553 l 360 539 l 197 539 l 197 553 l 232 553 l 232 897 q 191 881 215 889 q 150 869 167 872 q 142 868 147 868 m 181 367 q 218 355 204 367 q 232 317 232 343 q 217 279 232 293 q 179 265 203 265 q 142 281 156 265 q 129 325 129 297 q 138 361 129 343 q 163 393 146 379 q 203 416 179 407 q 257 425 226 425 q 308 419 282 425 q 354 397 333 413 q 388 354 375 381 q 400 288 400 328 q 374 195 400 236 q 299 132 347 154 q 238 103 261 115 q 194 72 214 92 l 332 72 q 377 86 364 72 q 397 124 390 100 q 406 132 401 132 q 410 128 410 132 q 407 115 410 126 l 379 0 l 140 0 l 140 13 q 160 55 144 28 q 208 111 175 82 q 237 139 218 118 q 269 175 256 160 q 296 224 289 197 q 303 296 303 251 q 290 387 303 365 q 242 408 278 408 q 187 392 210 408 q 163 363 164 376 q 181 367 171 367 "},"":{"ha":874,"x_min":51,"x_max":829,"o":"m 597 914 l 515 914 l 515 -150 l 403 -150 l 403 431 l 326 431 q 219 447 269 431 q 132 494 169 463 q 73 573 94 525 q 51 683 51 621 q 73 794 51 746 q 132 873 94 842 q 219 920 169 904 q 326 936 269 936 l 829 936 l 829 914 l 710 914 l 710 -150 l 597 -150 l 597 914 "},"":{"ha":381,"x_min":79,"x_max":301,"o":"m 301 496 q 269 417 301 450 q 190 385 236 385 q 112 417 144 385 q 79 496 79 450 q 112 574 79 542 q 190 607 144 607 q 269 574 236 607 q 301 496 301 542 "},"":{"ha":393,"x_min":96,"x_max":283,"o":"m 217 -67 q 237 -76 225 -69 q 259 -92 249 -82 q 276 -117 269 -103 q 283 -149 283 -131 q 258 -204 283 -182 q 192 -226 233 -226 q 140 -209 163 -226 q 101 -168 117 -192 q 96 -153 96 -158 q 100 -147 96 -147 q 117 -158 106 -147 q 142 -178 128 -172 q 172 -185 157 -185 q 210 -173 193 -185 q 226 -136 226 -161 q 212 -95 226 -110 q 181 -75 197 -81 l 197 0 l 229 0 l 217 -67 "},"":{"ha":396,"x_min":94,"x_max":318,"o":"m 100 868 q 94 871 94 868 q 104 879 94 874 q 174 914 142 892 q 231 958 207 936 l 283 958 l 283 553 l 318 553 l 318 539 l 156 539 l 156 553 l 190 553 l 190 897 q 149 881 174 889 q 108 869 125 872 q 100 868 106 868 "},"":{"ha":524,"x_min":58,"x_max":463,"o":"m 74 696 q 85 765 74 731 q 120 826 97 799 q 178 869 143 853 q 260 885 214 885 q 342 869 307 885 q 401 826 378 853 q 436 767 425 800 q 447 699 447 733 q 435 630 447 664 q 401 569 424 596 q 342 527 378 543 q 260 511 307 511 q 178 527 213 511 q 120 569 143 543 q 85 628 97 594 q 74 696 74 661 m 201 729 l 201 663 q 210 560 201 594 q 260 525 219 525 q 309 560 300 525 q 318 663 318 594 l 318 729 q 309 834 318 797 q 260 871 300 871 q 210 834 219 871 q 201 729 201 797 m 58 446 l 463 446 l 463 418 l 58 418 l 58 446 "},"":{"ha":575,"x_min":60,"x_max":550,"o":"m 60 157 l 229 374 l 60 590 l 83 590 l 318 374 l 83 157 l 60 157 m 292 157 l 460 374 l 292 590 l 315 590 l 550 374 l 315 157 l 292 157 "},"":{"ha":522,"x_min":93,"x_max":468,"o":"m 93 489 l 468 489 l 468 461 l 93 461 l 93 489 m 365 421 l 365 154 l 424 154 l 424 117 l 365 117 l 365 14 l 400 14 l 400 0 l 239 0 l 239 14 l 272 14 l 272 117 l 132 117 l 132 131 q 215 279 168 201 q 303 421 263 357 l 365 421 m 272 154 l 272 347 q 213 248 244 301 q 160 154 182 194 l 272 154 m 158 868 q 153 871 153 868 q 163 879 153 874 q 233 914 200 892 q 289 958 265 936 l 342 958 l 342 553 l 376 553 l 376 539 l 214 539 l 214 553 l 249 553 l 249 897 q 208 881 232 889 q 167 869 183 872 q 158 868 164 868 "},"":{"ha":522,"x_min":75,"x_max":453,"o":"m 75 492 l 453 492 l 453 464 l 75 464 l 75 492 m 142 868 q 136 871 136 868 q 146 879 136 874 q 216 914 183 892 q 272 958 249 936 l 325 958 l 325 553 l 360 553 l 360 539 l 197 539 l 197 553 l 232 553 l 232 897 q 191 881 215 889 q 150 869 167 872 q 142 868 147 868 m 181 367 q 218 355 204 367 q 232 317 232 343 q 217 279 232 293 q 179 265 203 265 q 142 281 156 265 q 129 325 129 297 q 138 361 129 343 q 163 393 146 379 q 203 416 179 407 q 257 425 226 425 q 308 419 282 425 q 354 397 333 413 q 388 354 375 381 q 400 288 400 328 q 374 195 400 236 q 299 132 347 154 q 238 103 261 115 q 194 72 214 92 l 332 72 q 377 86 364 72 q 397 124 390 100 q 406 132 401 132 q 410 128 410 132 q 407 115 410 126 l 379 0 l 140 0 l 140 13 q 160 55 144 28 q 208 111 175 82 q 237 139 218 118 q 269 175 256 160 q 296 224 289 197 q 303 296 303 251 q 290 387 303 365 q 242 408 278 408 q 187 392 210 408 q 163 363 164 376 q 181 367 171 367 "},"":{"ha":522,"x_min":92,"x_max":469,"o":"m 92 490 l 469 490 l 469 463 l 92 463 l 92 490 m 156 892 q 184 943 156 919 q 268 967 213 967 q 372 938 339 967 q 406 864 406 910 q 377 797 406 822 q 306 768 349 771 q 344 758 325 765 q 379 738 364 751 q 403 706 394 725 q 413 660 413 686 q 374 565 413 596 q 265 535 336 535 q 175 563 206 535 q 144 622 144 592 q 160 662 144 649 q 196 675 176 675 q 230 662 215 675 q 244 625 244 649 q 231 590 244 601 q 200 579 217 579 q 195 580 197 579 q 190 582 193 581 l 189 582 q 188 581 188 582 q 188 581 188 581 q 207 562 188 575 q 263 549 226 549 q 287 553 276 549 q 304 569 297 557 q 315 603 311 582 q 318 660 318 625 q 303 738 318 711 q 251 764 288 764 l 197 764 q 188 769 188 764 q 197 775 188 775 l 251 775 q 297 795 282 775 q 311 864 311 815 q 300 935 311 917 q 268 953 289 953 q 219 945 238 953 q 201 935 201 938 q 204 933 201 933 l 207 933 l 214 933 q 245 920 233 933 q 257 890 257 907 q 243 854 257 868 q 206 840 229 840 q 170 854 185 840 q 156 892 156 868 m 365 421 l 365 154 l 424 154 l 424 117 l 365 117 l 365 14 l 400 14 l 400 0 l 239 0 l 239 14 l 272 14 l 272 117 l 132 117 l 132 131 q 215 279 168 201 q 303 421 263 357 l 365 421 m 272 154 l 272 347 q 213 248 244 301 q 160 154 182 194 l 272 154 "},"":{"ha":553,"x_min":63,"x_max":494,"o":"m 63 44 q 93 167 63 119 q 165 247 124 215 q 224 287 194 269 q 278 322 254 304 q 318 358 303 339 q 333 403 333 378 l 333 454 l 356 454 l 356 233 q 347 172 356 197 q 324 128 338 147 q 292 96 310 110 q 258 69 275 82 q 232 49 244 60 q 210 22 219 38 q 194 -17 200 6 q 189 -74 189 -40 q 215 -148 189 -118 q 292 -178 240 -178 q 374 -165 342 -178 q 406 -146 406 -153 q 400 -142 406 -142 q 344 -117 364 -142 q 325 -64 325 -93 q 330 -35 325 -50 q 345 -7 335 -19 q 371 13 356 6 q 408 21 386 21 q 472 -4 449 21 q 494 -62 494 -29 q 483 -111 494 -86 q 446 -156 471 -136 q 380 -190 421 -176 q 281 -203 339 -203 q 123 -142 183 -203 q 63 44 63 -82 m 221 629 q 253 708 221 675 q 332 740 286 740 q 410 708 378 740 q 443 629 443 675 q 410 551 443 583 q 332 518 378 518 q 253 551 286 518 q 221 629 221 583 "},"":{"ha":940,"x_min":47,"x_max":910,"o":"m 261 1178 l 381 1178 l 485 985 l 464 974 l 261 1178 m 433 946 l 529 946 l 835 22 l 910 22 l 910 0 l 536 0 l 536 22 l 611 22 l 522 290 l 243 290 l 185 104 q 180 87 181 93 q 179 72 179 81 q 182 56 179 65 q 193 40 185 47 q 217 27 201 32 q 257 22 232 22 l 257 0 l 47 0 l 47 22 q 117 44 92 22 q 153 94 143 65 l 433 946 m 382 714 l 251 313 l 514 313 l 382 714 "},"":{"ha":940,"x_min":47,"x_max":910,"o":"m 589 1178 l 708 1178 l 504 974 l 483 985 l 589 1178 m 433 946 l 529 946 l 835 22 l 910 22 l 910 0 l 536 0 l 536 22 l 611 22 l 522 290 l 243 290 l 185 104 q 180 87 181 93 q 179 72 179 81 q 182 56 179 65 q 193 40 185 47 q 217 27 201 32 q 257 22 232 22 l 257 0 l 47 0 l 47 22 q 117 44 92 22 q 153 94 143 65 l 433 946 m 382 714 l 251 313 l 514 313 l 382 714 "},"":{"ha":940,"x_min":47,"x_max":910,"o":"m 665 964 l 657 958 l 476 1068 l 300 958 l 290 964 l 444 1164 l 510 1164 l 665 964 m 433 946 l 529 946 l 835 22 l 910 22 l 910 0 l 536 0 l 536 22 l 611 22 l 522 290 l 243 290 l 185 104 q 180 87 181 93 q 179 72 179 81 q 182 56 179 65 q 193 40 185 47 q 217 27 201 32 q 257 22 232 22 l 257 0 l 47 0 l 47 22 q 117 44 92 22 q 153 94 143 65 l 433 946 m 382 714 l 251 313 l 514 313 l 382 714 "},"":{"ha":940,"x_min":47,"x_max":910,"o":"m 515 1110 q 563 1091 539 1100 q 610 1082 586 1082 q 651 1094 642 1082 q 661 1121 660 1106 q 678 1140 664 1140 q 692 1119 692 1140 q 686 1090 692 1107 q 665 1058 681 1074 q 624 1032 650 1043 q 554 1021 597 1021 q 491 1027 521 1021 q 424 1049 461 1033 q 376 1072 396 1060 q 335 1083 356 1083 q 293 1069 310 1083 q 274 1033 276 1056 q 260 1014 274 1014 q 244 1038 244 1014 q 253 1069 244 1051 q 278 1103 261 1088 q 321 1131 294 1119 q 385 1142 347 1142 q 450 1133 417 1142 q 515 1110 483 1124 m 433 946 l 529 946 l 835 22 l 910 22 l 910 0 l 536 0 l 536 22 l 611 22 l 522 290 l 243 290 l 185 104 q 180 87 181 93 q 179 72 179 81 q 182 56 179 65 q 193 40 185 47 q 217 27 201 32 q 257 22 232 22 l 257 0 l 47 0 l 47 22 q 117 44 92 22 q 153 94 143 65 l 433 946 m 382 714 l 251 313 l 514 313 l 382 714 "},"":{"ha":940,"x_min":47,"x_max":910,"o":"m 443 1099 q 418 1038 443 1063 q 357 1013 393 1013 q 296 1038 321 1013 q 271 1099 271 1063 q 296 1160 271 1135 q 357 1185 321 1185 q 418 1160 393 1185 q 443 1099 443 1135 m 688 1099 q 663 1038 688 1063 q 601 1013 638 1013 q 540 1038 565 1013 q 515 1099 515 1063 q 540 1160 515 1135 q 601 1185 565 1185 q 663 1160 638 1185 q 688 1099 688 1135 m 433 946 l 529 946 l 835 22 l 910 22 l 910 0 l 536 0 l 536 22 l 611 22 l 522 290 l 243 290 l 185 104 q 180 87 181 93 q 179 72 179 81 q 182 56 179 65 q 193 40 185 47 q 217 27 201 32 q 257 22 232 22 l 257 0 l 47 0 l 47 22 q 117 44 92 22 q 153 94 143 65 l 433 946 m 382 714 l 251 313 l 514 313 l 382 714 "},"":{"ha":940,"x_min":47,"x_max":910,"o":"m 433 946 l 529 946 l 835 22 l 910 22 l 910 0 l 536 0 l 536 22 l 611 22 l 522 290 l 243 290 l 185 104 q 180 87 181 93 q 179 72 179 81 q 182 56 179 65 q 193 40 185 47 q 217 27 201 32 q 257 22 232 22 l 257 0 l 47 0 l 47 22 q 117 44 92 22 q 153 94 143 65 l 433 946 m 382 714 l 251 313 l 514 313 l 382 714 m 600 1094 q 590 1048 600 1069 q 565 1010 581 1026 q 527 985 549 994 q 481 975 506 975 q 434 985 456 975 q 397 1010 413 994 q 371 1048 381 1026 q 361 1094 361 1069 q 371 1141 361 1119 q 397 1178 381 1163 q 434 1204 413 1194 q 481 1214 456 1214 q 527 1204 506 1214 q 565 1178 549 1194 q 590 1141 581 1163 q 600 1094 600 1119 m 385 1094 q 413 1026 385 1054 q 481 999 440 999 q 549 1026 521 999 q 576 1094 576 1054 q 549 1163 576 1135 q 481 1190 521 1190 q 413 1163 440 1190 q 385 1094 385 1135 "},"":{"ha":1276,"x_min":42,"x_max":1250,"o":"m 374 418 l 628 418 l 628 858 l 374 418 m 1200 899 l 1211 697 q 1197 679 1211 679 q 1183 697 1183 679 q 1166 775 1181 736 q 1123 845 1151 814 q 1053 896 1094 876 q 958 915 1013 915 l 851 915 l 851 503 l 936 503 q 1017 538 989 503 q 1053 643 1046 574 q 1067 668 1054 668 q 1081 643 1081 668 l 1081 340 q 1067 315 1081 315 q 1053 340 1054 315 q 1017 446 1046 411 q 936 481 989 481 l 851 481 l 851 22 l 983 22 q 1091 42 1050 22 q 1157 94 1132 61 q 1194 173 1182 128 q 1218 269 1207 218 q 1236 292 1222 292 q 1250 269 1250 292 l 1250 42 q 1242 11 1250 22 q 1211 0 1235 0 l 513 0 l 513 22 l 628 22 l 628 396 l 361 396 l 193 101 q 181 56 181 81 q 198 33 181 44 q 251 22 215 22 l 251 0 l 42 0 l 42 22 q 108 41 78 22 q 160 97 139 60 l 631 915 l 511 915 l 511 938 l 1160 938 q 1188 929 1178 938 q 1200 899 1199 921 "},"":{"ha":867,"x_min":31,"x_max":815,"o":"m 507 -17 l 496 -65 q 517 -74 506 -68 q 540 -91 529 -81 q 557 -116 550 -101 q 564 -149 564 -131 q 539 -206 564 -183 q 471 -229 514 -229 q 417 -211 440 -229 q 379 -169 394 -193 q 374 -153 374 -160 q 378 -147 374 -147 q 394 -160 383 -147 q 451 -186 417 -186 q 490 -174 472 -186 q 507 -136 507 -162 q 491 -95 507 -110 q 460 -74 475 -81 l 474 -17 q 279 31 363 -12 q 141 141 196 74 q 58 294 86 208 q 31 468 31 379 q 60 647 31 560 q 147 803 89 735 q 291 913 204 871 q 494 954 378 954 q 624 931 574 954 q 707 876 675 908 l 760 929 q 781 942 769 942 q 797 919 797 942 l 797 674 q 788 660 797 660 q 772 674 776 660 q 726 781 751 733 q 669 861 701 828 q 596 912 636 894 q 504 929 556 929 q 399 915 439 929 q 336 858 358 900 q 306 738 314 815 q 297 538 297 661 l 297 399 q 308 200 297 276 q 344 81 319 124 q 405 24 368 39 q 493 8 442 8 q 592 26 550 8 q 667 71 635 43 q 720 134 699 99 q 756 205 742 169 q 778 273 769 240 q 790 328 786 306 q 804 346 794 346 q 815 328 815 346 l 815 11 q 808 -4 815 -4 q 792 10 801 -4 l 736 89 q 708 59 726 76 q 662 26 690 42 q 595 -3 633 10 q 507 -17 557 -15 "},"":{"ha":788,"x_min":42,"x_max":739,"o":"m 207 1178 l 326 1178 l 432 985 l 411 974 l 207 1178 m 556 315 q 542 340 543 315 q 506 446 535 411 q 425 481 478 481 l 340 481 l 340 22 l 472 22 q 580 42 539 22 q 646 94 621 61 q 683 173 671 128 q 707 269 696 218 q 725 292 711 292 q 739 269 739 292 l 739 42 q 731 11 739 22 q 701 0 724 0 l 42 0 l 42 22 l 117 22 l 117 915 l 42 915 l 42 938 l 644 938 q 676 929 665 938 q 689 899 688 921 l 700 697 q 686 679 700 679 q 672 697 672 679 q 655 775 669 736 q 612 845 640 814 q 542 896 583 876 q 447 915 501 915 l 340 915 l 340 503 l 425 503 q 506 538 478 503 q 542 643 535 574 q 556 668 543 668 q 569 643 569 668 l 569 340 q 556 315 569 315 "},"":{"ha":788,"x_min":42,"x_max":739,"o":"m 458 1178 l 578 1178 l 375 974 l 354 985 l 458 1178 m 556 315 q 542 340 543 315 q 506 446 535 411 q 425 481 478 481 l 340 481 l 340 22 l 472 22 q 580 42 539 22 q 646 94 621 61 q 683 173 671 128 q 707 269 696 218 q 725 292 711 292 q 739 269 739 292 l 739 42 q 731 11 739 22 q 701 0 724 0 l 42 0 l 42 22 l 117 22 l 117 915 l 42 915 l 42 938 l 644 938 q 676 929 665 938 q 689 899 688 921 l 700 697 q 686 679 700 679 q 672 697 672 679 q 655 775 669 736 q 612 845 640 814 q 542 896 583 876 q 447 915 501 915 l 340 915 l 340 503 l 425 503 q 506 538 478 503 q 542 643 535 574 q 556 668 543 668 q 569 643 569 668 l 569 340 q 556 315 569 315 "},"":{"ha":788,"x_min":42,"x_max":739,"o":"m 592 985 l 582 979 l 403 1089 l 225 979 l 217 985 l 371 1185 l 436 1185 l 592 985 m 556 315 q 542 340 543 315 q 506 446 535 411 q 425 481 478 481 l 340 481 l 340 22 l 472 22 q 580 42 539 22 q 646 94 621 61 q 683 173 671 128 q 707 269 696 218 q 725 292 711 292 q 739 269 739 292 l 739 42 q 731 11 739 22 q 701 0 724 0 l 42 0 l 42 22 l 117 22 l 117 915 l 42 915 l 42 938 l 644 938 q 676 929 665 938 q 689 899 688 921 l 700 697 q 686 679 700 679 q 672 697 672 679 q 655 775 669 736 q 612 845 640 814 q 542 896 583 876 q 447 915 501 915 l 340 915 l 340 503 l 425 503 q 506 538 478 503 q 542 643 535 574 q 556 668 543 668 q 569 643 569 668 l 569 340 q 556 315 569 315 "},"":{"ha":788,"x_min":42,"x_max":739,"o":"m 368 1099 q 343 1038 368 1063 q 282 1013 318 1013 q 221 1038 246 1013 q 196 1099 196 1063 q 221 1160 196 1135 q 282 1185 246 1185 q 343 1160 318 1185 q 368 1099 368 1135 m 613 1099 q 588 1038 613 1063 q 526 1013 563 1013 q 465 1038 490 1013 q 440 1099 440 1063 q 465 1160 440 1135 q 526 1185 490 1185 q 588 1160 563 1185 q 613 1099 613 1135 m 556 315 q 542 340 543 315 q 506 446 535 411 q 425 481 478 481 l 340 481 l 340 22 l 472 22 q 580 42 539 22 q 646 94 621 61 q 683 173 671 128 q 707 269 696 218 q 725 292 711 292 q 739 269 739 292 l 739 42 q 731 11 739 22 q 701 0 724 0 l 42 0 l 42 22 l 117 22 l 117 915 l 42 915 l 42 938 l 644 938 q 676 929 665 938 q 689 899 688 921 l 700 697 q 686 679 700 679 q 672 697 672 679 q 655 775 669 736 q 612 845 640 814 q 542 896 583 876 q 447 915 501 915 l 340 915 l 340 503 l 425 503 q 506 538 478 503 q 542 643 535 574 q 556 668 543 668 q 569 643 569 668 l 569 340 q 556 315 569 315 "},"":{"ha":489,"x_min":35,"x_max":432,"o":"m 35 1178 l 154 1178 l 258 985 l 238 974 l 35 1178 m 432 915 l 357 915 l 357 22 l 432 22 l 432 0 l 58 0 l 58 22 l 133 22 l 133 915 l 58 915 l 58 938 l 432 938 l 432 915 "},"":{"ha":489,"x_min":58,"x_max":465,"o":"m 346 1178 l 465 1178 l 263 974 l 242 985 l 346 1178 m 432 915 l 357 915 l 357 22 l 432 22 l 432 0 l 58 0 l 58 22 l 133 22 l 133 915 l 58 915 l 58 938 l 432 938 l 432 915 "},"":{"ha":489,"x_min":56,"x_max":432,"o":"m 431 985 l 421 979 l 242 1089 l 64 979 l 56 985 l 210 1185 l 275 1185 l 431 985 m 432 915 l 357 915 l 357 22 l 432 22 l 432 0 l 58 0 l 58 22 l 133 22 l 133 915 l 58 915 l 58 938 l 432 938 l 432 915 "},"":{"ha":489,"x_min":33,"x_max":450,"o":"m 206 1099 q 181 1038 206 1063 q 119 1013 156 1013 q 58 1038 83 1013 q 33 1099 33 1063 q 58 1160 33 1135 q 119 1185 83 1185 q 181 1160 156 1185 q 206 1099 206 1135 m 450 1099 q 425 1038 450 1063 q 364 1013 400 1013 q 303 1038 328 1013 q 278 1099 278 1063 q 303 1160 278 1135 q 364 1185 328 1185 q 425 1160 400 1185 q 450 1099 450 1135 m 432 915 l 357 915 l 357 22 l 432 22 l 432 0 l 58 0 l 58 22 l 133 22 l 133 915 l 58 915 l 58 938 l 432 938 l 432 915 "},"":{"ha":867,"x_min":43,"x_max":835,"o":"m 343 493 l 451 493 l 451 465 l 343 465 l 343 22 l 418 22 q 485 38 454 22 q 540 100 517 54 q 578 226 564 146 q 592 436 592 307 l 592 503 q 578 708 592 628 q 540 835 564 789 q 484 898 517 881 q 414 915 451 915 l 343 915 l 343 493 m 119 465 l 43 465 l 43 493 l 119 493 l 119 915 l 44 915 l 44 938 l 449 938 q 618 897 546 938 q 738 791 690 857 q 810 641 786 725 q 835 469 835 557 q 810 297 835 382 q 738 147 786 213 q 618 40 690 81 q 449 0 546 0 l 44 0 l 44 22 l 119 22 l 119 465 "},"":{"ha":846,"x_min":44,"x_max":814,"o":"m 474 1110 q 521 1091 497 1100 q 568 1082 544 1082 q 609 1094 600 1082 q 619 1121 618 1106 q 636 1140 622 1140 q 650 1119 650 1140 q 644 1090 650 1107 q 624 1058 639 1074 q 582 1032 608 1043 q 513 1021 556 1021 q 449 1027 479 1021 q 382 1049 419 1033 q 334 1072 354 1060 q 293 1083 314 1083 q 251 1069 268 1083 q 232 1033 235 1056 q 218 1014 232 1014 q 203 1038 203 1014 q 211 1069 203 1051 q 236 1103 219 1088 q 279 1131 253 1119 q 343 1142 306 1142 q 408 1133 375 1142 q 474 1110 442 1124 m 640 915 l 640 938 l 814 938 l 814 915 q 763 898 786 915 q 739 846 739 881 l 739 -11 l 692 -11 l 156 763 l 156 94 q 179 40 156 58 q 231 22 203 22 l 231 0 l 57 0 l 57 22 q 109 40 86 22 q 132 94 132 58 l 132 796 l 44 903 l 44 938 l 315 938 l 715 360 l 715 843 q 692 897 715 879 q 640 915 669 915 "},"":{"ha":981,"x_min":49,"x_max":940,"o":"m 294 1178 l 414 1178 l 518 985 l 497 974 l 294 1178 m 49 469 q 77 647 49 560 q 162 803 106 735 q 301 913 218 871 q 494 954 385 954 q 688 913 604 954 q 827 803 771 871 q 912 647 883 735 q 940 469 940 560 q 912 291 940 378 q 827 135 883 204 q 688 25 771 67 q 494 -17 604 -17 q 301 25 385 -17 q 162 135 218 67 q 77 291 106 204 q 49 469 49 378 m 494 929 q 401 907 436 929 q 347 838 365 885 q 322 717 328 790 q 315 539 315 643 l 315 400 q 322 209 315 285 q 347 89 328 133 q 401 26 365 44 q 494 8 436 8 q 588 26 553 8 q 642 89 624 44 q 667 209 661 133 q 674 400 674 285 l 674 539 q 667 717 674 643 q 642 838 661 790 q 588 907 624 885 q 494 929 553 929 "},"":{"ha":981,"x_min":49,"x_max":940,"o":"m 576 1178 l 696 1178 l 493 974 l 472 985 l 576 1178 m 49 469 q 77 647 49 560 q 162 803 106 735 q 301 913 218 871 q 494 954 385 954 q 688 913 604 954 q 827 803 771 871 q 912 647 883 735 q 940 469 940 560 q 912 291 940 378 q 827 135 883 204 q 688 25 771 67 q 494 -17 604 -17 q 301 25 385 -17 q 162 135 218 67 q 77 291 106 204 q 49 469 49 378 m 494 929 q 401 907 436 929 q 347 838 365 885 q 322 717 328 790 q 315 539 315 643 l 315 400 q 322 209 315 285 q 347 89 328 133 q 401 26 365 44 q 494 8 436 8 q 588 26 553 8 q 642 89 624 44 q 667 209 661 133 q 674 400 674 285 l 674 539 q 667 717 674 643 q 642 838 661 790 q 588 907 624 885 q 494 929 553 929 "},"":{"ha":981,"x_min":49,"x_max":940,"o":"m 685 985 l 675 979 l 496 1089 l 318 979 l 310 985 l 464 1185 l 529 1185 l 685 985 m 49 469 q 77 647 49 560 q 162 803 106 735 q 301 913 218 871 q 494 954 385 954 q 688 913 604 954 q 827 803 771 871 q 912 647 883 735 q 940 469 940 560 q 912 291 940 378 q 827 135 883 204 q 688 25 771 67 q 494 -17 604 -17 q 301 25 385 -17 q 162 135 218 67 q 77 291 106 204 q 49 469 49 378 m 494 929 q 401 907 436 929 q 347 838 365 885 q 322 717 328 790 q 315 539 315 643 l 315 400 q 322 209 315 285 q 347 89 328 133 q 401 26 365 44 q 494 8 436 8 q 588 26 553 8 q 642 89 624 44 q 667 209 661 133 q 674 400 674 285 l 674 539 q 667 717 674 643 q 642 838 661 790 q 588 907 624 885 q 494 929 553 929 "},"":{"ha":981,"x_min":49,"x_max":940,"o":"m 529 1110 q 576 1091 553 1100 q 624 1082 600 1082 q 665 1094 656 1082 q 675 1121 674 1106 q 692 1140 678 1140 q 706 1119 706 1140 q 700 1090 706 1107 q 679 1058 694 1074 q 638 1032 664 1043 q 568 1021 611 1021 q 505 1027 535 1021 q 438 1049 475 1033 q 390 1072 410 1060 q 349 1083 369 1083 q 307 1069 324 1083 q 288 1033 290 1056 q 274 1014 288 1014 q 258 1038 258 1014 q 267 1069 258 1051 q 292 1103 275 1088 q 335 1131 308 1119 q 399 1142 361 1142 q 464 1133 431 1142 q 529 1110 497 1124 m 49 469 q 77 647 49 560 q 162 803 106 735 q 301 913 218 871 q 494 954 385 954 q 688 913 604 954 q 827 803 771 871 q 912 647 883 735 q 940 469 940 560 q 912 291 940 378 q 827 135 883 204 q 688 25 771 67 q 494 -17 604 -17 q 301 25 385 -17 q 162 135 218 67 q 77 291 106 204 q 49 469 49 378 m 494 929 q 401 907 436 929 q 347 838 365 885 q 322 717 328 790 q 315 539 315 643 l 315 400 q 322 209 315 285 q 347 89 328 133 q 401 26 365 44 q 494 8 436 8 q 588 26 553 8 q 642 89 624 44 q 667 209 661 133 q 674 400 674 285 l 674 539 q 667 717 674 643 q 642 838 661 790 q 588 907 624 885 q 494 929 553 929 "},"":{"ha":981,"x_min":49,"x_max":940,"o":"m 450 1099 q 425 1038 450 1063 q 364 1013 400 1013 q 303 1038 328 1013 q 278 1099 278 1063 q 303 1160 278 1135 q 364 1185 328 1185 q 425 1160 400 1185 q 450 1099 450 1135 m 694 1099 q 669 1038 694 1063 q 608 1013 644 1013 q 547 1038 572 1013 q 522 1099 522 1063 q 547 1160 522 1135 q 608 1185 572 1185 q 669 1160 644 1185 q 694 1099 694 1135 m 49 469 q 77 647 49 560 q 162 803 106 735 q 301 913 218 871 q 494 954 385 954 q 688 913 604 954 q 827 803 771 871 q 912 647 883 735 q 940 469 940 560 q 912 291 940 378 q 827 135 883 204 q 688 25 771 67 q 494 -17 604 -17 q 301 25 385 -17 q 162 135 218 67 q 77 291 106 204 q 49 469 49 378 m 494 929 q 401 907 436 929 q 347 838 365 885 q 322 717 328 790 q 315 539 315 643 l 315 400 q 322 209 315 285 q 347 89 328 133 q 401 26 365 44 q 494 8 436 8 q 588 26 553 8 q 642 89 624 44 q 667 209 661 133 q 674 400 674 285 l 674 539 q 667 717 674 643 q 642 838 661 790 q 588 907 624 885 q 494 929 553 929 "},"":{"ha":783,"x_min":53,"x_max":732,"o":"m 53 624 l 119 690 l 392 417 l 665 690 l 732 624 l 458 351 l 732 78 l 665 11 l 392 285 l 119 11 l 53 78 l 325 351 l 53 624 "},"":{"ha":981,"x_min":49,"x_max":940,"o":"m 638 849 l 338 114 q 392 31 356 54 q 494 8 428 8 q 588 26 553 8 q 642 89 624 44 q 667 209 661 133 q 674 400 674 285 l 674 539 q 667 725 674 649 q 638 849 660 801 m 328 157 l 621 878 q 494 929 582 929 q 401 907 436 929 q 347 838 365 885 q 322 717 328 790 q 315 539 315 643 l 315 400 q 318 261 315 321 q 328 157 321 201 m 279 36 q 179 115 222 68 q 107 219 136 163 q 63 340 78 276 q 49 469 49 404 q 77 647 49 560 q 162 803 106 735 q 301 913 218 871 q 494 954 385 954 q 643 931 575 954 l 685 1035 l 710 1024 l 668 921 q 786 846 735 893 q 872 738 838 799 q 923 609 906 678 q 940 469 940 540 q 912 291 940 378 q 827 135 883 204 q 688 25 771 67 q 494 -17 604 -17 q 391 -6 439 -17 q 301 25 343 6 l 243 -118 l 221 -107 l 279 36 "},"":{"ha":868,"x_min":43,"x_max":840,"o":"m 283 1178 l 403 1178 l 508 985 l 488 974 l 283 1178 m 667 915 l 667 938 l 840 938 l 840 915 q 789 898 813 915 q 765 844 765 881 l 765 282 q 688 58 765 132 q 461 -17 611 -17 q 322 1 385 -17 q 213 56 258 19 q 143 148 168 93 q 118 276 118 203 l 118 915 l 43 915 l 43 938 l 417 938 l 417 915 l 342 915 l 342 229 q 351 147 342 185 q 382 83 360 110 q 442 40 404 56 q 540 25 481 25 q 615 41 579 25 q 679 89 651 57 q 724 169 707 121 q 740 281 740 217 l 740 844 q 718 898 740 881 q 667 915 696 915 "},"":{"ha":868,"x_min":43,"x_max":840,"o":"m 561 1178 l 681 1178 l 478 974 l 457 985 l 561 1178 m 667 915 l 667 938 l 840 938 l 840 915 q 789 898 813 915 q 765 844 765 881 l 765 282 q 688 58 765 132 q 461 -17 611 -17 q 322 1 385 -17 q 213 56 258 19 q 143 148 168 93 q 118 276 118 203 l 118 915 l 43 915 l 43 938 l 417 938 l 417 915 l 342 915 l 342 229 q 351 147 342 185 q 382 83 360 110 q 442 40 404 56 q 540 25 481 25 q 615 41 579 25 q 679 89 651 57 q 724 169 707 121 q 740 281 740 217 l 740 844 q 718 898 740 881 q 667 915 696 915 "},"":{"ha":868,"x_min":43,"x_max":840,"o":"m 668 985 l 658 979 l 479 1089 l 301 979 l 293 985 l 447 1185 l 513 1185 l 668 985 m 667 915 l 667 938 l 840 938 l 840 915 q 789 898 813 915 q 765 844 765 881 l 765 282 q 688 58 765 132 q 461 -17 611 -17 q 322 1 385 -17 q 213 56 258 19 q 143 148 168 93 q 118 276 118 203 l 118 915 l 43 915 l 43 938 l 417 938 l 417 915 l 342 915 l 342 229 q 351 147 342 185 q 382 83 360 110 q 442 40 404 56 q 540 25 481 25 q 615 41 579 25 q 679 89 651 57 q 724 169 707 121 q 740 281 740 217 l 740 844 q 718 898 740 881 q 667 915 696 915 "},"":{"ha":868,"x_min":43,"x_max":840,"o":"m 432 1099 q 407 1038 432 1063 q 346 1013 382 1013 q 285 1038 310 1013 q 260 1099 260 1063 q 285 1160 260 1135 q 346 1185 310 1185 q 407 1160 382 1185 q 432 1099 432 1135 m 676 1099 q 651 1038 676 1063 q 590 1013 626 1013 q 529 1038 554 1013 q 504 1099 504 1063 q 529 1160 504 1135 q 590 1185 554 1185 q 651 1160 626 1185 q 676 1099 676 1135 m 667 915 l 667 938 l 840 938 l 840 915 q 789 898 813 915 q 765 844 765 881 l 765 282 q 688 58 765 132 q 461 -17 611 -17 q 322 1 385 -17 q 213 56 258 19 q 143 148 168 93 q 118 276 118 203 l 118 915 l 43 915 l 43 938 l 417 938 l 417 915 l 342 915 l 342 229 q 351 147 342 185 q 382 83 360 110 q 442 40 404 56 q 540 25 481 25 q 615 41 579 25 q 679 89 651 57 q 724 169 707 121 q 740 281 740 217 l 740 844 q 718 898 740 881 q 667 915 696 915 "},"":{"ha":932,"x_min":29,"x_max":915,"o":"m 681 938 l 915 938 l 915 915 q 865 908 885 915 q 831 890 844 901 q 807 863 817 878 q 789 831 797 847 l 600 447 l 600 22 l 675 22 l 675 0 l 301 0 l 301 22 l 376 22 l 376 411 l 103 917 l 29 917 l 29 939 l 407 939 l 407 917 l 332 917 l 571 464 l 751 831 q 763 872 763 853 q 745 903 763 892 q 681 915 728 915 l 681 938 m 611 1178 l 731 1178 l 528 974 l 507 985 l 611 1178 "},"":{"ha":807,"x_min":44,"x_max":771,"o":"m 343 749 l 479 749 q 592 733 539 749 q 684 687 644 718 q 747 607 724 656 q 771 490 771 558 q 747 375 771 422 q 684 299 724 328 q 592 256 644 269 q 479 243 539 243 l 343 243 l 343 22 l 418 22 l 418 0 l 44 0 l 44 22 l 119 22 l 119 915 l 44 915 l 44 938 l 418 938 l 418 915 l 343 915 l 343 749 m 393 265 q 515 324 482 265 q 549 490 549 382 q 540 590 549 546 q 513 665 532 635 q 461 710 493 694 q 381 726 429 726 l 343 726 l 343 265 l 393 265 "},"":{"ha":813,"x_min":29,"x_max":769,"o":"m 29 22 l 104 22 l 104 522 l 29 522 l 29 544 l 104 544 l 104 647 q 187 861 104 789 q 447 933 269 933 q 596 877 546 933 q 646 718 646 821 q 626 610 646 653 q 586 536 607 568 q 576 515 576 521 q 589 501 576 506 q 694 445 657 475 q 747 384 731 415 q 767 321 764 353 q 769 256 769 289 q 757 127 769 179 q 719 43 744 75 q 657 -3 694 11 q 569 -17 619 -17 q 482 6 517 -17 q 447 78 447 28 q 465 124 447 108 q 501 139 482 139 q 536 126 521 139 q 551 86 551 113 q 539 47 551 58 q 511 32 526 35 q 508 26 508 32 q 518 18 508 22 q 579 8 539 8 q 634 17 608 8 q 678 42 660 26 q 708 78 697 57 q 719 124 719 99 q 697 189 719 154 q 640 255 674 224 q 565 311 606 286 q 490 347 525 336 q 451 389 451 360 q 489 460 451 418 q 538 517 514 488 q 581 578 563 547 q 610 644 599 610 q 621 718 621 679 q 576 858 621 807 q 447 908 531 908 q 394 901 418 908 q 351 874 369 894 q 323 819 333 854 q 313 726 313 783 l 313 22 l 388 22 l 388 0 l 29 0 l 29 22 "},"":{"ha":747,"x_min":26,"x_max":719,"o":"m 122 900 l 260 900 l 372 686 l 350 674 l 122 900 m 319 607 q 453 597 399 607 q 544 561 508 586 q 595 496 579 536 q 611 397 611 456 l 611 106 q 619 53 611 72 q 654 35 626 35 q 687 50 678 35 q 700 86 696 65 q 711 99 701 99 q 719 88 719 99 q 715 54 719 72 q 694 21 710 36 q 649 -6 678 6 q 569 -17 619 -17 q 461 5 499 -17 q 411 56 424 26 q 384 32 400 44 q 347 8 368 19 q 299 -10 326 -3 q 238 -17 272 -17 q 145 -2 185 -17 q 79 38 106 13 q 40 97 53 63 q 26 168 26 131 q 40 240 26 204 q 83 303 54 275 q 153 348 111 331 q 253 365 196 365 l 403 365 l 403 476 q 388 554 403 526 q 321 582 372 582 q 243 574 264 582 q 222 556 222 567 q 232 542 222 547 q 258 490 258 525 q 256 469 258 482 q 244 447 253 457 q 222 428 236 436 q 183 421 207 421 q 131 438 154 421 q 108 496 108 456 q 168 579 108 551 q 319 607 228 607 m 403 340 l 346 340 q 265 293 289 340 q 240 169 240 246 q 255 58 240 92 q 304 24 269 24 q 329 31 313 24 q 363 48 346 38 q 391 72 379 58 q 403 97 403 85 l 403 340 "},"":{"ha":747,"x_min":26,"x_max":719,"o":"m 375 900 l 513 900 l 285 674 l 263 686 l 375 900 m 319 607 q 453 597 399 607 q 544 561 508 586 q 595 496 579 536 q 611 397 611 456 l 611 106 q 619 53 611 72 q 654 35 626 35 q 687 50 678 35 q 700 86 696 65 q 711 99 701 99 q 719 88 719 99 q 715 54 719 72 q 694 21 710 36 q 649 -6 678 6 q 569 -17 619 -17 q 461 5 499 -17 q 411 56 424 26 q 384 32 400 44 q 347 8 368 19 q 299 -10 326 -3 q 238 -17 272 -17 q 145 -2 185 -17 q 79 38 106 13 q 40 97 53 63 q 26 168 26 131 q 40 240 26 204 q 83 303 54 275 q 153 348 111 331 q 253 365 196 365 l 403 365 l 403 476 q 388 554 403 526 q 321 582 372 582 q 243 574 264 582 q 222 556 222 567 q 232 542 222 547 q 258 490 258 525 q 256 469 258 482 q 244 447 253 457 q 222 428 236 436 q 183 421 207 421 q 131 438 154 421 q 108 496 108 456 q 168 579 108 551 q 319 607 228 607 m 403 340 l 346 340 q 265 293 289 340 q 240 169 240 246 q 255 58 240 92 q 304 24 269 24 q 329 31 313 24 q 363 48 346 38 q 391 72 379 58 q 403 97 403 85 l 403 340 "},"":{"ha":747,"x_min":26,"x_max":719,"o":"m 514 699 l 504 694 l 325 804 l 147 694 l 139 699 l 293 899 l 358 899 l 514 699 m 319 607 q 453 597 399 607 q 544 561 508 586 q 595 496 579 536 q 611 397 611 456 l 611 106 q 619 53 611 72 q 654 35 626 35 q 687 50 678 35 q 700 86 696 65 q 711 99 701 99 q 719 88 719 99 q 715 54 719 72 q 694 21 710 36 q 649 -6 678 6 q 569 -17 619 -17 q 461 5 499 -17 q 411 56 424 26 q 384 32 400 44 q 347 8 368 19 q 299 -10 326 -3 q 238 -17 272 -17 q 145 -2 185 -17 q 79 38 106 13 q 40 97 53 63 q 26 168 26 131 q 40 240 26 204 q 83 303 54 275 q 153 348 111 331 q 253 365 196 365 l 403 365 l 403 476 q 388 554 403 526 q 321 582 372 582 q 243 574 264 582 q 222 556 222 567 q 232 542 222 547 q 258 490 258 525 q 256 469 258 482 q 244 447 253 457 q 222 428 236 436 q 183 421 207 421 q 131 438 154 421 q 108 496 108 456 q 168 579 108 551 q 319 607 228 607 m 403 340 l 346 340 q 265 293 289 340 q 240 169 240 246 q 255 58 240 92 q 304 24 269 24 q 329 31 313 24 q 363 48 346 38 q 391 72 379 58 q 403 97 403 85 l 403 340 "},"":{"ha":747,"x_min":26,"x_max":719,"o":"m 382 826 q 429 808 406 817 q 476 799 453 799 q 517 810 508 799 q 528 838 526 822 q 544 857 531 857 q 558 836 558 857 q 553 807 558 824 q 532 775 547 790 q 490 749 517 760 q 421 738 464 738 q 358 744 388 738 q 290 765 328 750 q 242 788 263 776 q 201 800 222 800 q 160 786 176 800 q 140 750 143 772 q 126 731 140 731 q 111 754 111 731 q 119 786 111 768 q 144 820 128 804 q 188 847 161 836 q 251 858 214 858 q 317 849 283 858 q 382 826 350 840 m 319 607 q 453 597 399 607 q 544 561 508 586 q 595 496 579 536 q 611 397 611 456 l 611 106 q 619 53 611 72 q 654 35 626 35 q 687 50 678 35 q 700 86 696 65 q 711 99 701 99 q 719 88 719 99 q 715 54 719 72 q 694 21 710 36 q 649 -6 678 6 q 569 -17 619 -17 q 461 5 499 -17 q 411 56 424 26 q 384 32 400 44 q 347 8 368 19 q 299 -10 326 -3 q 238 -17 272 -17 q 145 -2 185 -17 q 79 38 106 13 q 40 97 53 63 q 26 168 26 131 q 40 240 26 204 q 83 303 54 275 q 153 348 111 331 q 253 365 196 365 l 403 365 l 403 476 q 388 554 403 526 q 321 582 372 582 q 243 574 264 582 q 222 556 222 567 q 232 542 222 547 q 258 490 258 525 q 256 469 258 482 q 244 447 253 457 q 222 428 236 436 q 183 421 207 421 q 131 438 154 421 q 108 496 108 456 q 168 579 108 551 q 319 607 228 607 m 403 340 l 346 340 q 265 293 289 340 q 240 169 240 246 q 255 58 240 92 q 304 24 269 24 q 329 31 313 24 q 363 48 346 38 q 391 72 379 58 q 403 97 403 85 l 403 340 "},"":{"ha":747,"x_min":26,"x_max":719,"o":"m 306 801 q 278 733 306 761 q 210 706 250 706 q 142 733 169 706 q 114 801 114 761 q 142 869 114 842 q 210 897 169 897 q 278 869 250 897 q 306 801 306 842 m 572 801 q 544 733 572 761 q 476 706 517 706 q 408 733 436 706 q 381 801 381 761 q 408 869 381 842 q 476 897 436 897 q 544 869 517 897 q 572 801 572 842 m 319 607 q 453 597 399 607 q 544 561 508 586 q 595 496 579 536 q 611 397 611 456 l 611 106 q 619 53 611 72 q 654 35 626 35 q 687 50 678 35 q 700 86 696 65 q 711 99 701 99 q 719 88 719 99 q 715 54 719 72 q 694 21 710 36 q 649 -6 678 6 q 569 -17 619 -17 q 461 5 499 -17 q 411 56 424 26 q 384 32 400 44 q 347 8 368 19 q 299 -10 326 -3 q 238 -17 272 -17 q 145 -2 185 -17 q 79 38 106 13 q 40 97 53 63 q 26 168 26 131 q 40 240 26 204 q 83 303 54 275 q 153 348 111 331 q 253 365 196 365 l 403 365 l 403 476 q 388 554 403 526 q 321 582 372 582 q 243 574 264 582 q 222 556 222 567 q 232 542 222 547 q 258 490 258 525 q 256 469 258 482 q 244 447 253 457 q 222 428 236 436 q 183 421 207 421 q 131 438 154 421 q 108 496 108 456 q 168 579 108 551 q 319 607 228 607 m 403 340 l 346 340 q 265 293 289 340 q 240 169 240 246 q 255 58 240 92 q 304 24 269 24 q 329 31 313 24 q 363 48 346 38 q 391 72 379 58 q 403 97 403 85 l 403 340 "},"":{"ha":747,"x_min":26,"x_max":719,"o":"m 461 804 q 424 716 461 753 q 336 679 388 679 q 248 716 285 679 q 211 804 211 753 q 248 892 211 856 q 336 929 285 929 q 424 892 388 929 q 461 804 461 856 m 238 804 q 266 734 238 763 q 336 706 294 706 q 406 734 378 706 q 435 804 435 763 q 406 874 435 846 q 336 903 378 903 q 266 874 294 903 q 238 804 238 846 m 319 607 q 453 597 399 607 q 544 561 508 586 q 595 496 579 536 q 611 397 611 456 l 611 106 q 619 53 611 72 q 654 35 626 35 q 687 50 678 35 q 700 86 696 65 q 711 99 701 99 q 719 88 719 99 q 715 54 719 72 q 694 21 710 36 q 649 -6 678 6 q 569 -17 619 -17 q 461 5 499 -17 q 411 56 424 26 q 384 32 400 44 q 347 8 368 19 q 299 -10 326 -3 q 238 -17 272 -17 q 145 -2 185 -17 q 79 38 106 13 q 40 97 53 63 q 26 168 26 131 q 40 240 26 204 q 83 303 54 275 q 153 348 111 331 q 253 365 196 365 l 403 365 l 403 476 q 388 554 403 526 q 321 582 372 582 q 243 574 264 582 q 222 556 222 567 q 232 542 222 547 q 258 490 258 525 q 256 469 258 482 q 244 447 253 457 q 222 428 236 436 q 183 421 207 421 q 131 438 154 421 q 108 496 108 456 q 168 579 108 551 q 319 607 228 607 m 403 340 l 346 340 q 265 293 289 340 q 240 169 240 246 q 255 58 240 92 q 304 24 269 24 q 329 31 313 24 q 363 48 346 38 q 391 72 379 58 q 403 97 403 85 l 403 340 "},"":{"ha":1064,"x_min":26,"x_max":1026,"o":"m 619 472 l 619 369 l 794 369 l 794 472 q 708 583 794 583 q 619 472 619 583 m 403 340 l 346 340 q 265 293 289 340 q 240 169 240 246 q 255 58 240 92 q 304 24 269 24 q 329 31 313 24 q 363 48 346 38 q 391 72 379 58 q 403 97 403 85 l 403 340 m 411 56 q 384 32 400 44 q 347 8 368 19 q 299 -10 326 -3 q 238 -17 272 -17 q 145 -2 185 -17 q 79 38 106 13 q 40 97 53 63 q 26 168 26 131 q 40 240 26 204 q 83 303 54 275 q 153 348 111 331 q 253 365 196 365 l 403 365 l 403 476 q 388 554 403 526 q 321 582 372 582 q 243 574 264 582 q 222 556 222 567 q 232 542 222 547 q 258 490 258 525 q 256 469 258 482 q 244 447 253 457 q 222 428 236 436 q 183 421 207 421 q 131 438 154 421 q 108 496 108 456 q 168 579 108 551 q 319 607 228 607 q 449 593 396 607 q 539 556 503 579 q 616 592 574 576 q 710 608 658 608 q 857 581 799 608 q 951 513 915 553 q 1003 426 986 472 q 1026 343 1021 381 l 619 343 l 619 151 q 626 83 619 110 q 644 40 632 56 q 672 19 656 25 q 710 14 689 14 q 802 27 761 14 q 876 63 843 40 q 931 113 908 85 q 968 172 954 142 q 979 190 975 185 q 992 196 983 196 q 1001 182 1001 196 q 997 164 1001 174 q 958 95 983 128 q 895 38 932 63 q 812 -2 858 13 q 710 -17 765 -17 q 615 -14 661 -17 q 530 -3 569 -11 q 460 18 490 4 q 411 56 429 32 "},"":{"ha":619,"x_min":18,"x_max":613,"o":"m 364 -15 l 353 -65 q 373 -74 361 -68 q 395 -91 385 -81 q 413 -116 406 -101 q 421 -149 421 -131 q 396 -204 421 -182 q 329 -226 371 -226 q 277 -209 300 -226 q 239 -168 254 -192 q 233 -153 233 -158 q 238 -147 233 -147 q 254 -158 243 -147 q 280 -178 265 -172 q 310 -185 294 -185 q 347 -173 331 -185 q 364 -136 364 -161 q 349 -96 364 -110 q 318 -75 333 -82 l 332 -17 q 194 10 253 -17 q 97 81 136 38 q 38 181 57 125 q 18 296 18 238 q 39 410 18 354 q 101 510 60 467 q 200 581 142 554 q 333 608 258 608 q 453 595 407 608 q 526 561 500 582 q 561 517 551 540 q 571 472 571 493 q 549 410 571 436 q 483 383 526 383 q 420 407 443 383 q 397 463 397 431 q 419 521 397 499 q 471 547 440 543 q 438 569 471 556 q 351 583 406 583 q 294 571 317 583 q 256 531 271 558 q 235 459 242 503 q 229 351 229 415 l 229 240 q 235 132 229 175 q 257 63 242 89 q 297 25 272 36 q 357 14 321 14 q 433 27 396 14 q 500 63 469 40 q 553 115 531 86 q 586 178 575 144 q 600 192 590 192 q 613 176 613 192 q 611 168 613 171 q 522 42 586 93 q 364 -15 458 -8 "},"":{"ha":667,"x_min":19,"x_max":651,"o":"m 104 900 l 242 900 l 354 686 l 332 674 l 104 900 m 651 343 l 244 343 l 244 151 q 251 83 244 110 q 269 40 257 56 q 297 19 281 25 q 335 14 314 14 q 427 27 386 14 q 500 63 468 40 q 555 113 532 85 q 593 172 578 142 q 604 190 600 185 q 617 196 608 196 q 626 182 626 196 q 622 164 626 174 q 583 95 608 128 q 520 38 557 63 q 437 -2 483 13 q 335 -17 390 -17 q 197 10 256 -17 q 98 81 138 38 q 39 181 58 125 q 19 296 19 238 q 39 410 19 354 q 98 510 58 467 q 197 581 138 554 q 335 608 256 608 q 482 581 424 608 q 576 513 540 553 q 628 426 611 472 q 651 343 646 381 m 244 472 l 244 369 l 419 369 l 419 472 q 333 583 419 583 q 244 472 244 583 "},"":{"ha":667,"x_min":19,"x_max":651,"o":"m 415 900 l 553 900 l 325 674 l 303 686 l 415 900 m 651 343 l 244 343 l 244 151 q 251 83 244 110 q 269 40 257 56 q 297 19 281 25 q 335 14 314 14 q 427 27 386 14 q 500 63 468 40 q 555 113 532 85 q 593 172 578 142 q 604 190 600 185 q 617 196 608 196 q 626 182 626 196 q 622 164 626 174 q 583 95 608 128 q 520 38 557 63 q 437 -2 483 13 q 335 -17 390 -17 q 197 10 256 -17 q 98 81 138 38 q 39 181 58 125 q 19 296 19 238 q 39 410 19 354 q 98 510 58 467 q 197 581 138 554 q 335 608 256 608 q 482 581 424 608 q 576 513 540 553 q 628 426 611 472 q 651 343 646 381 m 244 472 l 244 369 l 419 369 l 419 472 q 333 583 419 583 q 244 472 244 583 "},"":{"ha":667,"x_min":19,"x_max":651,"o":"m 510 699 l 500 694 l 321 804 l 143 694 l 135 699 l 289 899 l 354 899 l 510 699 m 651 343 l 244 343 l 244 151 q 251 83 244 110 q 269 40 257 56 q 297 19 281 25 q 335 14 314 14 q 427 27 386 14 q 500 63 468 40 q 555 113 532 85 q 593 172 578 142 q 604 190 600 185 q 617 196 608 196 q 626 182 626 196 q 622 164 626 174 q 583 95 608 128 q 520 38 557 63 q 437 -2 483 13 q 335 -17 390 -17 q 197 10 256 -17 q 98 81 138 38 q 39 181 58 125 q 19 296 19 238 q 39 410 19 354 q 98 510 58 467 q 197 581 138 554 q 335 608 256 608 q 482 581 424 608 q 576 513 540 553 q 628 426 611 472 q 651 343 646 381 m 244 472 l 244 369 l 419 369 l 419 472 q 333 583 419 583 q 244 472 244 583 "},"":{"ha":667,"x_min":19,"x_max":651,"o":"m 293 801 q 265 733 293 761 q 197 706 238 706 q 129 733 157 706 q 101 801 101 761 q 129 869 101 842 q 197 897 157 897 q 265 869 238 897 q 293 801 293 842 m 560 801 q 532 733 560 761 q 464 706 504 706 q 396 733 424 706 q 368 801 368 761 q 396 869 368 842 q 464 897 424 897 q 532 869 504 897 q 560 801 560 842 m 651 343 l 244 343 l 244 151 q 251 83 244 110 q 269 40 257 56 q 297 19 281 25 q 335 14 314 14 q 427 27 386 14 q 500 63 468 40 q 555 113 532 85 q 593 172 578 142 q 604 190 600 185 q 617 196 608 196 q 626 182 626 196 q 622 164 626 174 q 583 95 608 128 q 520 38 557 63 q 437 -2 483 13 q 335 -17 390 -17 q 197 10 256 -17 q 98 81 138 38 q 39 181 58 125 q 19 296 19 238 q 39 410 19 354 q 98 510 58 467 q 197 581 138 554 q 335 608 256 608 q 482 581 424 608 q 576 513 540 553 q 628 426 611 472 q 651 343 646 381 m 244 472 l 244 369 l 419 369 l 419 472 q 333 583 419 583 q 244 472 244 583 "},"":{"ha":425,"x_min":-21,"x_max":396,"o":"m -21 900 l 117 900 l 229 686 l 206 674 l -21 900 m 321 22 l 396 22 l 396 0 l 38 0 l 38 22 l 113 22 l 113 586 l 38 574 l 38 597 l 321 642 l 321 22 "},"":{"ha":425,"x_min":38,"x_max":432,"o":"m 294 900 l 432 900 l 204 674 l 182 686 l 294 900 m 321 22 l 396 22 l 396 0 l 38 0 l 38 22 l 113 22 l 113 586 l 38 574 l 38 597 l 321 642 l 321 22 "},"":{"ha":425,"x_min":26,"x_max":401,"o":"m 401 699 l 393 694 l 214 804 l 36 694 l 26 699 l 181 899 l 246 899 l 401 699 m 321 22 l 396 22 l 396 0 l 38 0 l 38 22 l 113 22 l 113 586 l 38 574 l 38 597 l 321 642 l 321 22 "},"":{"ha":425,"x_min":-15,"x_max":443,"o":"m 321 22 l 396 22 l 396 0 l 38 0 l 38 22 l 113 22 l 113 586 l 38 574 l 38 597 l 321 642 l 321 22 m 176 801 q 149 733 176 761 q 81 706 121 706 q 13 733 40 706 q -15 801 -15 761 q 13 869 -15 842 q 81 897 40 897 q 149 869 121 897 q 176 801 176 842 m 443 801 q 415 733 443 761 q 347 706 388 706 q 279 733 307 706 q 251 801 251 761 q 279 869 251 842 q 347 897 307 897 q 415 869 388 897 q 443 801 443 842 "},"":{"ha":669,"x_min":22,"x_max":647,"o":"m 238 349 l 238 238 q 240 138 238 181 q 253 65 243 94 q 282 22 263 36 q 335 7 301 7 q 388 22 368 7 q 417 65 407 36 q 429 138 426 94 q 432 238 432 181 l 432 349 q 429 449 432 404 q 417 523 426 493 q 388 569 407 553 q 335 585 368 585 q 282 569 301 585 q 253 523 263 553 q 240 449 243 493 q 238 349 238 404 m 647 297 q 628 182 647 239 q 570 81 608 125 q 473 10 532 38 q 335 -17 414 -17 q 197 10 256 -17 q 100 80 139 36 q 42 179 61 124 q 22 293 22 235 q 42 408 22 351 q 100 510 61 465 q 198 581 139 554 q 335 608 257 608 q 360 607 347 608 q 383 606 372 606 q 336 708 365 656 q 271 792 307 760 l 222 719 l 169 750 l 222 829 q 111 881 181 858 l 133 917 q 197 900 167 910 q 254 878 226 890 l 311 961 l 364 931 l 308 849 q 413 769 354 819 q 523 651 471 719 q 611 493 575 582 q 647 297 647 404 "},"":{"ha":782,"x_min":21,"x_max":768,"o":"m 426 826 q 474 808 450 817 q 521 799 497 799 q 562 810 553 799 q 572 838 571 822 q 589 857 575 857 q 603 836 603 857 q 597 807 603 824 q 576 775 592 790 q 535 749 561 760 q 465 738 508 738 q 402 744 432 738 q 335 765 372 750 q 287 788 307 776 q 246 800 267 800 q 204 786 221 800 q 185 750 188 772 q 171 731 185 731 q 156 754 156 731 q 164 786 156 768 q 189 820 172 804 q 232 847 206 836 q 296 858 258 858 q 361 849 328 858 q 426 826 394 840 m 693 22 l 768 22 l 768 0 l 425 0 l 425 22 l 485 22 l 485 447 q 474 542 485 511 q 425 572 464 572 q 385 556 406 572 q 346 516 364 540 q 316 462 328 492 q 304 404 304 432 l 304 22 l 364 22 l 364 0 l 21 0 l 21 22 l 96 22 l 96 571 l 21 558 l 21 582 l 308 631 l 308 501 q 333 543 318 522 q 369 579 349 564 q 419 604 390 594 q 483 614 447 614 q 563 605 525 614 q 630 574 601 596 q 676 513 658 551 q 693 415 693 474 l 693 22 "},"":{"ha":669,"x_min":22,"x_max":647,"o":"m 104 900 l 242 900 l 354 686 l 332 674 l 104 900 m 22 296 q 42 410 22 354 q 99 510 61 467 q 197 581 138 554 q 335 608 256 608 q 473 581 414 608 q 570 510 532 554 q 628 410 608 467 q 647 296 647 354 q 628 181 647 238 q 570 81 608 125 q 473 10 532 38 q 335 -17 414 -17 q 197 10 256 -17 q 99 81 138 38 q 42 181 61 125 q 22 296 22 238 m 238 347 l 238 239 q 240 139 238 182 q 253 67 243 96 q 282 23 263 38 q 335 8 301 8 q 388 23 368 8 q 417 67 407 38 q 429 139 426 96 q 432 239 432 182 l 432 347 q 429 447 432 403 q 417 522 426 492 q 388 567 407 551 q 335 583 368 583 q 282 567 301 583 q 253 522 263 551 q 240 447 243 492 q 238 347 238 403 "},"":{"ha":669,"x_min":22,"x_max":647,"o":"m 401 900 l 539 900 l 313 674 l 290 686 l 401 900 m 22 296 q 42 410 22 354 q 99 510 61 467 q 197 581 138 554 q 335 608 256 608 q 473 581 414 608 q 570 510 532 554 q 628 410 608 467 q 647 296 647 354 q 628 181 647 238 q 570 81 608 125 q 473 10 532 38 q 335 -17 414 -17 q 197 10 256 -17 q 99 81 138 38 q 42 181 61 125 q 22 296 22 238 m 238 347 l 238 239 q 240 139 238 182 q 253 67 243 96 q 282 23 263 38 q 335 8 301 8 q 388 23 368 8 q 417 67 407 38 q 429 139 426 96 q 432 239 432 182 l 432 347 q 429 447 432 403 q 417 522 426 492 q 388 567 407 551 q 335 583 368 583 q 282 567 301 583 q 253 522 263 551 q 240 447 243 492 q 238 347 238 403 "},"":{"ha":669,"x_min":22,"x_max":647,"o":"m 517 699 l 508 694 l 329 804 l 151 694 l 142 699 l 296 899 l 361 899 l 517 699 m 22 296 q 42 410 22 354 q 99 510 61 467 q 197 581 138 554 q 335 608 256 608 q 473 581 414 608 q 570 510 532 554 q 628 410 608 467 q 647 296 647 354 q 628 181 647 238 q 570 81 608 125 q 473 10 532 38 q 335 -17 414 -17 q 197 10 256 -17 q 99 81 138 38 q 42 181 61 125 q 22 296 22 238 m 238 347 l 238 239 q 240 139 238 182 q 253 67 243 96 q 282 23 263 38 q 335 8 301 8 q 388 23 368 8 q 417 67 407 38 q 429 139 426 96 q 432 239 432 182 l 432 347 q 429 447 432 403 q 417 522 426 492 q 388 567 407 551 q 335 583 368 583 q 282 567 301 583 q 253 522 263 551 q 240 447 243 492 q 238 347 238 403 "},"":{"ha":669,"x_min":22,"x_max":647,"o":"m 368 826 q 415 808 392 817 q 463 799 439 799 q 503 810 494 799 q 514 838 513 822 q 531 857 517 857 q 544 836 544 857 q 539 807 544 824 q 518 775 533 790 q 476 749 503 760 q 407 738 450 738 q 344 744 374 738 q 276 765 314 750 q 228 788 249 776 q 188 800 208 800 q 146 786 163 800 q 126 750 129 772 q 113 731 126 731 q 97 754 97 731 q 106 786 97 768 q 131 820 114 804 q 174 847 147 836 q 238 858 200 858 q 303 849 269 858 q 368 826 336 840 m 22 296 q 42 410 22 354 q 99 510 61 467 q 197 581 138 554 q 335 608 256 608 q 473 581 414 608 q 570 510 532 554 q 628 410 608 467 q 647 296 647 354 q 628 181 647 238 q 570 81 608 125 q 473 10 532 38 q 335 -17 414 -17 q 197 10 256 -17 q 99 81 138 38 q 42 181 61 125 q 22 296 22 238 m 238 347 l 238 239 q 240 139 238 182 q 253 67 243 96 q 282 23 263 38 q 335 8 301 8 q 388 23 368 8 q 417 67 407 38 q 429 139 426 96 q 432 239 432 182 l 432 347 q 429 447 432 403 q 417 522 426 492 q 388 567 407 551 q 335 583 368 583 q 282 567 301 583 q 253 522 263 551 q 240 447 243 492 q 238 347 238 403 "},"":{"ha":669,"x_min":22,"x_max":647,"o":"m 296 801 q 268 733 296 761 q 200 706 240 706 q 132 733 160 706 q 104 801 104 761 q 132 869 104 842 q 200 897 160 897 q 268 869 240 897 q 296 801 296 842 m 563 801 q 535 733 563 761 q 467 706 507 706 q 399 733 426 706 q 371 801 371 761 q 399 869 371 842 q 467 897 426 897 q 535 869 507 897 q 563 801 563 842 m 22 296 q 42 410 22 354 q 99 510 61 467 q 197 581 138 554 q 335 608 256 608 q 473 581 414 608 q 570 510 532 554 q 628 410 608 467 q 647 296 647 354 q 628 181 647 238 q 570 81 608 125 q 473 10 532 38 q 335 -17 414 -17 q 197 10 256 -17 q 99 81 138 38 q 42 181 61 125 q 22 296 22 238 m 238 347 l 238 239 q 240 139 238 182 q 253 67 243 96 q 282 23 263 38 q 335 8 301 8 q 388 23 368 8 q 417 67 407 38 q 429 139 426 96 q 432 239 432 182 l 432 347 q 429 447 432 403 q 417 522 426 492 q 388 567 407 551 q 335 583 368 583 q 282 567 301 583 q 253 522 263 551 q 240 447 243 492 q 238 347 238 403 "},"":{"ha":515,"x_min":78,"x_max":447,"o":"m 447 399 l 447 339 l 78 339 l 78 399 l 447 399 m 336 165 q 314 111 336 133 q 260 89 292 89 q 206 111 228 89 q 183 165 183 133 q 206 219 183 197 q 260 242 228 242 q 314 219 292 242 q 336 165 336 197 m 336 561 q 314 507 336 529 q 260 485 292 485 q 206 507 228 485 q 183 561 183 529 q 206 615 183 593 q 260 638 228 638 q 314 615 292 638 q 336 561 336 593 "},"":{"ha":669,"x_min":22,"x_max":647,"o":"m 244 101 l 397 558 q 335 583 374 583 q 282 567 301 583 q 253 522 263 551 q 240 447 243 492 q 238 347 238 403 l 238 239 q 239 163 238 197 q 244 101 240 129 m 414 528 l 257 57 q 335 8 276 8 q 388 23 368 8 q 417 67 407 38 q 429 139 426 96 q 432 239 432 182 l 432 347 q 428 452 432 407 q 414 528 425 497 m 436 594 q 530 549 490 579 q 595 478 569 518 q 634 390 621 438 q 647 296 647 343 q 628 181 647 238 q 570 81 608 125 q 473 10 532 38 q 335 -17 414 -17 q 236 -4 279 -17 l 211 -79 l 186 -72 l 211 4 q 127 53 163 22 q 69 122 92 83 q 34 206 46 161 q 22 296 22 250 q 42 410 22 354 q 99 510 61 467 q 197 581 138 554 q 335 608 256 608 q 411 600 375 608 l 433 665 l 457 656 l 436 594 "},"":{"ha":799,"x_min":36,"x_max":781,"o":"m 176 900 l 314 900 l 425 686 l 403 674 l 176 900 m 111 571 l 36 558 l 36 582 l 319 629 l 319 142 q 333 57 319 81 q 381 33 346 33 q 426 51 404 33 q 463 96 447 69 q 489 152 479 122 q 499 206 499 182 l 499 571 l 425 558 l 425 582 l 707 629 l 707 22 l 781 22 l 781 0 l 496 0 l 496 93 q 434 17 475 50 q 319 -17 393 -17 q 111 210 111 -17 l 111 571 "},"":{"ha":799,"x_min":36,"x_max":781,"o":"m 492 900 l 629 900 l 401 674 l 379 686 l 492 900 m 111 571 l 36 558 l 36 582 l 319 629 l 319 142 q 333 57 319 81 q 381 33 346 33 q 426 51 404 33 q 463 96 447 69 q 489 152 479 122 q 499 206 499 182 l 499 571 l 425 558 l 425 582 l 707 629 l 707 22 l 781 22 l 781 0 l 496 0 l 496 93 q 434 17 475 50 q 319 -17 393 -17 q 111 210 111 -17 l 111 571 "},"":{"ha":799,"x_min":36,"x_max":781,"o":"m 596 699 l 588 694 l 408 804 l 231 694 l 221 699 l 375 899 l 440 899 l 596 699 m 111 571 l 36 558 l 36 582 l 319 629 l 319 142 q 333 57 319 81 q 381 33 346 33 q 426 51 404 33 q 463 96 447 69 q 489 152 479 122 q 499 206 499 182 l 499 571 l 425 558 l 425 582 l 707 629 l 707 22 l 781 22 l 781 0 l 496 0 l 496 93 q 434 17 475 50 q 319 -17 393 -17 q 111 210 111 -17 l 111 571 "},"":{"ha":799,"x_min":36,"x_max":781,"o":"m 372 801 q 344 733 372 761 q 276 706 317 706 q 208 733 236 706 q 181 801 181 761 q 208 869 181 842 q 276 897 236 897 q 344 869 317 897 q 372 801 372 842 m 639 801 q 611 733 639 761 q 543 706 583 706 q 475 733 503 706 q 447 801 447 761 q 475 869 447 842 q 543 897 503 897 q 611 869 583 897 q 639 801 639 842 m 111 571 l 36 558 l 36 582 l 319 629 l 319 142 q 333 57 319 81 q 381 33 346 33 q 426 51 404 33 q 463 96 447 69 q 489 152 479 122 q 499 206 499 182 l 499 571 l 425 558 l 425 582 l 707 629 l 707 22 l 781 22 l 781 0 l 496 0 l 496 93 q 434 17 475 50 q 319 -17 393 -17 q 111 210 111 -17 l 111 571 "},"":{"ha":740,"x_min":25,"x_max":721,"o":"m 442 8 q 426 -38 435 -11 q 409 -95 418 -65 q 390 -156 400 -125 q 371 -215 381 -187 q 340 -285 356 -257 q 306 -330 325 -312 q 258 -355 286 -347 q 190 -362 231 -362 q 117 -339 150 -362 q 83 -268 83 -315 q 109 -210 83 -233 q 174 -186 135 -186 q 235 -210 213 -186 q 257 -267 257 -235 q 248 -310 257 -296 q 225 -335 239 -325 q 303 -295 276 -335 q 353 -192 331 -256 q 381 -108 371 -140 q 397 -47 390 -76 l 99 575 l 25 575 l 25 597 l 383 597 l 383 575 l 308 575 l 488 197 l 611 521 q 615 543 615 529 q 603 565 615 554 q 557 575 590 575 l 557 597 l 721 597 l 721 575 q 671 563 693 575 q 638 521 649 551 l 442 8 m 496 900 l 633 900 l 407 674 l 385 686 l 496 900 "},"":{"ha":776,"x_min":39,"x_max":744,"o":"m 39 -375 l 39 -353 l 114 -353 l 114 910 l 39 896 l 39 918 l 322 971 l 322 533 q 372 585 338 561 q 471 608 407 608 q 590 581 539 608 q 676 510 642 554 q 727 411 710 467 q 744 297 744 356 q 727 183 744 239 q 676 83 710 126 q 590 13 642 39 q 471 -14 539 -14 q 377 15 414 -14 q 322 75 340 43 l 322 -353 l 397 -353 l 397 -375 l 39 -375 m 322 126 q 343 95 331 113 q 370 63 356 78 q 402 37 385 47 q 439 26 419 26 q 469 33 456 26 q 491 59 482 39 q 505 116 500 79 q 510 214 510 153 l 510 381 q 493 535 510 493 q 439 576 476 576 q 402 569 419 576 q 370 549 385 561 q 343 522 356 536 q 322 493 331 507 l 322 126 "},"":{"ha":740,"x_min":25,"x_max":721,"o":"m 369 801 q 342 733 369 761 q 274 706 314 706 q 206 733 233 706 q 178 801 178 761 q 206 869 178 842 q 274 897 233 897 q 342 869 314 897 q 369 801 369 842 m 636 801 q 608 733 636 761 q 540 706 581 706 q 472 733 500 706 q 444 801 444 761 q 472 869 444 842 q 540 897 500 897 q 608 869 581 897 q 636 801 636 842 m 442 8 q 426 -38 435 -11 q 409 -95 418 -65 q 390 -156 400 -125 q 371 -215 381 -187 q 340 -285 356 -257 q 306 -330 325 -312 q 258 -355 286 -347 q 190 -362 231 -362 q 117 -339 150 -362 q 83 -268 83 -315 q 109 -210 83 -233 q 174 -186 135 -186 q 235 -210 213 -186 q 257 -267 257 -235 q 248 -310 257 -296 q 225 -335 239 -325 q 303 -295 276 -335 q 353 -192 331 -256 q 381 -108 371 -140 q 397 -47 390 -76 l 99 575 l 25 575 l 25 597 l 383 597 l 383 575 l 308 575 l 488 197 l 611 521 q 615 543 615 529 q 603 565 615 554 q 557 575 590 575 l 557 597 l 721 597 l 721 575 q 671 563 693 575 q 638 521 649 551 l 442 8 "},"":{"ha":0,"x_min":0,"x_max":0,"o":""},"":{"ha":0,"x_min":0,"x_max":0,"o":""},"":{"ha":0,"x_min":0,"x_max":0,"o":""},"":{"ha":632,"x_min":78,"x_max":556,"o":"m 556 414 l 556 339 l 78 339 l 78 414 l 556 414 "},"":{"ha":544,"x_min":79,"x_max":471,"o":"m 471 363 l 471 318 l 244 318 l 181 172 l 136 172 l 200 318 l 79 318 l 79 363 l 217 363 l 264 475 l 79 475 l 79 519 l 285 519 l 344 665 l 390 665 l 331 519 l 471 519 l 471 475 l 310 475 l 261 363 l 471 363 "},"":{"ha":1249,"x_min":83,"x_max":1179,"o":"m 590 421 q 541 483 568 450 q 482 544 514 517 q 415 590 450 572 q 342 608 379 608 q 288 594 310 608 q 252 556 267 581 q 231 498 238 531 q 225 428 225 465 q 253 303 225 350 q 344 256 282 256 q 412 273 378 256 q 478 315 446 290 q 538 369 510 340 q 590 421 567 397 m 674 428 q 723 365 696 399 q 781 304 750 332 q 848 258 813 276 q 921 240 883 240 q 975 256 953 240 q 1011 299 997 272 q 1031 357 1025 325 q 1038 421 1038 389 q 1009 545 1038 497 q 918 593 981 593 q 843 576 878 593 q 778 533 808 558 q 722 479 747 508 q 674 428 696 450 m 975 667 q 1067 647 1028 667 q 1131 595 1106 628 q 1167 521 1156 563 q 1179 433 1179 479 q 1167 338 1179 383 q 1128 258 1156 293 q 1053 203 1100 224 q 939 182 1007 182 q 830 200 876 182 q 748 247 783 218 q 684 308 713 275 q 631 372 656 342 q 558 308 596 342 q 477 247 519 275 q 388 200 435 218 q 289 182 340 182 q 196 201 235 182 q 132 253 157 221 q 95 328 107 286 q 83 415 83 369 q 95 510 83 465 q 132 590 107 556 q 198 646 157 625 q 297 667 239 667 q 411 649 360 667 q 503 602 463 631 q 577 540 544 574 q 635 476 610 507 q 701 538 664 504 q 781 599 738 571 q 874 647 825 628 q 975 667 922 667 "},"":{"ha":456,"x_min":38,"x_max":410,"o":"m 403 746 l 403 672 l 142 500 l 403 329 l 403 251 l 38 500 l 403 746 m 410 232 l 410 172 l 47 172 l 47 232 l 410 232 "},"":{"ha":456,"x_min":64,"x_max":433,"o":"m 67 329 l 329 500 l 67 672 l 67 746 l 433 500 l 67 251 l 67 329 m 418 233 l 418 165 l 64 165 l 64 233 l 418 233 "},"":{"ha":522,"x_min":93,"x_max":468,"o":"m 93 493 l 468 493 l 468 465 l 93 465 l 93 493 m 158 868 q 153 871 153 868 q 163 879 153 874 q 233 914 200 892 q 289 958 265 936 l 342 958 l 342 553 l 376 553 l 376 539 l 214 539 l 214 553 l 249 553 l 249 897 q 208 881 232 889 q 167 869 183 872 q 158 868 164 868 m 156 354 q 184 406 156 382 q 268 429 213 429 q 372 401 339 429 q 406 326 406 372 q 377 259 406 285 q 306 231 349 233 q 344 221 325 228 q 379 201 364 214 q 403 168 394 188 q 413 122 413 149 q 374 28 413 58 q 265 -3 336 -3 q 175 26 206 -3 q 144 85 144 54 q 160 124 144 111 q 196 138 176 138 q 230 124 215 138 q 244 88 244 111 q 231 53 244 64 q 200 42 217 42 q 195 42 197 42 q 190 44 193 43 l 189 44 q 188 43 188 44 q 188 43 188 43 q 207 24 188 38 q 263 11 226 11 q 287 15 276 11 q 304 32 297 19 q 315 66 311 44 q 318 122 318 88 q 303 200 318 174 q 251 226 288 226 l 197 226 q 188 232 188 226 q 197 238 188 238 l 251 238 q 297 258 282 238 q 311 326 311 278 q 300 397 311 379 q 268 415 289 415 q 219 408 238 415 q 201 397 201 400 q 204 396 201 396 l 207 396 l 214 396 q 245 383 233 396 q 257 353 257 369 q 243 317 257 331 q 206 303 229 303 q 170 317 185 303 q 156 354 156 331 "},"":{"ha":522,"x_min":93,"x_max":468,"o":"m 93 489 l 468 489 l 468 461 l 93 461 l 93 489 m 365 418 l 365 151 l 424 151 l 424 114 l 365 114 l 365 7 l 400 7 l 400 -3 l 239 -3 l 239 7 l 272 7 l 272 114 l 132 114 l 132 128 q 215 276 168 199 q 303 418 263 354 l 365 418 m 272 151 l 272 344 q 212 245 244 299 q 158 151 179 192 l 272 151 m 158 868 q 153 871 153 868 q 163 879 153 874 q 233 914 200 892 q 289 958 265 936 l 342 958 l 342 553 l 376 553 l 376 539 l 214 539 l 214 553 l 249 553 l 249 897 q 208 881 232 889 q 167 869 183 872 q 158 868 164 868 "},"":{"ha":522,"x_min":93,"x_max":468,"o":"m 93 493 l 468 493 l 468 465 l 93 465 l 93 493 m 200 904 q 238 892 224 904 q 251 854 251 881 q 237 817 251 831 q 199 803 222 803 q 162 819 175 803 q 149 863 149 835 q 157 899 149 881 q 182 931 165 917 q 222 953 199 944 q 276 963 246 963 q 327 956 301 963 q 374 934 353 950 q 407 892 394 918 q 419 825 419 865 q 393 733 419 774 q 318 669 367 692 q 257 641 281 653 q 214 610 233 629 l 351 610 q 397 624 383 610 q 417 661 410 638 q 425 669 421 669 q 429 665 429 669 q 426 653 429 664 l 399 538 l 160 538 l 160 550 q 179 592 164 565 q 228 649 194 619 q 256 676 238 656 q 289 713 275 697 q 315 762 308 735 q 322 833 322 789 q 310 924 322 903 q 261 946 297 946 q 206 930 229 946 q 182 900 183 914 q 200 904 190 904 m 156 354 q 184 406 156 382 q 268 429 213 429 q 372 401 339 429 q 406 326 406 372 q 377 259 406 285 q 306 231 349 233 q 344 221 325 228 q 379 201 364 214 q 403 168 394 188 q 413 122 413 149 q 374 28 413 58 q 265 -3 336 -3 q 175 26 206 -3 q 144 85 144 54 q 160 124 144 111 q 196 138 176 138 q 230 124 215 138 q 244 88 244 111 q 231 53 244 64 q 200 42 217 42 q 195 42 197 42 q 190 44 193 43 l 189 44 q 188 43 188 44 q 188 43 188 43 q 207 24 188 38 q 263 11 226 11 q 287 15 276 11 q 304 32 297 19 q 315 66 311 44 q 318 122 318 88 q 303 200 318 174 q 251 226 288 226 l 197 226 q 188 232 188 226 q 197 238 188 238 l 251 238 q 297 258 282 238 q 311 326 311 278 q 300 397 311 379 q 268 415 289 415 q 219 408 238 415 q 201 397 201 400 q 204 396 201 396 l 207 396 l 214 396 q 245 383 233 396 q 257 353 257 369 q 243 317 257 331 q 206 303 229 303 q 170 317 185 303 q 156 354 156 331 "},"":{"ha":522,"x_min":92,"x_max":469,"o":"m 92 490 l 469 490 l 469 463 l 92 463 l 92 490 m 365 418 l 365 151 l 424 151 l 424 114 l 365 114 l 365 7 l 400 7 l 400 -3 l 239 -3 l 239 7 l 272 7 l 272 114 l 132 114 l 132 128 q 215 276 168 199 q 303 418 263 354 l 365 418 m 272 151 l 272 344 q 212 245 244 299 q 158 151 179 192 l 272 151 m 156 892 q 184 943 156 919 q 268 967 213 967 q 372 938 339 967 q 406 864 406 910 q 377 797 406 822 q 306 768 349 771 q 344 758 325 765 q 379 738 364 751 q 403 706 394 725 q 413 660 413 686 q 374 565 413 596 q 265 535 336 535 q 175 563 206 535 q 144 622 144 592 q 160 662 144 649 q 196 675 176 675 q 230 662 215 675 q 244 625 244 649 q 231 590 244 601 q 200 579 217 579 q 195 580 197 579 q 190 582 193 581 l 189 582 q 188 581 188 582 q 188 581 188 581 q 207 562 188 575 q 263 549 226 549 q 287 553 276 549 q 304 569 297 557 q 315 603 311 582 q 318 660 318 625 q 303 738 318 711 q 251 764 288 764 l 197 764 q 188 769 188 764 q 197 775 188 775 l 251 775 q 297 795 282 775 q 311 864 311 815 q 300 935 311 917 q 268 953 289 953 q 219 945 238 953 q 201 935 201 938 q 204 933 201 933 l 207 933 l 214 933 q 245 920 233 933 q 257 890 257 907 q 243 854 257 868 q 206 840 229 840 q 170 854 185 840 q 156 892 156 868 "},"":{"ha":1090,"x_min":90,"x_max":986,"o":"m 986 896 l 986 0 l 90 0 l 90 896 l 986 896 m 957 867 l 119 867 l 119 29 l 957 29 l 957 867 "},"":{"ha":1389,"x_min":26,"x_max":1026,"o":"m 319 607 q 453 597 399 607 q 544 561 508 586 q 595 496 579 536 q 611 397 611 456 l 611 106 q 619 53 611 72 q 654 35 626 35 q 687 50 678 35 q 700 86 696 65 q 711 99 701 99 q 719 88 719 99 q 715 54 719 72 q 694 21 710 36 q 649 -6 678 6 q 569 -17 619 -17 q 461 5 499 -17 q 411 56 424 26 q 384 32 400 44 q 347 8 368 19 q 299 -10 326 -3 q 238 -17 272 -17 q 145 -2 185 -17 q 79 38 106 13 q 40 97 53 63 q 26 168 26 131 q 40 240 26 204 q 83 303 54 275 q 153 348 111 331 q 253 365 196 365 l 403 365 l 403 476 q 388 554 403 526 q 321 582 372 582 q 243 574 264 582 q 222 556 222 567 q 232 542 222 547 q 258 490 258 525 q 256 469 258 482 q 244 447 253 457 q 222 428 236 436 q 183 421 207 421 q 131 438 154 421 q 108 496 108 456 q 168 579 108 551 q 319 607 228 607 m 403 340 l 346 340 q 265 293 289 340 q 240 169 240 246 q 255 58 240 92 q 304 24 269 24 q 329 31 313 24 q 363 48 346 38 q 391 72 379 58 q 403 97 403 85 l 403 340 m 1026 343 l 619 343 l 619 151 q 626 83 619 110 q 644 40 632 56 q 672 19 656 25 q 710 14 689 14 q 802 27 761 14 q 875 63 843 40 q 930 113 907 85 q 968 172 953 142 q 979 190 975 185 q 992 196 983 196 q 1001 182 1001 196 q 997 164 1001 174 q 958 95 983 128 q 895 38 932 63 q 812 -2 858 13 q 710 -17 765 -17 q 572 10 631 -17 q 473 81 513 38 q 414 181 433 125 q 394 296 394 238 q 414 410 394 354 q 473 510 433 467 q 572 581 513 554 q 710 608 631 608 q 857 581 799 608 q 951 513 915 553 q 1003 426 986 472 q 1026 343 1021 381 m 619 472 l 619 369 l 794 369 l 794 472 q 708 583 794 583 q 619 472 619 583 "},"":{"ha":946,"x_min":51,"x_max":874,"o":"m 115 372 q 195 260 164 322 q 233 122 226 197 q 342 333 276 226 q 490 540 407 440 q 669 724 572 639 q 874 867 767 808 l 874 717 q 696 606 786 676 q 522 444 606 535 q 363 247 438 353 q 232 31 289 140 q 194 110 215 71 q 149 181 172 149 q 101 240 126 214 q 51 279 76 265 l 115 372 "},"":{"ha":1146,"x_min":74,"x_max":1049,"o":"m 475 379 l 647 379 l 647 554 l 475 554 l 475 379 m 418 751 q 383 856 418 813 q 276 899 347 899 q 170 860 211 899 q 129 753 129 822 q 168 651 129 690 q 278 611 207 611 l 418 611 l 418 751 m 276 554 q 195 569 232 554 q 131 611 158 585 q 89 674 104 638 q 74 756 74 711 q 89 832 74 796 q 131 895 104 868 q 194 938 157 922 q 272 954 231 954 q 360 938 322 954 q 424 895 399 922 q 463 831 450 868 q 475 753 475 794 l 475 611 l 647 611 l 647 753 q 660 831 647 794 q 699 895 674 868 q 763 938 725 922 q 850 954 800 954 q 928 940 892 954 q 992 899 965 925 q 1033 835 1018 872 q 1049 756 1049 799 q 1033 676 1049 713 q 989 612 1017 639 q 924 569 961 585 q 846 554 888 554 l 704 554 l 704 379 l 846 379 q 924 365 888 379 q 989 323 961 350 q 1033 259 1017 296 q 1049 179 1049 222 q 1033 101 1049 138 q 992 39 1018 65 q 929 -3 965 13 q 850 -18 893 -18 q 763 -3 800 -18 q 699 40 725 13 q 660 103 674 67 q 647 182 647 140 l 647 324 l 475 324 l 475 182 q 463 103 475 140 q 424 40 450 67 q 360 -3 399 13 q 272 -18 322 -18 q 193 -3 229 -18 q 131 38 157 11 q 89 100 104 64 q 74 179 74 136 q 90 259 74 222 q 133 323 106 296 q 198 365 161 350 q 276 379 235 379 l 418 379 l 418 554 l 276 554 m 844 611 q 953 651 914 611 q 993 753 993 690 q 951 860 993 822 q 846 899 910 899 q 740 856 775 899 q 704 751 704 813 l 704 611 l 844 611 m 278 324 q 168 284 207 324 q 129 182 129 244 q 170 74 129 111 q 276 36 211 36 q 383 78 347 36 q 418 183 418 121 l 418 324 l 278 324 m 704 183 q 740 78 704 121 q 846 36 775 36 q 951 74 910 36 q 993 182 993 111 q 953 284 993 244 q 844 324 914 324 l 704 324 l 704 183 "},"":{"ha":411,"x_min":0,"x_max":0,"o":""},"":{"ha":624,"x_min":39,"x_max":589,"o":"m 314 581 l 107 374 l 314 167 l 521 374 l 314 581 m 39 374 l 314 649 l 589 374 l 314 99 l 39 374 "},"":{"ha":1149,"x_min":113,"x_max":1060,"o":"m 388 772 q 461 763 424 772 q 524 738 499 754 q 572 708 556 717 q 611 699 589 699 q 657 707 635 699 q 707 738 679 715 q 767 765 732 757 q 838 772 801 772 q 907 763 875 772 q 964 740 939 754 q 1006 709 989 726 q 1028 675 1022 692 q 938 590 965 644 q 911 464 911 535 q 925 396 911 428 q 960 338 939 364 q 1008 295 982 313 q 1060 269 1035 278 q 1024 194 1049 242 q 963 98 999 146 q 878 15 926 50 q 771 -19 829 -19 q 665 29 707 -19 q 643 48 656 39 q 611 57 631 57 q 578 49 594 57 q 550 29 561 42 q 451 -19 510 -19 q 384 3 421 -19 q 310 63 347 25 q 236 150 272 100 q 173 256 200 200 q 129 369 146 311 q 113 481 113 426 q 134 606 113 551 q 192 697 156 660 q 279 753 229 735 q 388 772 329 772 m 764 975 q 783 951 783 975 q 766 888 783 922 q 723 825 749 854 q 668 776 697 796 q 614 757 639 757 q 594 763 599 757 q 589 779 589 769 q 606 847 589 813 q 647 910 622 882 q 703 957 672 939 q 764 975 735 975 "}}}
